<svg width="287" height="192" viewBox="0 0 287 192" fill="none" xmlns="http://www.w3.org/2000/svg">
<g clip-path="url(#clip0_30_365)">
<path d="M129.044 54.4359C138.353 59.6044 149.341 66.5431 150.747 67.0201C152.289 71.4111 150.573 79.6794 150.5 82C149.305 88.9919 142.957 91.6577 138.433 98.3042C133.988 102.06 127.252 106.171 111.914 104.477C98.4799 102.993 88.4035 101.872 83.5291 99.3948C70.1375 92.5897 58.9416 87.1553 58.3343 78.3776C57.8449 71.3059 58.1939 62.1964 60.5257 54.9248C61.3842 52.2475 62.1515 51.5256 65.841 50.8508C75.8378 49.0226 91.3635 47.2482 105.832 48.4912C113.819 49.1774 121.727 50.3733 129.044 54.4359Z" fill="#E4B8AF" stroke="#E4B8AF" stroke-width="2" stroke-linecap="round"/>
<path d="M133.19 105.73C132.71 103.89 131.45 102.53 131.11 100.68C129.43 91.58 134.25 80.9 140.66 74.58L151.93 66.74C146.19 64.84 139.06 59.87 139.15 53.27C127.04 54.25 126.28 44.06 129.17 34.83C126.85 32.19 125.09 33.22 123.6 29.45C119.91 20.11 131.26 9.93003 139.83 8.65003C140.76 8.51003 142.37 9.27003 142.85 8.93003C143.02 8.81003 143.74 6.37003 144.79 5.21003C147.53 2.16003 155.4 -1.68997 159.02 0.820031C159.88 1.42003 160.14 3.04003 160.61 3.04003C161.51 3.04003 163.22 1.66003 165.05 1.46003C168.42 1.09003 172.96 2.33003 175.59 4.47003C176.71 5.39003 177.19 7.05003 177.99 7.55003C179.89 8.76003 187.44 6.98003 188.57 12.52C189.63 17.71 184.3 14.41 180.98 15.13C178.87 15.59 175.9 19.24 174.11 18.72C170.82 17.76 175.42 10.57 174.38 9.05003C170.7 7.57003 166.64 7.85003 163.56 10.47C161.09 12.57 160.74 16.77 157.2 17.22L156.44 5.22003C153.68 5.13003 149.28 7.81003 148.5 10.45C147.88 12.56 150.43 20.44 147.81 20.97C143.19 21.9 142.92 12.17 141.81 11.97C138.12 13.2 127.57 21.88 130.88 25.92C132.14 27.46 135.77 26.98 137.34 28.46C138.51 23.4 142.17 20.5 147.52 22.05C152.6 23.52 146.74 26.24 146.02 27.42C144.41 30.03 144.65 38.61 139.16 30.75H138.09C134.15 33.86 127.89 40.22 133.96 44.58C137.1 46.83 146.22 44.93 151.23 46.06C154.23 46.74 165.01 52.63 165.79 52.47C168.94 51.84 163.27 42.04 168.62 39.53C169.76 38.99 170.94 38.87 172.18 38.98L171.75 45.78C172.89 47.37 177.94 46.25 179.68 45.72C179.87 45.44 177.59 40.6 180.63 39.47C183.39 38.45 185.84 43.72 188.68 42.4C190.18 41.6 195.31 27.82 198.05 33.74C198.69 35.13 197.79 37.39 199.17 37.47C201.69 30.38 198.14 20.65 190.18 19.47C189.93 16.52 194.19 17.26 196.04 17.74C204.93 20.02 207.43 31.57 201.43 37.86C199.94 39.42 198.34 39.47 197.88 39.93C196.53 41.3 196.29 46.45 191.96 48.64C189.45 49.91 188.13 49.04 186.21 49.47C185.89 49.54 183.83 52.9 182.19 53.87C180.81 54.68 176.23 56.15 174.72 56.18C172.77 56.22 171.39 54.93 170.16 54.89C168.93 54.85 167.67 56.63 165.76 56.95C163.85 57.27 160.35 57.16 158.47 56.81C154.03 55.99 151.36 50.9 147.78 50.93C143.75 50.96 143.76 54.9 145.58 57.71C148.61 62.37 157.12 61.19 157.87 62.3C158.48 63.2 156.96 65.35 157.52 66.73C158.57 69.28 177.68 77.35 180.62 77.08C182.13 76.94 186.55 74.79 187.87 73.82C195.96 67.86 192.93 55.2 196.11 46.81L198.72 46.55C199.71 46.88 199.68 47.57 199.88 48.4C200.93 52.78 201.73 66.19 198.93 69.5C194.25 75.04 187.7 80.47 180.03 80.98C175.37 81.29 166.23 78.04 162.03 75.75C160.07 74.68 154.98 69.76 153.52 70.59C148.36 78.74 141.54 84.06 138.79 93.73C137.35 98.79 138.77 104.53 133.17 105.74C134.03 109.03 135.41 112.97 133.81 116.13L130.67 116.27C128.37 113.2 129 109.15 130.29 105.84C130.91 105.4 132.39 105.91 133.17 105.74L133.19 105.73Z" fill="black"/>
<path d="M258.97 92C257.97 92.83 256.7 93.03 255.44 92.98C254.11 87.78 255.28 82.31 254.35 77.19C252.26 65.72 240.29 57.84 240.07 45.73C237.97 52.08 217.5 73.34 217.17 77.66C217.11 78.42 219.3 83.33 219.84 83.96C222.55 87.12 233.53 89.69 235.34 93.97C236.92 97.68 230.75 94.55 229.43 93.87C227.1 92.66 213.22 82.44 212.02 83.29C209.74 86.71 206.84 92.55 202.19 92.24C201.54 95.13 205.01 92.24 205.99 94.21C206.32 96.61 205.11 98.35 203.69 100.12L205.22 100.85L205.15 102.31L201.46 105.36L203.68 107.61C203.68 109.12 184.55 118.85 183.1 118.48C180.04 117.7 184.33 114.09 185.33 113.25C188.09 110.97 195.42 108.42 196.51 107.26C197.19 106.53 198.49 102 198.84 101.28C199.6 99.72 202.37 98.92 202.18 96.73L196.96 98.22L196.57 95.99C194.04 97.75 189.07 104.78 186.47 105.42C184.65 105.87 180.91 104.46 178.31 104.74C172.39 105.4 166.12 112.44 160.94 107.61C159.7 106.46 151.19 95.01 151.18 94.1L152.36 92.27C158.82 93.71 162.2 99.78 166.55 104.06C171.5 99.43 178.69 101.68 184.11 99.29C188.34 97.42 193.42 90.78 197.86 89.72C199.89 89.24 200.91 91.11 202.89 90.69L208.87 79.22C208.53 77.24 197.74 71.15 199.95 68.99C202.62 67.88 211.38 74.57 212.72 73.91C219.54 65.55 224.44 55.73 231.13 47.3C232.37 45.74 236.58 40.41 237.82 39.66C239.06 38.91 240.35 39.81 240.82 39.04C241.56 37.82 241.08 35.46 243.07 34.5C245.18 34.5 245.48 43.94 246.28 46.28C248.34 52.31 255.12 59.96 258.1 65.96C261.23 72.27 265.34 86.71 258.98 92.02L258.97 92Z" fill="black"/>
<path d="M61.19 131.98C56.19 132.2 51.5 130.09 46.6 129.71C40.87 129.26 35.48 130.36 30.1 130.52C25.39 130.65 18.13 129.38 13.91 130.83C9.17 132.46 1.09 147.16 6.44 150.38C11.79 153.6 19.78 141.94 23.29 141.83C30.51 141.6 48.41 152.9 57.04 155.27C73.61 159.82 89.37 156.03 105.83 155.24C108.48 155.11 118.73 154.1 117.4 158.51C116.51 161.44 104.14 164.31 101.12 164.78C81.67 167.82 56.21 163.53 38.43 155.13C35.75 153.86 28.59 148.83 26.89 148.59C24.81 148.31 19.06 155.07 16.46 156.62C4.04 164 -2.11 154.45 0.680001 142.34C2.39 134.9 6.52 127.64 13.97 124.88C24.41 121.01 49.09 121.87 58.45 128.37C59.63 129.19 61.38 130.34 61.2 131.99L61.19 131.98Z" fill="black"/>
<path d="M142.94 70.4801C141.67 71.7001 121.31 64.0401 117.6 63.2001C104.3 60.2101 87.97 59.9 75.24 65.39C72.02 66.78 67.78 69.6701 73.63 70.4001C77.62 70.9001 93.08 69.65 94.95 70.85C95.68 71.31 95.83 71.9001 95.69 72.7201L82.95 76.4701C90.83 77.5001 97.58 73.2101 105.45 74.2301C106.47 78.1601 103.26 77.1401 101.7 79.4701C105.3 80.1201 114.77 76.6201 117.47 78.3301C118.16 78.7701 118.6 79.59 117.85 80.25L111.45 84.7201C116.11 85.7801 122.73 83.5801 126.83 83.9101C131.64 84.3001 128.43 87.56 125.95 89.1C121.91 91.6 114.02 91.53 110.3 88.5C109.1 87.5201 108.2 85.12 107.19 84.81C105.75 84.36 102.92 85.7001 100.39 84.9701C97.28 84.0701 95.86 81.57 94.42 81.13C90.09 79.83 83.23 82.7401 79.14 79.1601C78.1 78.2501 77.64 76.2801 76.44 75.8601C73.2 74.74 64.42 76.3101 64.11 70.8601C63.73 64.2701 78.98 58.01 84.44 56.6C99.47 52.72 121.05 55.0901 134.71 62.5901C136.09 63.35 144.98 68.5201 142.94 70.4701V70.4801Z" fill="black"/>
<path d="M226.19 24.74C227.54 26.06 220.8 34.34 219.45 35.61C221.1 36.53 227.08 32.49 227.69 35.63C227.96 37.03 221.35 47.06 219.45 48.36C221.05 49.18 222.63 46.82 223.93 49.1C220.29 55.91 216.64 63.06 210.07 67.47C206.43 65.51 212.87 58.86 211.94 57.74C208.85 59.33 206.65 63.51 202.95 62.99C203.88 56.28 210.12 51.78 214.2 46.87C214.9 46.03 216.02 45.66 215.7 44.25C214.79 43.32 208.26 49.61 206.91 50.08C200.73 52.24 205.6 46.04 207.07 44.24C209.3 41.51 212.57 39.1 214.93 36.35C215.55 35.63 219.21 31.29 218.69 30.75C215.14 33.03 211.68 35.45 208.27 37.95C206.67 39.13 199.17 46.51 197.7 44.99C197.68 44.41 197.62 43.81 197.81 43.24C198.93 39.9 223.7 22.31 226.19 24.75V24.74Z" fill="black"/>
<path d="M77.69 170.98C92.63 175.18 100.14 190.91 117.44 184.11C131.02 178.77 136.81 169.61 147.19 162.11C148.7 161.02 151.26 158.6 152.67 160.85C149.84 167.27 145.84 171.95 140.7 176.62C123.77 191.98 104.73 197.97 85.59 182.21C83.87 180.79 75.62 173.16 77.7 170.99L77.69 170.98Z" fill="black"/>
<path d="M111.29 119.82C107.57 121.96 108.08 116.29 107.25 116.18C96.74 117.19 87.73 119.34 78.94 125.36C75.45 127.75 67.94 136.21 64.58 136.4C60.25 136.65 62.34 133.38 63.59 131C70.39 118.06 89.04 108.87 103.47 110.32C105.55 110.53 109.29 112.19 110.32 112.19C110.72 112.19 118.64 107.93 116.33 112.48C116.05 113.03 111.68 119.59 111.3 119.81L111.29 119.82Z" fill="black"/>
<path d="M230.69 171.73C229.97 165.67 231.88 160.08 235.93 155.61C226.14 156.98 236.79 149.24 239.32 146.25C241.85 145.21 239.08 150.38 240.06 150.74C245.31 145.73 247.87 139.98 249.25 132.93C249.82 130 248.91 120.02 253.93 122.58C257.31 124.3 257.91 131.98 257.59 135.28C256.46 146.97 245.26 153.9 238.55 161.99C236.49 164.48 235.06 167.58 233.1 170.04C232.39 170.93 232.25 172.09 230.69 171.75V171.73Z" fill="black"/>
<path d="M123.44 153.74C137.17 154.01 149.82 152.24 160.87 143.55C164.22 140.92 172.67 130.43 176.34 130.48C182.64 130.56 171.52 143.51 169.95 145.13C160.65 154.75 149.46 160.17 135.82 158.98C134.79 158.89 120.68 156.16 123.44 153.75V153.74Z" fill="black"/>
<path d="M181.19 118.48C181.16 122.87 179.62 123.52 176.13 125.05C167.13 129 160.54 128.96 152 124.05C147.86 121.67 136.16 111.23 137.78 106.23C142.25 102.21 146.68 112.5 149.74 115.06C150.44 115.65 156.31 118.49 156.81 118.49H181.19V118.48Z" fill="black"/>
<path d="M268.1 104.32C268.98 104.87 268.5 107.75 268.19 108.73C270.95 107.28 274.15 106.94 277.04 105.93C278.25 105.5 279.04 106.32 278.68 104.24C274.2 105.89 269.64 102.63 268.55 98.25L267.43 101.99C266.09 103.42 256.24 90.51 263.31 90.3C266.15 90.21 286.49 100.96 286.88 103.22C284.02 107.36 270.26 115.39 265.53 115.53C254.23 115.86 263.63 101.54 268.1 104.33V104.32Z" fill="black"/>
<path d="M227.69 167.98C225.03 168.48 224.06 165.96 222.88 164.17C216.24 154.11 201.59 126.7 199.51 115.5C198.92 112.32 200.53 111.44 202.84 113.71C208.07 118.85 211.04 129.45 214.3 136C216.47 140.35 230.53 165.04 227.69 167.98Z" fill="black"/>
<path d="M245.58 98.1001C245.69 98.0601 245.57 96.7401 247.11 96.3001C252.45 94.7801 252.44 97.7101 255.93 99.6001C257.7 100.56 260.84 100.12 260.69 102.73C254.33 100.01 251.27 107.65 244.94 107.23V101.25C235.36 100.82 225.66 100.39 216.17 98.8801C214.7 98.6501 208.2 97.8601 208.2 96.3601C209.05 95.3901 210.2 94.6301 211.52 94.5901C217.05 94.4301 243.97 98.7201 245.57 98.1001H245.58Z" fill="black"/>
<path d="M255.43 106.49L253.19 110.23C255.75 110.72 259.14 111.03 259.13 114.37C259.09 122.35 239.74 118.97 237.56 113.5C237.18 112.54 236.96 111.57 238.55 111.75C242.82 112.25 247.77 116.07 252.44 115.48L248.04 113.15C246.65 110.91 252.26 103.83 255.44 106.49H255.43Z" fill="black"/>
<path d="M96.44 65.98C96.24 64.98 96.76 64.24 97.52 63.69C99.52 62.24 109.43 63.42 112.47 63.82C115.11 64.17 130.87 66.67 130.18 70.1C129.13 71.58 127.62 71.33 126.09 71.24C116.9 70.75 106.25 64.84 96.44 65.98Z" fill="black"/>
<path d="M163.09 31.58L162.72 35.31C159.5 37.12 156.26 36.8 152.69 36.74C163.08 52.51 141.73 41.06 149.95 32.49C154.53 27.71 157.7 29.84 163.09 31.58Z" fill="black"/>
<path d="M211.58 102.73C212.32 102.6 218.58 107.47 220.17 108.37C224.03 110.55 228.15 111.82 232.17 113.61C232.21 116.49 220.13 113.67 218.16 112.64C216.81 111.93 207.16 103.53 211.58 102.73Z" fill="black"/>
<path d="M178.94 71.97C178.19 70.9 181.37 68.07 182.69 68.21C182.4 66.69 179.78 66.49 181.23 64.89C183.38 62.51 186.61 62.62 189.13 64.44L187.22 71.62C184.63 73.39 181.75 72.82 178.95 71.97H178.94Z" fill="black"/>
<path d="M186.44 27.72C181.57 25.65 181.77 38.02 177.8 33.74C171.78 27.25 185.16 18.63 186.44 27.72Z" fill="black"/>
<path d="M106.01 179.43C107.91 179.13 116.48 178.33 115.9 181.78C115.32 185.23 102.76 185.32 100.95 181.86C102.12 180.18 104.09 179.74 106.01 179.43Z" fill="black"/>
<path d="M124.68 106.57L126.42 107.6C125.63 109.91 124.1 111.89 123.23 114.14C122.3 116.51 122.98 120.6 120.19 119.88C114.91 118.52 119.97 107.2 124.69 106.58L124.68 106.57Z" fill="black"/>
<path d="M253.18 83.23C251.03 84.82 248.62 74.91 248.08 73.72C246.85 70.99 244.3 68.97 244.19 65.99C249.2 64.91 255.37 81.61 253.18 83.23Z" fill="black"/>
<path d="M157.94 23.23C158.76 17.55 172.74 19.37 171.44 24.35C170.62 25.51 170.39 25.37 169.17 25.19C165.63 24.67 161.66 23.44 157.94 23.23Z" fill="black"/>
<path d="M175.19 59.98C175.67 65.27 164.67 64.57 166.19 59.23L175.19 59.98Z" fill="black"/>
<path d="M155.52 145.32C144.28 147.54 150.04 135.21 156.09 143.16L155.52 145.32Z" fill="black"/>
<path d="M183.44 55.4901C185.01 55.3601 186.77 55.7401 188.3 55.4701C189.69 55.2201 191.86 52.0401 192.44 54.3701C193.7 59.5001 183.97 60.6601 183.45 55.4901H183.44Z" fill="black"/>
<path d="M82.73 64.6501C83.98 64.6701 84.43 65.6001 85.18 66.3501C85.17 67.8301 78.16 69.5101 76.96 67.1001C76.97 66.1801 81.82 64.6301 82.73 64.6501Z" fill="black"/>
</g>
<defs>
<clipPath id="clip0_30_365">
<rect width="286.88" height="191.48" fill="white"/>
</clipPath>
</defs>
</svg>
