<svg width="229" height="377" viewBox="0 0 229 377" fill="none" xmlns="http://www.w3.org/2000/svg">
<g clip-path="url(#clip0_30_58)">
<path d="M127.908 121.299C132.794 119.706 140.574 119.245 143.396 119.212C147.405 119.629 150.463 119.012 152.609 119.837C157.733 122.122 162.351 125.063 165.413 129.022C167.583 136.758 166.57 152.331 174.018 163.515C177.669 168.997 183.714 171.087 186.921 176.529C188.431 179.09 188.653 194.584 188.194 216.801C187.955 228.366 188.534 233.535 182.524 239.76C167.927 254.878 155.612 267.009 152.028 273.608C148.077 280.882 145.364 287.101 145.233 297.145C144.965 317.637 144.689 334.65 142.619 341.72C140.985 347.304 139.915 351.902 137.096 354.745C126.712 365.217 113.1 376.942 104.202 378.85C100.629 379.617 83.6115 382.751 58.355 377.634C40.1043 373.937 20.2992 367.41 14.7145 358.285C13.2492 355.89 12.2921 353.324 11.5371 349.729C9.58836 340.45 1.34115 332.369 -3.63273 315.065C-4.9612 310.443 -6.53773 299.342 -4.16532 284.994C-3.05614 278.286 0.554302 271.04 9.61874 260.315C20.5008 247.441 30.5754 236.375 41.93 230.314C56.3381 222.623 69.4187 216.951 75.86 211.079C84.314 203.373 94.4133 192.643 99.8616 167.27C103.272 151.389 104.77 141.452 106.685 139.26C113.344 131.636 122.097 123.193 127.908 121.299Z" fill="#F1EDE4"/>
<path d="M171.933 141.258C171.726 147.364 176.519 152.089 177.105 157.789C177.985 166.408 176.761 176.625 176.476 185.304C178.657 183.491 180.097 185.944 181.321 185.952C182.545 185.961 183.648 183.474 185.915 185.253C188.019 186.902 185.493 188.008 190.95 185.978C192.829 186.565 191.07 191.98 195.7 193.57C197.001 194.019 198.639 193.501 200.018 194.425C202.406 196.022 201.484 201.731 201.751 204.348C202.484 211.456 201.811 213.261 201.656 219.928C201.527 225.378 204.01 230.145 201.794 234.973C200.389 238.03 198.751 238.419 198.424 242.608C198.234 245.078 200.105 259.561 201.475 260.502C203.57 261.936 204.57 259.716 206.035 259.302C210.613 258.024 210.897 262.316 213.32 263.352C214.716 263.948 216.225 263.352 217.561 264.285C220.819 266.548 217.449 269.64 217.88 271.039C218.345 272.524 224.586 275.012 220.104 279.244C215.526 283.562 209.302 279.382 205.949 280.608C204.863 281.005 204.596 284.875 200.699 285.125C196.803 285.375 196.131 281.99 193.984 281.498C190.165 280.617 188.114 287.578 185.545 289.322C184.278 290.186 183.122 290.091 182.312 290.618C181.364 291.231 180.398 293.744 179.045 294.47V295.411L180.933 296.465C181.243 299.902 178.192 301.56 175.209 299.902L175.795 296.085H172.562L173.856 299.963C173.106 300.766 169.201 297.449 168.959 296.119C168.795 295.187 171.123 293.382 169.382 290.678C169.209 290.411 164.149 287.647 163.83 287.647C161.606 287.63 161.192 292.423 156.546 292.699C153.882 292.855 153.58 290.842 152.055 290.376C147.908 289.106 145.245 293.805 142.52 293.511C140.719 293.321 136.771 288.372 133.443 288.355C130.978 288.346 127.168 292.725 124.082 293.235C120.72 293.787 118.677 290.842 116.056 290.929C112.866 291.032 110.41 295.135 107.47 295.282C104.927 295.411 102.556 290.592 99.2376 290.903C96.3584 291.171 93.6516 296.188 90.1087 296.145C87.2381 296.111 85.6088 291.447 82.8762 291.015C80.6952 290.678 77.0833 293.71 74.2903 291.551C76.0316 300.584 64.782 302.51 61.6615 294.781C61.3597 294.038 61.446 292.362 61.308 292.241C61.1098 292.06 59.1788 292.345 58.1185 291.87C56.9289 291.343 56.3255 289.348 54.0928 288.718C50.6274 287.742 44.9638 294.876 41.5674 286.965C39.7054 286.688 37.5158 290.402 33.3694 289.486C28.9213 288.502 30.0937 283.631 28.6282 283.173C25.3697 283.32 22.4043 286.507 19.3355 284.097C16.7149 282.033 19.2751 279.261 17.0166 277.344C13.1547 278.475 6.93076 282.007 6.33595 275.694C5.87907 270.797 9.33584 270.011 13.4995 270.175C14.0512 269.7 9.80134 264 12.3788 261.28C14.5512 258.982 17.6717 260.761 19.6458 262.394C21.2147 261.487 19.9389 260.381 20.2492 259.146C21.4388 254.396 27.8955 258.231 29.5678 255.502C30.2919 254.319 32.1884 240.397 32.2833 238.143C32.5505 231.838 29.361 227.597 30.973 221.595C33.3522 219.427 32.9384 230.024 33.5591 230.663C35.3004 229.67 36.3348 227.079 38.7744 228.349C40.2312 229.402 37.9124 237.806 42.8001 236.398C44.3862 235.94 46.1534 231.363 48.2913 235.664C49.2568 237.616 48.6361 241.217 51.8515 240.923C54.1014 240.716 53.998 238.246 55.0755 237.331C57.5582 235.215 59.9891 237.883 62.3511 237.832C66.713 237.745 65.8423 231.579 68.0923 229.964C69.868 228.686 71.0318 229.946 72.4283 229.679C76.1351 228.971 75.2127 221.785 75.8592 218.961C76.6695 217.804 80.3159 218.788 81.6607 217.778C82.2986 217.303 82.0745 213.485 84.2382 213.848C85.6175 214.081 87.1777 220.999 88.6173 223.098C90.2121 225.43 94.0396 227.286 94.3844 227.839C95.0999 228.979 94.9619 231.441 95.574 232.969C97.6601 238.151 102.841 234.455 105.556 236.424C106.513 237.123 106.591 242.107 108.867 242.824L114.694 239.118C117.78 239.118 118.461 244.283 124.978 241.597C126.469 240.984 127.616 239.274 128.952 239.058C131.245 238.687 133.745 240.405 136.538 239.576C139.331 238.747 141.727 233.686 143.477 232.935C145.331 232.14 147.012 233.03 148.977 231.32C150.943 229.61 151.175 226.138 152.494 224.48C153.546 223.158 155.434 222.977 156.537 220.757C156.822 220.187 158.287 215.843 158.322 215.394C158.442 213.641 154.925 208.088 159.304 208.597C161.14 208.813 162.666 213.339 164.546 214.401C166.149 215.308 169.071 214.841 169.701 215.714L168.675 222.234C174.709 221.742 173.157 223.201 174.89 226.708C177.847 232.693 180.321 228.236 182.459 228.789L186.562 233.842L191.519 231.397L194.881 234.541L200.311 229.083C197.924 223.003 200.372 217.277 200.415 211.551C200.449 206.593 198.234 201.472 199.07 196.316C196.76 196.549 193.251 196.04 191.338 194.666C188.889 192.913 190.131 188.889 185.441 189.562L184.838 187.248C181.597 189.001 180.373 187.818 177.088 187.248L176.804 193.112C175.114 193.492 173.252 194.822 171.795 195.236C170.709 195.539 169.416 194.761 168.821 195.124C168.476 195.331 167.873 197.56 166.408 197.447L164.149 194.373H163.209C160.253 199.209 156.46 195.262 153.503 199.399C149.098 194.926 147.581 199.201 144.986 199.442C143.745 199.563 142.477 197.024 140.055 197.698C138.831 198.035 138.297 200.047 136.659 200.22C134.754 200.418 133.935 198.769 132.65 198.415C127.573 197.007 127.081 201.524 125.038 201.532C122.728 201.532 122.728 196.23 121.176 196.964C119.754 197.637 119.513 201.982 117.297 202.621C115.737 202.457 114.728 200.349 113.728 199.883C109.384 197.871 106.694 202.612 104.496 202.051C102.738 201.602 102.444 198.484 100.393 198.406C98.5394 198.363 96.4102 200.798 94.6602 200.798C93.0913 200.798 92.1172 199.019 90.7466 198.89C89.1432 198.734 87.9794 200.315 86.3071 200.194C84.902 200.099 83.8158 198.717 81.7383 198.838C79.6608 198.959 78.7384 200.997 76.635 200.816L73.8938 197.041L69.5577 198.19L67.463 195.763C63.9631 197.214 62.4028 195.496 59.4288 194.027C62.4459 185.08 65.9889 191.462 71.0577 192.758C72.9628 193.241 75.0834 192.792 76.7385 193.492C77.7212 193.915 77.7729 195.366 78.5832 195.599C79.4884 195.85 81.109 194.9 82.3848 194.951C85.8933 195.107 91.4448 196.264 94.6947 196.195C97.6601 196.126 99.048 193.526 102.901 195.176C103.936 195.625 104.591 196.921 105.643 196.946C107.979 196.998 112.539 193.406 116.013 196.8C116.771 196.731 117.478 193.578 121.418 193.406C124.073 193.285 124.969 195.556 126.219 195.539C127.081 195.521 128.702 194.485 130.228 194.347C132.495 194.148 134.443 195.09 136.012 194.986C140.4 194.684 144.995 193.837 149.615 193.647C155.365 193.414 157.52 191.816 162.597 191.134C164.382 190.892 165.882 191.765 167.347 191.419C170.261 190.728 171.614 187.792 171.942 184.985C173.028 175.709 171.752 166.287 171.907 157.15C171.933 155.526 173.062 153.375 172.933 151.907C172.778 150.085 170.416 149.04 169.804 147.528C169.235 146.121 170.269 144.35 168.873 142.865L171.925 141.25L171.933 141.258ZM162.253 217.691C161.313 222.467 158.08 228.781 160.253 233.608C161.227 235.776 162.727 235.862 163.701 233.712C164.675 231.562 163.778 222.873 163.477 220.006C163.416 219.393 163.192 217.57 162.253 217.691ZM83.9106 221.681C79.8073 220.878 79.0143 222.156 79.4884 226.103C81.4021 225.266 81.8848 224.98 82.7727 227.019C84.3934 230.715 85.4192 241.424 79.6522 242.219C75.1179 242.841 74.1437 233.729 72.6438 233.254C69.2388 232.166 69.8249 241.329 63.5924 241.606C61.877 241.683 59.1357 240.276 57.8944 240.518C56.2996 240.828 54.8428 244.948 51.3515 244.931C48.593 244.922 45.7052 242.426 45.1966 239.714C44.4293 239.179 41.1191 244.05 37.4468 238.747C36.6107 237.547 36.7141 235.612 35.5159 235.18C34.5935 245.406 35.6883 256.409 34.059 266.436C33.8866 267.507 32.8781 268.353 32.8781 269.83C32.8781 274.96 35.5676 273.5 38.2658 274.191C39.7485 274.571 41.9898 277.352 43.5587 277.326C44.0069 277.326 46.1276 272.075 50.136 278.492C51.205 278.699 53.6876 276.428 55.7306 276.748C57.3858 277.007 58.4116 279.192 59.7305 279.218C61.127 279.244 62.4287 277.292 64.7907 278.026C66.5751 278.579 65.7044 280.781 68.1354 280.582C70.5663 280.384 71.4973 277.654 73.9541 277.914C75.7213 278.095 76.4885 280.435 77.5057 280.824C78.9884 281.385 81.5055 278.76 85.2468 280.902C86.3071 281.506 86.8071 283 88.2294 283.139C89.6518 283.277 90.7983 281.964 92.1431 281.817C94.212 281.593 95.3757 283.061 97.255 283.165C99.3411 283.277 101.824 281.886 103.737 281.93C106.108 281.981 108.461 284.089 111.479 283.821C113.591 283.631 114.961 281.55 116.634 281.463C118.306 281.377 120.521 282.681 123.099 282.491C125.495 282.318 128.159 280.427 130.245 280.487C132.193 280.539 133.064 282.387 134.633 282.318C136.512 282.232 139.262 279.9 141.227 279.943C142.762 279.978 143.607 281.48 144.443 281.575C145.624 281.696 147.831 279.96 149.624 279.839C151.744 279.701 153.08 280.98 153.874 280.902C155.106 280.772 156.33 279.304 157.434 279.226C158.908 279.114 159.666 280.539 160.623 280.556C161.787 280.574 162.373 278.855 163.865 278.587C165.744 278.259 167.382 279.304 168.873 279.114C170.494 278.907 172.062 276.877 173.588 276.653C175.407 276.385 177.114 277.594 178.562 277.205C179.442 276.972 180.166 275.608 181.131 275.193C182.381 274.658 183.993 274.969 184.709 274.563C185.209 274.278 185.683 271.963 187.269 271.566C188.657 271.212 189.967 272.308 191.493 272.032C192.269 271.894 195.889 269.51 196.208 268.888L196.493 237.797C194.174 239.559 192.915 236.899 191.553 236.674C189.708 236.363 187.95 238.445 184.717 236.977C183.028 236.208 182.105 234.092 180.976 233.591C177.821 232.192 175.485 234.593 172.287 229.99C170.709 227.718 171.804 225.335 167.416 226.129C170.804 241.278 156.029 244.585 155.46 228.072C153.072 230.957 153.339 234.075 149.443 235.647C148.029 236.217 146.012 236.147 144.814 236.838C142.986 237.901 142.46 240.898 138.771 242.443C134.245 244.344 132.814 242.487 129.642 242.962C127.349 243.307 125.375 245.993 121.073 245.959C118.194 245.933 115.694 243.601 114.711 243.592C112.599 243.592 109.918 249.741 105.074 244.853C103.815 243.584 102.91 239.956 102.677 239.801C101.66 239.144 97.3498 240.569 94.5654 238.212C91.9448 236.001 92.4017 232.442 91.1604 230.456C90.669 229.653 88.307 228.824 87.2467 227.736C85.7899 226.224 84.7037 223.642 83.9106 221.699V221.681ZM79.4884 228.055C77.9195 227.856 78.4626 228.055 78.1264 228.962C77.1609 231.553 76.9454 235.776 79.1694 237.763C81.109 237.823 79.6866 229.437 79.4884 228.055ZM25.1801 258.499C21.5078 258.317 23.4905 263.577 21.5423 264.242C18.4131 265.304 17.1114 262.247 14.1977 262.385C14.5598 269.709 19.6286 271.687 9.16343 272.878C8.25829 274.183 8.77552 275.841 9.64617 277.024C11.0599 278.034 18.2062 272.447 19.7234 277.249C20.1716 278.674 19.6372 281.489 20.6113 282.189L29.8954 280.625C32.6798 281.446 30.723 286.464 33.9297 287.016C37.5158 287.638 39.1795 284.132 41.645 284.382C43.8173 284.607 43.9121 287.656 45.6793 288.191C48.2223 288.96 49.5585 286.913 51.5067 286.49C56.9203 285.324 57.7133 289.625 59.1098 289.651C61.6442 289.685 65.2993 286.127 68.7905 286.369C71.2732 286.541 74.1955 289.78 76.0833 290.126C78.066 290.497 79.7729 289.029 81.7728 288.899C87.014 288.562 87.7898 293.278 90.1949 293.494C92.8672 293.727 95.936 288.64 98.617 288.277C102.6 287.733 105.22 292.872 107.505 292.673C110.513 292.414 112.504 287.941 117.927 288.96C119.28 289.21 120.073 290.462 121.332 290.756C127.211 292.121 129.047 284.227 136.857 286.844C138.874 287.517 141.589 290.808 143.167 290.851C145.598 290.92 147.813 286.36 152.58 287.923C155.606 288.916 155.434 292.682 159.365 288.96C160.847 287.561 161.485 285.151 163.916 285.039C166.114 284.944 167.916 287.88 169.804 288.165C174.019 288.796 179.45 282.845 183.907 288.243C184.795 288.165 188.812 277.87 194.717 279.347C197.243 279.978 199.63 285.203 202.613 281.774C203.458 280.807 203.268 279.399 204.734 278.691C207.975 277.128 218.862 280.746 218.966 276.212C219.026 273.613 216.078 273.423 215.518 271.471C215.018 269.735 217.259 267.602 216.268 266.237C215.207 264.898 213.466 266.341 212.199 265.797C210.932 265.252 210.449 263.577 209.475 262.662C206.303 259.691 206.268 262.713 203.897 263.024C202.458 263.214 201.208 262.238 199.803 262.402C197.001 266.643 199.053 268.293 199.096 272.723C195.553 270.832 193.674 274.424 190.898 274.519C189.751 274.554 188.889 273.492 188.424 273.518C187.415 273.578 186.571 276.454 185.527 276.946C184.433 277.464 183.131 277.059 182.114 277.413C180.847 277.844 179.502 279.9 177.812 280.194C176.416 280.435 175.312 278.777 174.2 278.786C173.088 278.794 171.631 280.703 170.192 281.023C168.063 281.498 166.244 280.435 164.813 280.781C163.546 281.083 162.278 283.052 160.58 283.113C159.115 283.173 158.416 281.869 157.408 281.826C155.977 281.757 154.296 283.786 152.874 283.717C151.899 283.674 151.124 282.422 149.658 282.387C147.805 282.344 145.719 284.235 143.77 284.391L141.253 282.379C138.995 282.638 137.047 284.382 134.736 284.434C132.642 284.477 131.848 283.078 130.271 283.044C128.116 283 125.021 285.039 122.487 285.03C120.59 285.03 118.556 283.622 116.806 283.864C115.211 284.08 113.297 286.17 111.461 286.3C108.867 286.472 105.91 284.451 103.729 284.339C101.548 284.227 99.2549 285.73 97.2463 285.704C95.393 285.678 94.2551 284.149 92.1603 284.382C90.8242 284.529 89.8414 285.773 88.2725 285.678C85.9019 285.54 84.9968 282.992 83.5572 282.56C81.4021 281.904 79.3418 283.432 77.2643 283.104C75.5144 282.828 74.9023 280.798 73.9024 280.6C71.9714 280.228 66.0061 287.111 63.9545 279.857C62.1011 279.943 61.2391 282.025 59.1443 281.809C57.4289 281.627 56.9203 279.339 55.2134 279.174C53.0152 278.959 48.2913 283.242 47.1448 277.905H46.1965C42.6191 282.828 40.4985 277.361 38.3003 276.73C36.9382 276.342 35.3349 276.877 34.0159 276.489C32.0333 275.901 32.6194 272.3 28.4127 274.01C26.7835 271.885 30.2057 269.769 30.1885 269.173C30.1713 268.526 28.1627 266.064 29.6971 263.655L24.8094 263.042L25.1715 258.473L25.1801 258.499Z" fill="black"/>
<path d="M95.6516 83.2817V79.0671L98.548 79.1016L100.177 73.8852C93.8154 73.7211 87.3588 71.7001 88.057 64.0396C88.4536 59.6868 93.1258 48.6839 92.9448 46.5248C92.462 40.7988 82.4452 34.3128 82.0486 26.9027C81.8073 22.3944 87.8933 11.7888 93.0655 15.5889C93.4879 13.7234 91.0224 13.4902 90.4535 12.5488C88.2812 8.96468 92.4103 2.94504 96.1171 2.12458C98.6946 1.55457 101.789 2.37504 104.35 1.96048C106.194 1.65821 107.091 0.02591 108.892 5.25572e-07C110.694 -0.0259089 116.651 2.69459 115.047 5.22508C122.263 2.50458 123.676 10.6142 118.935 14.6216L123.332 17.3507C124.168 20.0971 122.09 22.7571 121.495 25.3135C118.228 25.7195 121.97 18.8189 121.513 18.1971L116.34 16.8584C117.884 15.4075 113.16 11.7197 111.97 11.2361C111.298 10.9597 106.858 10.2256 106.643 10.4242C106.867 12.4625 108.505 13.4816 107.824 15.7875C107.418 17.1607 102.531 21.2199 101.47 20.1403V12.3761C98.9963 12.1947 98.1687 14.8893 95.6516 13.6716C94.2034 15.537 101.694 21.4444 103.694 22.1353L106.686 18.5771L114.392 14.3279C115.461 20.6412 104.694 18.6807 106.246 24.0526C106.694 25.5986 110.082 28.0859 111.617 28.4313C115.315 29.2777 116.332 27.4899 118.625 27.2999C124.185 26.8422 122.401 32.1191 123.082 35.7378C123.59 38.4324 126.064 42.362 126.064 44.4434C126.064 48.4075 121.176 52.9503 117.289 52.5789C116.711 52.5185 112.513 48.6666 112.418 47.6561C112.168 45.0307 115.444 44.927 116.323 42.837L108.875 40.2547C104.177 40.3238 108.324 53.0885 108.556 56.1199C108.763 58.7195 109.048 66.7428 107.272 68.4096C105.901 69.6965 102.703 69.1437 101.47 71.0006C105.858 74.4206 97.8929 81.6753 100.1 84.6462C101.815 86.9522 109.065 86.5376 109.772 88.5845C110.677 91.2272 108.375 95.1741 108.539 98.1882C108.729 101.643 113.435 107.274 112.134 109.554C111.565 110.547 110.987 109.865 110.298 109.442C107.72 107.878 105.1 100.676 105.367 97.6441C105.539 95.7096 108.211 91.0977 107.203 89.5431L99.2032 87.5135C97.7463 87.4704 101.488 104.389 99.5049 105.659C97.7981 106.747 97.0308 103.819 96.4791 103.681C95.2033 103.37 93.6689 104.156 92.4103 104.372L94.9878 105.011C95.1861 105.97 94.712 106.41 94.031 106.963C92.6603 108.068 79.9194 110.409 77.8591 110.253C73.4886 109.917 78.2729 107.68 75.8506 107.023C73.8076 106.471 71.8163 107.93 70.256 107.507C65.6613 106.272 71.868 101.626 74.8075 101.246C76.8161 100.986 78.2212 101.971 79.7556 101.781C81.1176 101.608 82.0314 100.08 84.3072 99.8119C86.4623 99.5528 95.6343 101.962 95.6343 100.149V83.3076L95.6516 83.2817ZM108.582 30.4954C108.315 30.7373 110.177 35.7119 108.255 35.6601C105.979 35.5996 107.013 29.4936 106.306 27.9131C105.203 25.469 98.8325 22.5671 96.9533 20.1317C98.8325 25.7713 105.298 30.5559 103.401 36.9728C100.091 39.2788 94.1172 22.6708 90.7983 21.4444L89.1949 23.7158C88.7553 25.4258 91.1949 23.9922 92.3758 25.6849C93.2293 26.9027 93.0138 29.39 93.5137 31.0223C94.5568 34.3991 96.0998 39.3219 100.169 39.581C100.143 41.9302 98.2463 43.1997 98.2291 45.7216C98.2118 48.8566 101.324 57.2686 100.755 59.229L99.1859 60.3259L95.0051 55.1181C92.7034 60.3 89.0225 70.6292 98.2291 70.016C96.5998 65.0846 102.505 63.1586 103.263 59.8336C104.815 53.0108 97.8153 42.9924 102.72 37.9142C105.875 34.6496 118.452 36.1437 120.849 40.8592C119.754 38.8815 120.944 29.3036 119.246 29.2172C115.944 32.6114 112.582 30.3486 108.574 30.5041L108.582 30.4954Z" fill="black"/>
<path d="M162.02 103.267C166.132 106.782 164.201 105.054 168.976 106.989C170.14 107.464 173.916 110.184 174.373 111.298C176.036 115.332 174.881 123.372 175.149 128.01C175.416 132.648 177.036 137.657 176.468 142.563C175.295 142.528 173.847 142.908 172.89 141.932C170.235 139.229 171.381 120.142 170.64 115.358C167.399 118.657 162.58 117.957 158.365 118.596C158.261 114.926 165.89 116.334 166.761 115.358C166.244 112.033 161.278 109.632 159.003 112.767L163.744 112.888L164.821 114.719C162.985 114.762 160.123 114.995 158.529 115.867C155.934 117.284 157.201 119.218 152.141 119.831C144.512 120.764 133.098 120.116 125.168 120.142C117.237 120.168 108.97 120.393 100.815 119.9C100.979 114.632 107.117 116.593 110.875 115.409C114.634 114.226 117.418 109.2 122.151 110.841L120.866 114.071C124.564 113.181 133.012 117.949 134.34 112.326C134.719 110.728 130.616 97.8601 126.685 99.1815C126.487 100.952 125.392 105.728 122.771 104.07C120.926 102.904 120.677 94.3796 119.202 92.0823C118.134 90.4068 114.573 89.5 112.772 88.1613C106.625 83.6012 106.462 78.3243 107.341 71.0524C107.505 69.7224 107.867 67.9951 109.53 68.7378C110.496 69.1697 112.168 77.0893 113.444 79.0671C115.203 81.7962 119.858 84.1367 122.789 85.5704C123.892 84.3181 117.72 73.937 116.858 71.7606C115.556 68.4701 111.763 55.0922 113.401 52.5185C113.823 51.8535 114.323 51.6462 115.047 52.2076C115.728 52.7344 117.435 65.3523 119.202 68.7724C121.142 72.512 126.823 76.5107 127.659 79.7321C128.633 83.4631 126.995 88.0663 127.443 90.2859C128.021 93.1532 138.124 100.166 139.969 103.69C141.262 103.983 142.038 100.606 144.098 100.097C144.4 100.019 149.71 99.7515 150.262 99.7687C151.882 99.8206 160.83 102.291 162.003 103.284L162.02 103.267ZM162.89 107.585C159.934 107.239 156.382 104.545 153.537 104.45C149.822 104.32 143.684 106.298 139.615 106.289C139.555 107.36 141.814 107.231 142.538 107.274C146.891 107.559 151.382 106.142 155.77 106.281C156.02 107.714 154.813 108.094 153.736 108.44C150.063 109.64 138.314 108.751 137.029 111.782C139.779 113.63 142.219 113.941 145.434 113.397L145.391 111.143C149.753 109.226 153.391 109.658 155.106 114.382C155.055 115.703 149.839 114.511 148.365 114.736C145.995 115.099 145.176 116.256 141.84 116.031C137.684 115.746 135.452 111.54 133.142 117.931L153.382 117.163C155.951 116.394 155.253 111.229 159.279 109.468C160.744 108.828 163.365 109.545 162.882 107.576L162.89 107.585ZM164.192 109.511L169.554 112.689L171.287 111.143C171.269 110.409 164.916 106.661 164.192 109.519V109.511ZM111.815 117.94H129.271L120.056 115.833L116.754 114.114L111.815 117.931V117.94Z" fill="black"/>
<path d="M64.6182 145.793C65.1785 148.979 61.8511 150.81 61.7132 153.868C61.558 157.201 64.3682 163.722 64.6527 168.109C64.9372 172.497 64.4458 180.952 62.8166 185.106C59.7219 193.008 51.2653 197.914 57.515 185.304C55.3168 184.467 52.1704 189.001 51.3687 189.182C49.4033 189.623 50.8774 185.719 47.6102 186.583C46.5413 186.868 46.4206 191.212 42.3432 187.887L40.326 191.756C37.1537 190.409 33.4211 190.115 32.9556 194.364L36.8262 192.421C37.1796 200.79 39.2657 196.256 42.4639 195.772C46.9292 195.098 42.8777 199.218 40.7139 199.866L44.5759 202.448C39.9295 206.118 37.783 198.985 35.24 197.568C32.5505 196.066 28.3523 197.223 31.154 191.6C33.4211 187.058 37.533 189.433 39.283 188.405C39.5674 188.241 39.7485 187.075 40.3346 186.574C42.1708 185.028 43.5587 186.185 44.7569 185.814C45.7482 185.503 46.1362 184.251 47.5154 184C49.5671 183.62 51.567 184.942 53.1445 184.544C54.2996 184.251 56.2478 182.316 58.2305 182.325C62.1959 175.753 53.929 151.786 59.4374 148.003C60.1184 147.537 61.2477 148.556 62.0321 148.098C62.8597 147.615 62.8769 145.387 64.6182 145.793Z" fill="black"/>
<path d="M82.0831 295.42C95.8929 304.592 110.763 308.78 127.478 306.898C135.831 305.956 142.089 301.059 149.649 298.028C152.322 299.868 147.813 304.281 146.055 305.429C131.892 314.714 108.048 315.085 93.2809 307.183C91.0051 305.965 79.6607 298.658 82.0831 295.411V295.42Z" fill="black"/>
<path d="M164.666 184.121C167.045 183.845 167.485 185.33 165.287 186.73C158.322 191.186 136.072 190.201 126.978 190.452C120.59 190.625 106.315 192.628 100.824 190.15C96.9618 188.405 99.9272 186.807 102.72 186.229C120.013 182.679 140.279 188.172 158.606 185.866C160.684 185.607 162.985 184.303 164.658 184.113L164.666 184.121Z" fill="black"/>
<path d="M186.812 305.784C188.467 308.893 183.631 311.7 183.545 312.062C183.226 313.444 184.278 315.431 184.252 317.08C184.2 319.809 182.916 325.466 179.898 326.364C169.519 329.465 166.847 310.819 173.666 305.844C177.097 304.911 176.381 312.909 176.657 314.981C176.743 315.62 176.847 317.572 177.761 317.426C178.528 314.601 176.976 310.413 177.14 308.064C177.217 306.906 180.304 299.133 182.303 302.873C182.459 303.806 179.364 306.103 181.976 307.701C183.476 306.613 184.829 305.429 186.829 305.775L186.812 305.784Z" fill="black"/>
<path d="M87.8933 210.566C89.3156 209.193 95.0999 214.47 96.4878 215.23C107.117 221.06 123.538 220.36 134.952 217.225C137.909 216.413 143.029 213.537 145.27 213.287C149.77 212.794 144.701 217.717 143.158 218.97C131.53 228.478 98.7032 223.875 88.8501 213.166C88.0398 212.285 87.6691 211.879 87.8933 210.566Z" fill="black"/>
<path d="M14.5167 283.121C18.9821 288.839 22.8871 294.09 29.9213 296.828C35.6797 299.073 38.3003 299.03 43.9208 296.378C45.4466 295.653 55.6359 288.044 56.0497 293.148C56.4031 297.588 42.0674 303.348 38.3693 303.771C27.1887 305.067 21.4734 299.393 16.4477 290.247C16.0167 289.469 12.241 283.061 14.5167 283.121Z" fill="black"/>
<path d="M182.286 291.533C183.26 290.626 190.915 297.354 192.829 298.132C198.837 300.576 205.035 299.868 209.794 295.446C211.277 294.072 215.061 287.06 216.871 290.894C218.319 293.96 215.044 300.101 212.621 302.165C202.156 311.078 186.691 302.899 182.295 291.533H182.286Z" fill="black"/>
<path d="M223.509 300.109C225.905 302.674 224.819 320.932 224.931 325.57C225.017 329.085 226.104 332.773 225.638 336.59C225.423 338.352 225.345 338.853 223.328 338.879C221.311 338.904 220.509 331.218 220.44 329.43C220.25 324.516 222.155 316.406 221.104 312.054C220.931 311.345 219.026 311.276 218.19 310.309C215.88 307.666 217.647 304.6 221.078 305.136C221.457 303.011 218.544 303.201 217.802 302.113C216.699 300.489 217.285 298.382 219.345 298.123C219.578 298.149 223.345 299.945 223.509 300.118V300.109Z" fill="black"/>
<path d="M69.7905 310.318L70.4456 320.025L72.73 313.565C76.8247 312.244 76.4712 324.145 75.9713 326.537C75.0316 331.054 71.3249 333.118 68.2215 329.05C65.282 325.207 66.463 318.306 64.9544 316.13C64.5406 315.543 60.0667 313.79 59.4633 311.924C61.739 307.943 65.5234 312.175 66.894 312.08C67.7388 312.019 68.3681 309.869 69.7905 310.309V310.318Z" fill="black"/>
<path d="M64.6183 105.633L64.1786 107.585L60.7391 109.511C62.808 109.191 63.8425 107.818 66.2044 108.215C68.1785 108.552 68.9888 111.635 71.7301 110.815C72.5404 112.274 68.4543 112.905 69.7991 114.045C71.3335 115.358 79.316 106.885 75.6179 115.988C75.8592 116.299 80.3504 113.069 81.2383 112.853C83.4107 112.326 82.4538 114.278 83.04 114.045L84.9968 112.11L86.583 113.129L85.9623 115.979C88.0657 115.919 88.1605 113.043 90.2639 112.197C93.9534 110.711 88.6001 118.087 88.1864 118.536C85.0658 121.965 84.0917 117.992 83.5658 117.897C80.678 117.379 76.6782 118.57 75.3765 118.424C74.23 118.294 67.0578 114.719 66.2475 114.701C64.1183 114.658 60.4202 118.484 59.9805 112.171L58.2478 112.041C57.2737 107.792 60.4633 104.864 64.6183 105.616V105.633Z" fill="black"/>
<path d="M13.5426 290.886C13.9823 293.787 9.41346 295.532 8.69797 296.715C7.74111 298.304 7.64628 310.585 7.69801 313.254C7.84455 320.388 9.90482 328.843 9.0514 335.934C8.53418 340.209 4.96535 338.594 4.49985 333.956C3.70678 326.166 3.73264 308.78 4.57743 301.008C5.12052 296.033 8.06868 291.007 13.5426 290.894V290.886Z" fill="black"/>
<path d="M152.546 122.474C153.727 123.476 145.546 129.858 144.598 130.368C135.857 135.092 123.573 133.848 114.271 131.344C109.367 130.022 102.668 127.354 100.824 122.154C100.979 121.101 101.763 121.377 102.539 121.705C105.832 123.087 108.798 126.386 112.108 127.682C121.616 131.378 133.564 131.862 142.874 127.354C144.477 126.576 151.141 121.282 152.546 122.474Z" fill="black"/>
<path d="M54.2738 136.716C54.0066 135.023 55.5583 134.194 55.6014 132.544C55.6272 131.508 54.929 130.359 54.9204 129.262C54.8945 126.568 54.5928 116.368 56.8427 115.004C61.9029 111.938 60.3426 123.528 60.8684 125.255C62.4546 130.549 72.1611 125.911 74.911 124.029C75.342 123.735 79.3677 119.261 79.4798 122.137C79.5832 124.78 72.1697 129.331 69.8164 129.936C67.2647 130.592 61.3598 129.668 60.0753 130.541C59.0409 131.249 57.8427 137.268 54.2825 136.716H54.2738Z" fill="black"/>
<path d="M175.881 203.363L174.864 202.154C171.925 206.878 171.631 204.711 167.752 204.693C166.114 204.693 165.054 205.099 163.701 205.229C160.442 205.548 163.365 202.992 164.606 202.241C167.968 200.211 173.002 198.51 176.468 200.85C177.011 196.86 182.191 195.202 185.838 195.677L196.51 197.94C193.519 200.582 189.114 199.399 186.355 202.698L179.347 200.859L175.89 203.363H175.881Z" fill="black"/>
<path d="M115.047 206.68H117.633C116.004 202.793 110.065 210.031 108.582 208.614L109.229 206.032C107.16 205.903 105.099 208.01 104.393 205.376C102.651 206.032 101.031 208.951 99.2549 208.666C98.7204 208.58 98.1084 205.652 96.6257 206.032L95.0223 208.321L93.3844 208.64C92.7551 206.136 91.1948 207.872 89.4708 207.872C84.9795 207.863 85.9192 201.127 92.0569 201.515C93.7034 201.619 99.8497 205.212 100.496 205.186C101.35 205.143 102.867 202.863 105.022 202.742C107.418 202.603 111.203 204.668 112.03 204.616C113.297 204.529 118.944 201.55 120.133 205.168C121.573 209.547 114.694 211.326 115.047 206.68Z" fill="black"/>
<path d="M71.0836 210.566C72.5749 211.965 64.1097 218.305 62.8339 218.814C55.7307 221.664 47.9379 218.581 41.7916 214.971C40.7054 214.332 32.7316 209.418 34.2315 207.975C38.9727 208.787 41.8347 213.036 46.5241 214.764C56.429 218.4 62.1356 213.054 71.075 210.566H71.0836Z" fill="black"/>
<path d="M91.1259 133.486C94.4361 133.641 93.0655 140.749 92.3759 142.839C89.376 151.976 81.6694 144.765 85.1865 136.932C85.9192 135.291 87.5916 133.874 88.2122 132.19C88.7726 130.679 88.7122 127.509 89.3501 126.533C89.9191 125.661 97.5739 122.232 98.5222 122.474L99.5135 124.072C98.7032 126.922 91.9966 128.183 91.4276 128.934C90.9104 129.616 90.7811 132.173 90.1518 133.486C88.4105 137.087 85.4537 138.434 86.8933 143.228C87.0485 143.754 87.7726 145.369 88.5398 144.825C91.1087 141.664 90.5311 137.312 91.1259 133.486Z" fill="black"/>
<path d="M197.156 211.862C195.717 220.464 185.708 220.084 179.252 217.165C177.252 216.258 168.183 210.419 170.011 207.975C174.097 210.022 176.769 213.969 181.398 215.031C187.907 216.534 191.329 213.036 197.156 211.862Z" fill="black"/>
<path d="M160.951 134.133C160.546 136.301 159.278 144.817 161.287 145.784C162.563 146.103 162.39 144.886 162.718 144.022C164.218 140.058 162.373 137.009 162.899 132.838C164.011 132.613 164.218 133.114 164.692 133.943C167.028 138.011 164.968 152.063 159.606 147.459C156.813 145.058 158.399 140.602 157.442 139.263C156.873 138.469 153.865 138.737 153.21 137.044C154.313 135.083 156.08 137.009 157.304 136.655C158.528 136.301 158.589 133.304 160.951 134.133Z" fill="black"/>
<path d="M208.785 327.798L204.268 324.568L203.294 329.102C201.768 330.942 200.389 328.86 199.303 328.662C197.579 328.342 194.82 330.095 195.217 325.613C195.7 320.206 211.785 319.809 208.785 327.807V327.798Z" fill="black"/>
<path d="M104.617 328.549L105.996 333.636C107.143 333.567 107.065 331.339 108.315 331.08C111.065 330.51 111.737 339.811 108.772 340.666C105.806 341.521 105.763 339.129 105.979 336.884L103.384 337.885C100.634 335.623 100.16 332.203 101.772 329.111L104.6 328.558L104.617 328.549Z" fill="black"/>
<path d="M17.1976 314.921C18.7751 314.386 22.4819 317.918 22.9646 319.334C23.5681 321.139 23.8439 325.76 21.4905 326.416C20.0078 326.831 14.9132 323.307 14.4649 322.012C13.7667 319.982 15.439 315.517 17.1976 314.921Z" fill="black"/>
<path d="M65.7475 203.933C63.5407 204.296 59.334 205.98 57.291 205.289C55.8772 204.814 55.9289 202.396 54.9204 201.817C53.6618 201.083 50.8171 202.128 51.0412 199.563C53.3515 197.931 55.3428 199.978 56.541 199.987C57.3944 199.987 58.9116 198.354 60.2133 198.052C63.0235 197.387 66.1182 199.529 66.3855 202.379L65.7389 203.942L65.7475 203.933Z" fill="black"/>
<path d="M35.3607 360.306C39.6364 359.667 42.4811 366.36 37.0589 369.175C29.2144 373.243 28.1368 361.385 35.3607 360.306Z" fill="black"/>
<path d="M122.642 332.505C125.711 337.359 123.271 341.97 118.935 336.227C119.271 349.985 110.72 337.946 114.341 333.256C116.651 330.268 118.858 335.683 120.375 332.125L122.633 332.505H122.642Z" fill="black"/>
<path d="M53.7738 372.354C51.9636 370.583 52.1963 366.878 54.6704 365.453C59.8512 362.473 65.1096 369.694 60.7046 372.811C59.3167 373.796 54.8428 373.399 53.7825 372.354H53.7738Z" fill="black"/>
<path d="M68.9543 366.135C74.6092 365.246 76.5919 374.832 69.4542 375.134C62.3166 375.437 63.8424 366.938 68.9543 366.135Z" fill="black"/>
<path d="M141.555 134.781C142.615 135.731 138.159 138.072 137.693 138.348C130.892 142.364 127.65 142.398 120.09 140.421C117.996 139.868 111.78 138.693 113.444 136.059C118.849 137.415 123.78 140.032 129.547 139.246C133.823 138.659 137.159 134.885 141.555 134.772V134.781Z" fill="black"/>
<path d="M105.841 366.809C110.996 365.514 112.591 373.805 107.324 375.445C99.048 378.028 100.289 368.199 105.841 366.809Z" fill="black"/>
<path d="M195.044 360.306C200.311 359.209 203.725 365.85 197.837 367.673C189.389 370.289 189.398 361.48 195.044 360.306Z" fill="black"/>
<path d="M134.323 329.232C135.443 329.862 138.564 336.115 134.883 336.123L131.866 333.636L131.555 337.54C129.555 340.545 122.875 331.252 128.288 330.415L131.202 331.702C130.849 329.75 132.564 328.247 134.323 329.24V329.232Z" fill="black"/>
<path d="M43.438 362.94C49.1102 359.183 52.5325 370.238 47.7913 372.198C43.8346 373.83 41.0502 365.79 43.438 362.94Z" fill="black"/>
<path d="M119.427 368.726C127.9 367.638 123.245 381.646 116.375 375.376C113.694 372.924 116.099 369.149 119.427 368.726Z" fill="black"/>
<path d="M23.0077 357.093C27.6196 356.212 32.5074 364.019 25.3611 365.919C20.3096 366.55 18.87 357.879 23.0077 357.093Z" fill="black"/>
<path d="M85.9536 123.122C86.2726 128.148 83.1348 133.796 80.4193 137.977C79.7728 138.97 78.1953 139.859 77.8505 140.628C77.2988 141.854 78.7987 144.955 76.5919 144.488C71.8938 143.504 79.109 135.316 80.2469 133.27C81.8589 130.385 82.8503 127.138 84.333 124.383C84.8244 123.476 84.2813 122.794 85.9536 123.122Z" fill="black"/>
<path d="M141.365 367.405C143.046 366.982 146.65 369.495 147.115 371.188C145.529 380.766 132.711 373.606 141.365 367.405Z" fill="black"/>
<path d="M6.87905 341.599C8.81864 344.017 7.32731 349.199 4.1895 349.242C-1.31891 349.303 -1.25857 341.599 3.55159 340.088C4.39639 340.019 6.38769 340.986 6.87905 341.599Z" fill="black"/>
<path d="M67.8423 304.497L68.4027 307.278C67.4113 310.275 62.1529 309.005 61.4719 306.63C60.9633 304.859 64.4114 301.569 65.8769 300.222C69.1871 299.306 73.187 304.367 67.8337 304.497H67.8423Z" fill="black"/>
<path d="M30.9989 198.907C30.4127 201.835 32.6195 203.614 32.9557 206.334C33.2919 209.055 33.1884 214.599 32.9729 217.398C32.8867 218.538 33.1022 219.514 31.9557 220.274L29.68 213.425C29.611 211.965 30.973 211.283 30.973 209.685C30.9816 206.317 25.8439 200.151 30.9816 198.907H30.9989Z" fill="black"/>
<path d="M167.261 368.122C170.563 374.375 161.235 377.656 159.709 370.885L161.235 367.923C162.847 366.766 165.606 367.18 167.27 368.122H167.261Z" fill="black"/>
<path d="M130.383 368.718C135.029 368.001 136.219 376.991 130.883 376.991C125.918 376.991 125.375 369.495 130.383 368.718Z" fill="black"/>
<path d="M14.6029 353.172C19.5596 354.701 21.413 359.019 16.3528 362.042C11.3961 360.513 9.54274 356.195 14.6029 353.172Z" fill="black"/>
<path d="M219.871 287.725C224.561 284.771 226.578 296.076 223.319 298.65C218.449 297.933 220.44 295.092 220.362 292.466C220.337 291.447 218.354 288.683 219.871 287.725Z" fill="black"/>
<path d="M178.261 371.049C175.545 374.055 168.261 370.773 171.925 366.325C175.804 361.618 180.985 368.027 178.261 371.049Z" fill="black"/>
<path d="M125.228 203.545C130.995 202.517 131.555 210.48 125.056 211.214C121.013 210.1 121.064 204.288 125.228 203.545Z" fill="black"/>
<path d="M89.1863 325.216C90.0311 324.171 90.669 322.426 91.5569 322.081C97.7981 319.68 93.4965 332.28 90.6949 332.211C87.3243 332.133 89.0484 327.349 89.1863 325.207C88.5053 326.062 87.6519 326.943 86.9192 327.789C83.3848 325.216 84.8503 321.295 87.5743 318.738C90.5311 319.602 89.3156 323.108 89.1777 325.216H89.1863Z" fill="black"/>
<path d="M206.647 357.698C213.518 360.435 208.828 368.571 203.303 364.089C202.018 360.971 203.811 358.812 206.647 357.698Z" fill="black"/>
<path d="M152.296 316.19C156.149 314.921 159.658 324.291 156.675 325.181C153.106 326.01 149.115 317.235 152.296 316.19Z" fill="black"/>
<path d="M80.5745 368.104C84.3675 367.552 86.8329 375.696 81.1004 375.696C76.5574 375.696 76.2471 368.735 80.5745 368.104Z" fill="black"/>
<path d="M151.098 328.947C148.538 331.607 141.84 323.091 146.089 320.958C148.598 319.697 153.374 326.58 151.098 328.947Z" fill="black"/>
<path d="M156.856 312.339C159.597 311.795 166.27 314.506 163.597 317.831C160.459 321.726 153.003 313.582 156.856 312.339Z" fill="black"/>
<path d="M213.777 355.098C218.242 354.735 220.526 361.489 216.087 362.689C212.113 363.769 210.216 356.747 213.777 355.098Z" fill="black"/>
<path d="M31.4385 325.924C36.0073 324.749 35.7745 337.384 29.6541 333.368C28.2231 331.727 29.4731 326.433 31.4385 325.924Z" fill="black"/>
<path d="M164.003 305.222C167.071 304.842 169.485 308.184 168.589 311.147C167.235 315.586 161.011 309.376 162.554 306.431L164.003 305.222Z" fill="black"/>
<path d="M151.417 374.927C147.676 371.136 157.399 364.857 157.115 371.507C156.977 374.72 154.27 376.767 151.417 374.927Z" fill="black"/>
<path d="M41.1795 327.979C42.2916 329.033 43.4381 333.628 42.0416 334.655C35.6797 336.642 35.5418 322.651 41.1795 327.979Z" fill="black"/>
<path d="M10.1117 350.667C12.5685 353.673 9.68071 357.654 5.87913 356.212C2.94821 352.516 6.79289 346.591 10.1117 350.667Z" fill="black"/>
<path d="M96.1343 370.074C98.548 372.466 94.7033 377.803 91.3845 375.152C88.0656 372.5 93.0568 367.025 96.1343 370.074Z" fill="black"/>
<path d="M98.2463 112.11C102.893 123.908 93.8672 113.535 94.3586 111.152C94.643 109.778 98.5222 110.029 99.7204 110.305C104.082 111.307 103.117 116.575 98.2463 112.11Z" fill="black"/>
<path d="M217.828 322.607C214.518 324.879 209.604 314.394 212.992 314.221C215.026 314.118 219.837 321.234 217.828 322.607Z" fill="black"/>
<path d="M184.019 363.493C186.45 362.871 190.363 368.597 186.346 369.797C181.441 371.257 180.803 364.313 184.019 363.493Z" fill="black"/>
<path d="M14.8442 309.022L18.7148 307.727C19.3182 311.415 16.1718 313.824 13.8701 316.13C10.5254 313.755 13.5512 312.347 14.1891 309.67L10.3185 310.957C8.98237 309.471 14.646 299.833 16.4649 303.84C17.7838 306.751 13.9994 307.951 14.8528 309.014L14.8442 309.022Z" fill="black"/>
<path d="M47.6275 327.349C51.3601 330.441 49.3085 335.597 45.2052 332.03C41.395 328.722 43.9466 324.309 47.6275 327.349Z" fill="black"/>
<path d="M139.615 204.737C139.271 203.873 138.736 203.217 138.969 202.146C141.589 202.448 142.883 203.726 145.753 203.467C147.951 203.268 149.218 201.722 150.925 201.489C153.744 201.109 150.434 204.313 149.951 204.737C151.71 204.572 151.813 205.842 150.925 207.336C149.951 208.977 144.201 209.988 142.202 209.271C140.908 207.509 146.908 206.853 148.037 206.369C149.356 205.799 149.279 205.341 149.96 204.745C145.4 205.177 143.969 204.97 139.615 204.745C140.176 206.136 141.555 207.12 140.908 209.279L135.814 206.343L131.219 207.984C131.185 203.493 136.857 204.607 139.624 204.745L139.615 204.737Z" fill="black"/>
<path d="M224.276 286.973C218.113 286.87 222.328 283.018 221.724 279.218C227.991 279.459 225.664 282.897 224.276 286.973Z" fill="black"/>
<path d="M9.34444 285.315C10.8271 285.375 12.2667 286.826 11.3013 288.303C2.61193 295.929 3.31018 285.073 9.34444 285.315Z" fill="black"/>
<path d="M96.9532 325.863C101.1 325.622 100.72 333.55 98.5394 334.258C95.1171 335.372 96.255 327.677 96.9532 325.863Z" fill="black"/>
<path d="M84.6692 187.248V189.182C84.1434 189.804 74.7213 188.889 73.48 188.414C72.5921 188.077 72.1955 187.576 72.3852 186.609L84.6692 187.256V187.248Z" fill="black"/>
<path d="M220.871 351.186C224.095 350.348 224.612 356.981 222.621 357.568C218.466 358.086 217.371 352.101 220.871 351.186Z" fill="black"/>
<path d="M60.0753 325.198C58.9891 326.718 54.11 323.963 53.7911 321.554C53.0669 316.096 61.9373 322.582 60.0753 325.198Z" fill="black"/>
<path d="M25.18 330.398C25.068 328.782 25.0852 321.675 28.0765 322.625C30.1626 323.29 29.2058 332.151 25.18 330.398Z" fill="black"/>
<path d="M171.243 306.379C168.554 308.323 161.959 300.584 168.407 300.861C170.735 300.964 172.89 305.188 171.243 306.379Z" fill="black"/>
<path d="M81.1004 202.37C81.9452 202.37 83.5658 203.424 83.3417 204.374L80.4539 209.901C76.7213 208.26 77.385 202.362 81.1004 202.37Z" fill="black"/>
<path d="M144.141 331.684C140.952 332.177 136.883 330.087 138.383 326.554C142.003 325.967 144.529 327.919 144.141 331.684Z" fill="black"/>
<path d="M50.1792 323.981C52.7308 323.221 56.0324 327.962 53.2394 329.715C51.5412 330.216 47.9896 327.383 48.9206 325.406C49.2051 324.844 49.5413 324.162 50.1792 323.972V323.981Z" fill="black"/>
<path d="M85.2467 314.921C86.6432 317.158 83.4796 322.245 80.7555 320.379C78.4194 318.79 83.8416 312.667 85.2467 314.921Z" fill="black"/>
<path d="M160.951 202.785C159.106 203.07 157.141 203.735 156.149 205.428C155.891 205.868 155.287 209.996 154.158 207.984C152.253 204.607 155.856 200.859 159.33 200.816L160.959 202.785H160.951Z" fill="black"/>
<path d="M81.2556 315.318C80.6091 315.914 79.4798 316.165 78.6005 316.096C75.3334 315.146 79.6005 307.399 82.6866 311.354C82.8848 312.045 81.7556 314.852 81.2556 315.318Z" fill="black"/>
<path d="M212.673 325.216C209.647 325.552 207.277 322.15 207.509 319.386C211.182 318.695 213.802 321.735 212.673 325.216Z" fill="black"/>
<path d="M76.9022 299.954C77.4626 302.692 75.5488 305.55 72.7127 305.784C70.1439 305.075 73.5231 298.08 76.9022 299.954Z" fill="black"/>
<path d="M89.8328 117.94L93.0569 119.227L93.3586 115.971L95.5912 116.403C96.1688 121.913 89.9621 124.668 89.8242 117.94H89.8328Z" fill="black"/>
<path d="M74.3162 147.736L71.7387 147.088L70.7646 150.957C68.8078 149.273 68.9888 147.364 69.7991 145.136L71.7301 145.793L72.6956 143.21L74.3162 147.736Z" fill="black"/>
<path d="M15.4736 296.732C16.4736 298.114 12.7409 303.115 10.31 301.897C8.80143 298.84 13.7323 294.314 15.4736 296.732Z" fill="black"/>
<path d="M75.842 306.017C77.3074 304.756 79.6349 303.365 80.0832 306.034C78.747 308.245 75.4627 312.935 73.6869 308.729C74.6265 308.107 75.1437 306.613 75.842 306.017Z" fill="black"/>
<path d="M58.5581 315.543C60.1357 314.817 64.2734 317.624 63.9717 319.049C62.2994 321.355 57.7909 319.429 57.5927 317.02L58.5581 315.551V315.543Z" fill="black"/>
<path d="M215.604 310.318C217.811 309.679 221.242 315.007 218.793 315.491C216.061 315.949 212.639 311.173 215.604 310.318Z" fill="black"/>
<path d="M189.889 315.664C191.57 317.495 190.622 320.966 187.812 320.673C186.148 320.172 186.424 315.543 188.424 315.016C188.881 315.18 189.579 315.327 189.889 315.664Z" fill="black"/>
<path d="M161.572 120.574C162.106 121.334 160.218 125.16 159.727 126.075C159.313 126.827 159.839 127.621 158.054 127C155.658 126.162 158.856 125.108 158.916 124.987C159.029 124.754 158.201 120.712 158.373 119.883L161.572 120.574Z" fill="black"/>
<path d="M228.836 350.469C227.81 351.894 224.526 350.287 224.293 348.18C223.733 343.145 230.095 348.724 228.836 350.469Z" fill="black"/>
<path d="M192.622 320.034C193.424 320.673 193.217 326.658 190.372 325.855C188.191 325.242 191.243 318.937 192.622 320.034Z" fill="black"/>
<path d="M168.063 123.77C168.985 124.694 164.701 128.874 163.864 129.582C160.546 127.578 167.33 123.035 168.063 123.77Z" fill="black"/>
<path d="M46.8431 198.268L51.0498 201.835L49.4292 204.072C48.1534 202.647 44.4466 200.168 46.8431 198.268Z" fill="black"/>
<path d="M111.815 112.11C112.522 114.779 105.324 116.394 105.367 114.373C105.393 113.052 110.487 111.627 111.815 112.11Z" fill="black"/>
<path d="M225.405 341.478C227.414 340.986 229.371 343.784 226.888 344.976C223.233 346.729 222.69 342.152 225.405 341.478Z" fill="black"/>
<path d="M102.117 139.963C102.565 142.502 100.203 145.274 97.5997 145.136C96.4619 143.996 101.436 139.16 102.117 139.963Z" fill="black"/>
<path d="M95.005 140.602C94.0137 139.712 100.729 133.555 100.807 136.387C100.841 137.605 96.7377 141.103 95.005 140.602Z" fill="black"/>
<path d="M60.739 143.202C60.877 145.81 58.1012 148.176 55.5754 147.727C54.61 146.889 59.9287 142.329 60.739 143.202Z" fill="black"/>
<path d="M123.452 154.861C123.823 155.56 123.375 163.1 121.53 161.33C120.789 159.481 120.668 155.068 123.452 154.861Z" fill="black"/>
<path d="M117.634 20.7794C118.177 23.7417 114.668 23.9663 112.47 24.0095C111.875 20.9781 115.478 21.1249 117.634 20.7794Z" fill="black"/>
<path d="M154.486 145.801C156.408 147.718 148.529 147.01 148.02 147.088L148.434 145.093C150.451 144.445 152.503 145.438 154.486 145.801Z" fill="black"/>
<path d="M99.5308 131.542C99.979 133.408 95.1947 136.258 94.3672 135.42C92.8069 133.848 98.2377 130.972 99.5308 131.542Z" fill="black"/>
<path d="M137.029 160.034C135.736 161.381 132.512 156.795 133.159 155.509C135.314 154.671 138.116 158.903 137.029 160.034Z" fill="black"/>
<path d="M107.936 146.44C107.763 148.919 106.177 151.052 104.065 152.27C104.013 150.016 104.996 145.983 107.936 146.44Z" fill="black"/>
<path d="M111.168 151.622C110.746 153.565 110.556 156.787 107.944 156.795C107.78 154.507 108.099 151.182 111.168 151.622Z" fill="black"/>
<path d="M141.555 150.974C142.917 150.586 146.365 152.434 146.072 153.876C145.658 155.932 140.348 153.116 141.555 150.974Z" fill="black"/>
</g>
<defs>
<clipPath id="clip0_30_58">
<rect width="229" height="377" fill="white"/>
</clipPath>
</defs>
</svg>
