<svg width="328" height="310" viewBox="0 0 328 310" fill="none" xmlns="http://www.w3.org/2000/svg">
<path d="M55.7424 233.8C43.3627 231.983 41.2631 231.918 41.0193 231.918C38.1642 235.355 37.6035 237.329 36.4037 239.591C35.204 241.854 35.0635 243.008 34.1649 245.259C32.4581 252.559 30.7731 260.819 43.5754 290.243C46.7798 297.607 49.1443 301.701 55.5836 304.743C59.6062 306.644 65.5228 308.413 111.939 308.151C158.356 307.889 242.716 305.664 285.02 303.925C327.325 302.185 327.566 300.967 325.825 263.707C324.084 226.446 320.47 155.298 318.558 118.723C316.647 82.1483 316.444 80.2044 315.701 79.1816C314.957 78.1589 313.697 78.1486 312.343 77.898C305.008 76.5409 291.735 71.3284 286.491 75.7368C284.752 77.1987 284.061 79.402 282.095 92.557C280.313 104.487 276.948 126.446 274.852 150.386C272.755 174.327 272.4 199.52 271.17 213.763C269.653 231.325 268.633 237.801 264.331 241.054C263.352 241.795 262.314 242.102 235.104 242.277C207.894 242.452 156.083 242.495 120.504 240.744C84.9252 238.993 66.1827 235.333 55.7424 233.8Z" fill="#E4B8AF" stroke="#E4B8AF" stroke-width="2" stroke-linecap="round"/>
<path d="M42.0475 223.134C29.7372 217.615 12.1708 216.232 2.70985 205.941C-4.0124 198.638 3.33228 196.937 7.9106 191.335C13.471 184.53 20.8295 174.612 25.0759 167.005C36.7499 146.133 53.0576 80.4595 49.3783 57.5956C48.7697 53.8333 44.5787 50.6797 44.2882 46.0045C43.9977 41.3294 45.699 28.7286 46.3353 23.3066C47.262 15.3533 46.9992 5.29757 57.1933 4.08038C74.3862 2.0471 99.2695 4.21869 117.431 4.14954C170.116 3.94206 223.258 4.92412 275.971 0C277.893 0.345795 279.705 1.03738 281.462 1.85346C285.847 3.85907 311.366 26.7783 314.409 31.1492C317.286 35.2711 318.531 40.2643 319.015 45.2161C320.896 64.5806 313.206 75.1066 311.906 92.8113C308.614 137.446 305.045 181.999 301.532 226.634C300.771 236.33 301.781 249.857 300.411 258.71C299.346 265.598 292.472 269.927 286.206 271.476C267.561 276.096 241.557 278.323 222.137 280.025C174.611 284.202 127.652 286.456 80.071 285.184C71.9241 284.962 74.068 288.946 66.5159 281.09C61.4949 275.861 46.8194 258.613 44.0392 252.734C39.5992 243.343 41.1346 233.052 42.0198 223.107L42.0475 223.134ZM216.107 15.8789C204.875 4.67514 182.661 15.8789 191.389 34.8976C202.054 58.1212 232.705 32.4217 216.107 15.8789ZM117.555 36.9724C124.222 29.9873 118.925 14.966 110.072 13.5275C96.2681 11.2867 87.554 20.2497 94.1656 33.5836C98.163 41.6613 111.677 43.1552 117.569 36.9724H117.555ZM249.441 52.1458C195.802 54.8569 149.465 55.6729 95.6595 53.861C82.5884 53.4184 69.6419 54.4972 56.64 55.3963C54.8695 56.6412 54.9663 71.0401 54.6205 74.1245C50.9413 106.961 44.966 144.819 28.8658 173.893C23.3054 183.935 16.0575 193.023 10.0407 202.774C45.4916 222.526 87.1391 231.42 127.805 230.299C138.801 229.995 151.969 229.207 163.02 228.169C171.9 227.339 199.882 223.259 206.466 218.708C207.199 218.21 216.701 206.91 217.932 205.278C241.599 174.087 260.313 148.111 271.365 109.326C274.311 98.9664 281.628 62.7686 276.455 54.5664C273.896 50.5137 254.67 51.8554 249.427 52.1182L249.441 52.1458ZM281.808 243.758C285.667 223.812 283.163 203.272 283.841 183.022C285.155 144.058 287.188 104.79 290.176 65.8531C290.024 61.9664 287.174 58.7436 283.371 58.052L276.635 104.236C277.741 136.478 274.56 168.54 275.542 200.741C275.846 210.713 278.377 220.354 277.547 230.673C277.105 236.164 271.807 243.453 281.794 243.758H281.808ZM288.018 246.87C288.807 240.134 290.48 233.411 291.13 226.634C293.952 197.338 292.721 167.793 294.27 138.484C295.321 118.428 299.734 96.9746 300.522 77.3197C300.757 71.3582 299.028 60.8322 292.403 68.163C288.488 94.9137 288.848 121.872 289.111 148.899L286.953 182.012C287.631 202.387 286.178 222.913 286.995 243.273C287.05 244.532 286.206 247.133 288.018 246.884V246.87ZM292.195 260.356C298.627 254.076 296.525 242.084 297.382 233.909C301.518 194.433 304.962 155.22 307.756 115.648C308.282 108.234 312.542 78.7305 309.72 74.249C306.898 69.7675 304.049 72.4924 302.818 76.4759C300.342 84.4569 299.056 106.325 298.42 115.648C295.985 151.541 297.507 187.78 295.335 223.563C294.588 235.998 289.581 248.073 292.195 260.342V260.356ZM272.471 130.697C270.853 130.351 270.286 131.139 269.359 132.246C265.707 136.589 260.521 151.444 256.717 157.987C244.987 178.167 229.012 196.951 217.946 217.768C216.923 219.192 215.678 220.382 214.087 221.17C194.183 230.977 153.338 234.629 130.917 235.514C120.377 235.929 105.95 236.316 95.618 235.458C80.6658 234.214 64.0953 228.28 49.0463 226.219C46.5566 226.938 46.8471 237.589 47.8706 239.636C50.0699 244.034 74.5383 243.287 80.0295 243.785C126.297 248.032 170.545 246.745 216.937 243.73C230.92 242.817 253.798 243.481 266.482 237.257C270.881 235.099 271.946 233.716 272.471 228.722C273.771 216.384 270.687 200.049 270.604 187.227C270.535 175.373 272.222 162.814 272.513 150.96C272.679 144.21 271.904 137.363 272.471 130.697ZM274.546 248.944C273.854 245.127 270.507 242.692 266.8 242.623C260.299 242.513 248.404 246.137 240.838 246.856C192.454 251.462 142.079 251.227 93.5847 249.94C82.5193 249.65 67.5533 247.866 57.1656 248.875C54.5652 249.124 52.4628 249.747 50.4848 251.545C50.4848 252.347 57.0688 253.813 58.3828 254.021C108.952 262.347 177.779 256.981 229.427 253.08C244.462 251.946 259.538 250.189 274.56 248.931L274.546 248.944ZM281.808 259.304C280.328 256.524 280.397 251.697 276.15 252.001C252.028 256.925 226.992 255.791 202.455 257.257C195.387 257.672 187.599 259.955 180.697 260.397C149.949 262.361 112.23 261.103 81.0254 260.397C76.6961 260.3 59.9873 255.888 60.7895 263.938C61.0385 266.469 66.1563 270.536 68.6736 270.702C90.8183 269.692 112.839 265.363 135.011 265.556C172.896 265.888 205.415 268.53 243.936 264.505C256.578 263.191 269.221 261.006 281.808 259.318V259.304ZM146.962 279.015C155.067 278.807 163.255 279.305 171.375 279.07C201.874 278.157 251.239 276.041 279.927 268.323C281.78 267.825 288.668 266.898 288.004 264.035L285.473 261.684C283.26 263.288 280.743 264.035 278.073 264.395C237.283 269.872 195.636 270.508 154.846 276.027C152.882 276.29 147.944 277.065 146.962 279.015ZM180.144 270.743C148.276 271.421 116.006 269.028 84.3174 272.943C81.8553 273.247 78.4665 273.634 76.1566 274.132C75.1469 274.353 73.0445 274.506 73.3073 275.916C104.387 276.691 135.149 274.492 166.132 272.804L180.144 270.743Z" fill="black"/>
<path d="M107.278 141.444C108.938 130.738 111.179 122.536 116.061 112.342C123.226 97.3067 133.462 81.2065 152.19 75.5908C155.012 74.7471 157.764 74.1938 160.406 73.8065C173.601 71.8701 182.191 84.8858 184.515 92.6454C185.109 94.6234 184.584 95.0383 185.22 97.1407L186.036 99.8518C186.548 101.581 185.953 102.3 185.4 103.669C182.786 110.087 178.609 118.87 170.738 121.222C163.601 123.352 161.831 119.59 158.677 115.025C156.561 110.682 156.713 109.562 156.533 107.874C156.312 105.523 158.58 103.904 160.212 103.407C162.55 103.116 164.044 104.278 167.668 106.685C169.604 106.104 170.614 101.373 170.614 99.755C170.614 98.6761 170.282 97.0301 169.922 95.7991C168.484 90.9856 160.544 86.6563 154.749 88.3852C151.927 89.229 149.465 91.3037 146.56 93.5168C139.714 98.7867 138.04 101.844 133.6 109.216L130.889 113.116C129.852 114.5 128.538 117.722 128.012 119.216C126.255 124.182 122.369 138.235 124.07 143.906C124.139 144.155 124.333 144.238 124.402 144.473C127.901 139.936 132.991 134.777 139.243 132.91C141.622 132.19 143.849 132.066 146.159 132.19C148.607 132.26 154.624 133.422 157.335 133.283C165.053 134.196 171.098 142.468 172.799 148.139C176.866 161.708 167.723 184.184 146.27 192.622C126.643 198.5 112.036 184.336 108.094 171.141C105.328 161.887 106.614 150.49 107.292 141.416L107.278 141.444ZM142.687 179.606C153.545 176.355 160.032 161.251 157.819 153.851C155.745 146.949 150.447 142.758 142.563 145.123C138.704 146.285 134.679 148.014 132.673 150.504L128.427 155.801C128.053 156.175 128.427 156.88 127.901 157.295C122.438 161.749 124.097 166.231 124.941 171.749C126.643 177.42 135.398 181.777 142.687 179.606Z" fill="black"/>
</svg>
