<svg width="182" height="253" viewBox="0 0 182 253" fill="none" xmlns="http://www.w3.org/2000/svg">
<path d="M58.35 89.8939C73.6675 77.1368 100.464 61.7038 102.563 61.1865C104.664 62.0303 106.314 62.8801 107.306 63.5141C108.298 64.1482 109.041 65.0148 109.85 65.8946C113.925 68.6083 120.349 68.0818 124.077 72.2342C126.465 74.8935 128.545 77.7364 131.567 90.67C134.263 102.21 138.902 123.325 141.332 134.904C143.761 146.483 144.047 148.465 144.001 158.041C143.874 184.284 143.454 205.007 141.175 212.242C139.016 219.095 136.39 227.039 131.355 233.177C123.643 242.578 115.402 251.321 109.257 251.235C104.641 251.17 95.2667 250.547 82.4544 244.422C66.9078 236.991 51.7641 228.973 41.1949 218.609C30.6747 208.293 20.5506 196.019 13.918 184.683C10.8865 179.501 9.30922 176.946 9.82169 172.019C12.1213 149.907 16.4936 130.845 25.2076 125.125C43.0492 113.414 44.016 101.832 58.35 89.8939Z" fill="#E4B8AF" stroke="#E4B8AF" stroke-width="2" stroke-linecap="round"/>
<g clip-path="url(#clip0_42_268)">
<path d="M137.308 51.5969L140.948 46.1058C143.36 44.8711 140.948 50.6709 140.624 51.4669C139.818 53.4272 135.016 62.7903 133.653 63.5809C132.988 63.9654 131.928 63.6242 131.673 63.83C130.327 64.9076 128.375 89.4497 127.974 93.0292C129.84 93.4787 131.279 91.9787 133.042 92.2007C134.426 92.3794 133.079 94.3451 132.614 95.0275C128.78 100.584 123.313 99.7009 122.404 92.7151C121.571 86.3089 127.59 60.6512 130.338 54.1637C130.895 52.8532 134.172 47.5787 134.026 47.0047C131.533 44.7628 128.51 43.5714 125.757 41.4324C121.117 37.8312 115.385 31.6524 111.821 26.9573C111.101 26.0096 107.121 20.6593 107.7 19.9174C109.155 20.7189 110.49 21.8994 111.713 23.0041C116.856 27.6613 122.355 34.777 127.607 38.768C130.078 40.6471 133.301 41.5786 135.567 43.8368C136.638 44.1075 138.509 41.6381 139.775 43.2411C141.251 45.1418 137.211 49.4091 137.308 51.6023V51.5969Z" fill="black"/>
<path d="M73.2132 52.4146C74.8896 53.6113 70.1847 61.4581 69.4925 63.1043C68.3027 65.942 67.4158 70.2796 65.6853 72.6948C63.5816 75.6353 58.0979 77.9097 55.3506 80.6228C51.3379 84.5868 49.2234 90.2458 44.605 94.2314C43.9182 94.8217 39.9541 97.3723 39.9595 97.6972C39.9595 97.9084 42.1335 99.2406 40.7653 100.741C41.7225 100.475 42.6149 100.389 43.1557 101.423C43.8371 103.535 38.932 106.773 37.5097 108.246C30.7389 115.248 22.508 123.344 17.4732 131.64C16.4457 133.33 12.7142 142.124 10.9566 141.761C9.19898 141.399 12.2869 136.027 12.6709 134.96C13.3253 133.135 13.666 131.093 14.3852 129.366C17.0784 122.932 24.6009 117.555 28.9868 112.308C32.2532 108.403 33.6052 102.955 39.1375 101.553L34.6705 100.551C34.2595 100.237 34.2595 99.8417 34.2812 99.3759C34.4055 96.3705 40.8464 93.0509 43.0583 90.8577C46.2274 87.7168 48.2283 83.3954 51.1054 80.0271C54.4042 76.166 60.0556 73.128 62.2134 68.8121C63.6519 65.9311 64.3928 62.7144 66.1071 59.7144C66.848 58.4147 71.5583 51.2395 73.2078 52.4146H73.2132Z" fill="black"/>
<path d="M153.213 205.841C151.899 204.557 153.365 192.378 153.116 189.492C152.7 184.694 150.655 179.36 150.288 174.453C150.212 173.43 149.969 168.367 150.893 168.166C152.467 168.789 152.932 171.524 153.322 173.035C155.815 182.728 155.766 192.643 156.253 202.591C157.085 204.324 162.612 203.923 164.457 204.557L165.279 204.097C164.154 196.12 165.408 187.764 164.895 179.723C164.073 166.796 160.547 148.552 165.787 136.379C166.03 135.81 166.663 133.85 167.507 134.05C168.88 135.317 168.642 137.77 168.54 139.547C168.323 143.386 166.793 147.469 166.501 151.314C165.927 158.847 167.55 164.809 168.112 172.027C168.518 177.259 168.226 183.004 168.523 188.268C168.745 192.134 171.098 205.283 169.107 207.947C167.004 210.763 156.209 206.723 153.203 205.846L153.213 205.841Z" fill="black"/>
<path d="M98.3657 186.443C98.0412 182.127 99.2039 177.914 99.5771 173.647C100.453 163.666 101.383 152.321 100.815 142.357C100.496 136.774 98.7388 131.277 98.3657 125.721C97.9763 119.943 98.0574 112.037 98.344 106.215C98.4252 104.618 98.8199 99.051 99.5554 98.0871C100.161 97.2911 100.924 97.5077 101.583 98.1304C103.157 99.598 103.309 108.69 103.238 111.127C103.141 114.761 102.178 118.801 102.416 122.478C102.757 127.682 105.272 133.774 106.002 139.195C107.554 150.718 105.883 168.491 102.865 179.804C102.232 182.187 101.432 186.817 98.3548 186.454L98.3657 186.443Z" fill="black"/>
<path d="M26.1692 203.501C27.0723 203.344 27.4347 203.723 28.0133 204.292C29.56 205.813 32.0531 210.747 33.8864 213.032C36.201 215.908 39.4944 219.947 43.1124 220.852C47.9363 222.059 53.6687 222.027 58.6982 223.115C66.345 224.767 77.6369 230.881 85.0025 229.717C87.9715 229.245 93.4877 226.18 94.2177 223.104C95.2561 218.734 93.0442 208.202 95.1209 205.326C95.3859 204.958 96.051 204.2 96.5378 204.313C98.7604 209.653 99.0579 217.743 97.7762 223.419C96.6405 228.439 94.7802 230.978 89.8589 232.549C79.2701 235.922 76.1173 232.744 66.7398 230.101C59.0172 227.929 50.3699 227.188 42.7987 224.832C33.113 221.816 27.3535 213.308 26.1746 203.507L26.1692 203.501Z" fill="black"/>
<path d="M147.037 207.156C147.497 209.821 146.237 211.705 145.42 214.061L147.849 213.249C147.47 217.792 143.095 220.456 140.142 223.397C141.602 223.576 142.862 223.061 144.004 222.189L153.749 211.202C155.414 210.687 155.279 214.023 155.122 215.052C154.841 216.871 153.116 218.041 152.721 219.747C154.555 218.864 156.215 217.18 158.394 217.31C158.919 219.341 156.604 219.644 156.372 221.366C162.553 222.222 161.828 213.888 164.684 210.411C166.463 212.079 167.793 218.057 166.679 220.121C165.641 222.048 155.712 227.507 153.278 228.633C149.812 230.242 147.005 231.579 143.155 229.933C142.035 229.457 141.748 228.276 141.516 228.238C141.035 228.162 139.255 229.078 137.92 229.115C125.633 229.473 139.639 215.87 142.333 212.393C143.284 211.164 144.728 208.359 145.637 207.579C146.151 207.14 146.318 207.043 147.037 207.156Z" fill="black"/>
<path d="M111.312 149.099C115.303 163.401 110.842 179.934 113.897 194.236C115.276 200.685 118.721 205.608 120.982 211.51C121.82 213.698 123.534 217.624 121.896 219.547C118.029 224.068 114.087 218.112 109.187 220.63C107.97 221.258 104.477 224.891 104.131 221.87C103.757 218.61 108.295 215.951 111.139 215.68C113.578 215.447 115.098 216.471 117.423 216.492C116.136 211.624 113.205 207.389 111.631 202.597C108.138 191.967 106.369 164.376 108.695 153.529C108.825 152.917 109.977 149.245 110.177 149.126L111.312 149.099Z" fill="black"/>
<path d="M156.447 8.45868C157.81 9.24931 160.395 7.0832 162.45 9.96955C164.997 13.5436 164.37 28.8364 160.163 31.2354C155.955 33.6344 157.183 22.9446 156.772 20.7351C155.858 20.4644 155.128 21.385 154.457 21.4716C153.787 21.5583 153.089 21.0438 152.575 21.1792C151.932 21.3525 150.293 24.867 148.525 24.71C146.356 24.515 145.837 20.4265 145.821 18.7098L141.743 19.3597C141.808 24.0168 140.916 28.3978 141.786 33.0603C140.488 34.5387 138.222 32.0748 138.13 30.6668C138.601 27.9916 139.715 24.8291 139.699 22.116C139.677 19.3217 137.601 16.7874 138.98 14.0852C140.716 10.6844 144.82 12.244 145.377 11.762C145.621 11.5508 145.556 8.76194 147.324 8.23124C149.201 7.66805 150.12 8.86483 150.493 8.85941C151.018 8.854 152.656 6.08137 154.144 6.12469C155.29 6.02722 156.123 8.27456 156.447 8.4641V8.45868ZM160.011 19.9174C159.681 18.4932 158.989 12.6664 157.713 12.2494C156.788 11.9461 155.831 12.5743 154.928 12.6285C154.225 12.6664 153.451 12.2115 152.965 12.2981C152.418 12.3956 151.775 13.5978 150.796 13.7711C149.498 13.9985 148.243 12.5581 147.605 14.6321C147.108 16.2567 149.666 17.1827 149.476 19.1051C150.25 18.8885 150.401 17.3073 151.358 17.1394C151.975 17.0311 152.602 17.9679 153.635 17.8217C154.668 17.6755 155.852 16.2621 156.577 16.2567L160.017 19.9174H160.011Z" fill="black"/>
<path d="M109.987 100.481C116.212 106.243 123.821 118.752 125.416 127.07C128.391 142.612 129.57 158.592 134.361 173.755C134.897 175.455 139.45 186.335 138.931 186.844C136.876 187.147 135.291 184.645 134.399 183.064C122.496 161.955 128.639 135.279 115.174 112.963C112.302 108.208 108.495 103.795 105.326 99.2351C105.423 96.1647 108.89 99.4572 109.993 100.481H109.987Z" fill="black"/>
<path d="M8.38777 148.742C9.06918 148.346 10.313 148.677 10.3346 149.646C10.3725 151.688 8.0633 155.912 7.39811 158.094C4.61301 167.202 4.07762 179.057 9.06918 187.521C11.546 191.723 19.8905 197.382 20.48 201.698C20.7774 203.886 19.9176 204.465 18.0843 203.268C1.97932 192.763 -4.22363 177.443 2.98521 158.95C3.4557 157.742 7.89565 149.029 8.39859 148.742H8.38777Z" fill="black"/>
<path d="M147.849 173.04C147.357 172.991 146.745 173.186 146.313 172.948C145.88 172.71 142.03 165.107 141.651 164.013C140.932 161.933 140.326 159.069 139.856 156.875C135.805 137.96 134.35 117.566 139.342 98.7207C141.965 96.8849 141.413 105.636 141.359 106.632C141.121 110.645 140.288 114.766 140.131 118.806C139.731 129.025 141.359 138.057 142.581 148.065C143.155 152.787 142.927 157.617 144.225 162.258C145.253 165.908 148.097 169.065 147.849 173.046V173.04Z" fill="black"/>
<path d="M126.357 187.25C123.588 182.262 121.642 177.849 120.463 172.228C118.321 162.025 117.299 151.195 115.271 140.873C113.978 134.299 111.139 125.911 110.447 119.672C109.993 115.595 112.562 117.355 113.854 119.954C122.88 138.166 120.782 160.764 125.573 180.107C125.881 181.347 127.807 186.194 127.379 186.844L126.357 187.244V187.25Z" fill="black"/>
<path d="M100.799 67.6424C100.761 67.4203 100.394 67.0088 100.329 66.6893C99.2363 66.4997 98.1385 66.7543 97.0353 66.5322C95.9321 66.3102 94.2231 64.7939 93.2335 64.7019C89.4966 64.3499 79.6216 75.749 76.6634 78.4134C75.9009 80.0488 77.6044 80.6661 78.3129 82.0362C79.1403 83.6337 80.5788 92.1411 80.5518 94.0473C80.5247 95.9535 79.308 96.8091 78.4535 94.8921C77.8965 93.6466 77.8045 91.0202 77.4043 89.4443C76.9447 87.6464 76.5282 85.4641 75.7279 83.8124C74.4137 81.0777 70.9094 79.556 72.4128 75.9711L74.8356 77.1841C75.6413 72.7706 80.2057 68.2814 83.5748 65.4167C87.4145 62.1458 92.5791 58.1223 97.8411 60.857C98.6793 61.2902 99.1065 62.0538 99.842 62.5087C100.615 62.9852 101.67 63.0339 102.416 63.5863C105.212 65.6766 104.131 74.731 103.125 77.6823C102.562 79.334 100.799 80.5307 100.799 78.6029C100.799 75.5487 101.254 70.3717 100.799 67.6369V67.6424Z" fill="black"/>
<path d="M179.08 76.778C179.339 76.5289 178.539 72.7544 178.29 72.0829C177.82 70.8049 176.987 70.1821 176.522 68.9799C175.586 66.5864 175.608 63.0989 174.905 60.4454C172.952 53.1077 164.424 46.631 163.667 38.6002C164.473 37.75 169.637 42.862 170.595 43.6364C172.931 45.5263 175.802 46.5119 177.127 49.6853C179.161 54.5428 182.508 71.5847 181.924 76.583C181.816 77.5253 181.297 78.0668 181.194 78.695C180.87 80.6336 181.356 82.973 179.469 84.3106C178.863 84.5651 176.733 83.4875 176.257 83.0543C174.158 81.1264 176.987 79.4369 176.825 77.1624L179.08 76.778Z" fill="black"/>
<path d="M86.1761 104.011C86.7872 105.961 85.9706 107.943 85.2892 109.784C80.9358 121.53 71.3366 136.222 63.8141 146.359C60.618 150.664 53.593 159.811 48.1797 160.753C47.0223 160.953 43.3774 161.224 44.6158 159.215C44.9727 158.635 50.3266 155.652 51.511 154.747C62.5108 146.364 79.1511 120.127 83.7858 107.055C84.3644 105.414 83.6776 103.54 86.1761 104.006V104.011Z" fill="black"/>
<path d="M155.966 52.8153C158.638 51.5481 161.228 42.51 162.845 41.6327C163.337 41.3674 163.575 41.3566 163.883 41.8331C165.349 44.1021 159.259 53.3731 157.15 54.6132C156.215 55.1601 155.166 54.9489 154.387 55.9074C152.164 58.6205 150.298 67.8752 148.341 71.3789C147.978 72.0233 147.513 72.8465 146.637 72.7165C145.004 70.8699 152.521 49.4145 155.555 46.9235C154.144 46.7718 152.927 48.586 151.51 48.9813C148.308 49.8802 148.033 44.5299 148.876 42.6671C149.85 40.5172 156.437 37.4359 157.999 35.1398C158.573 34.4954 160.595 35.3348 160.233 36.1579C158.665 38.6273 150.78 41.8385 151.072 44.8873C151.12 45.3964 151.44 45.9758 152.034 45.8458C153.24 44.8765 155.712 44.492 156.75 43.6472C157.788 42.8024 159.108 39.8565 160.211 38.5839C163.488 34.8041 163.115 37.3763 161.552 40.3331C160.628 42.0822 157.848 45.2122 157.383 46.3115C156.783 47.7249 156.853 51.0716 155.961 52.8045L155.966 52.8153Z" fill="black"/>
<path d="M15.602 166.526L14.4069 166.536C12.5303 156.578 15.5101 147.496 19.4849 138.523C21.5129 133.953 27.3211 123.382 31.6907 121.097C32.3992 120.728 34.7517 120.079 34.5191 121.481C32.3776 125.543 29.3437 129.106 27.0507 133.108C21.0316 143.635 17.5164 154.525 15.5966 166.526H15.602Z" fill="black"/>
<path d="M168.129 53.6276C165.046 68.1676 172.693 82.1228 169.232 96.7712C168.621 99.3434 167.636 101.331 165.084 102.36C163.315 99.8796 165.744 96.7062 166.057 93.9986C166.636 89.0544 165.295 84.9117 164.889 80.2275C164.484 75.5433 163.083 60.4563 164.386 56.9959C164.716 56.124 167.063 52.6312 168.123 53.633L168.129 53.6276Z" fill="black"/>
<path d="M82.1417 24.385C84.2671 23.8706 84.067 24.6341 84.7808 24.6558C85.0296 24.6666 86.4735 23.3995 87.1874 23.1449C89.21 22.4247 92.4926 22.2839 93.8933 24.1793C93.0983 25.2786 92.1195 24.3417 90.9838 24.4717C85.0621 25.1269 86.1653 27.5963 83.1585 31.2949C82.1472 32.535 79.8758 34.7228 78.2859 34.9503C77.6802 35.0369 77.5612 34.9503 77.6748 34.3329C77.9235 32.952 83.51 28.7552 83.7641 26.21L80.5248 27.6342C80.2327 26.145 81.3197 25.4302 82.1472 24.385C80.4599 24.7966 76.7067 27.9375 76.4634 29.4862C76.3444 30.2498 76.723 31.035 76.6418 31.7498C76.3065 34.6957 74.8897 36.055 77.9668 37.7066C81.6334 39.6724 81.2332 38.2049 83.6398 36.6344C85.7921 35.2319 91.7842 33.3094 87.4253 30.6722C87.1604 29.6433 92.0329 28.0241 93.028 27.7588C93.8338 27.5422 94.5909 26.9411 95.1317 27.8454C95.2236 28.4898 92.6494 32.156 92.379 33.6235C91.8599 36.4503 93.5634 38.3294 92.0816 42.6508C91.7788 43.5281 89.7237 47.3513 89.0694 44.8494C88.7449 43.6201 92.3953 38.5514 89.648 36.564C89.4317 36.5153 86.0842 38.454 85.7759 38.7735C85.1486 39.4179 85.1053 40.3926 84.7051 40.6417C82.0336 42.2772 76.1822 41.8548 74.2731 38.9792C72.8617 36.8564 73.6783 35.4376 73.0347 34.1217C72.5372 33.0928 70.9581 34.0243 71.699 30.7751C72.3641 27.8779 73.8135 28.0837 75.2682 26.6378C76.1281 25.7876 76.6256 24.7804 77.4855 23.9843C78.3453 23.1883 84.3266 19.403 84.1265 22.089C84.0616 22.9392 82.7096 23.6702 82.1472 24.385H82.1417Z" fill="black"/>
<path d="M157.583 118.199C159.395 118.4 159.86 119.293 159.611 121.048C161.596 120.95 162.358 118.351 164.473 118.611L163.867 125.109C166.057 122.797 168.907 114.994 171.471 113.634C171.952 113.38 172.455 113.277 172.996 113.337C173.277 115.876 171.865 118.097 170.778 120.246C169.875 122.028 166.052 128.9 164.505 129.398C161.239 130.443 159.827 128.694 160.422 125.521C154.084 131.364 157.123 122.591 156.772 122.272L154.403 122.212C152.04 120.718 158.346 112.503 159.627 111.111C160.509 110.152 162.072 107.878 163.256 109.47L157.588 118.199H157.583Z" fill="black"/>
<path d="M26.4775 95.9481C27.6077 95.791 28.4081 95.8019 28.9435 96.9391C26.8993 101.629 21.9293 104.694 19.6093 109.4C17.2893 114.106 18.0356 118.763 16.57 123.008C16.4024 123.501 16.159 124.454 15.4236 124.292C11.0918 118.692 13.8282 107.526 17.7165 102.23C19.3551 99.9987 23.7086 96.3271 26.472 95.9481H26.4775Z" fill="black"/>
<path d="M76.0578 95.06C76.1822 95.8668 75.8414 96.4246 75.4304 97.069C72.6183 101.445 67.8701 104.082 64.7767 109.957C58.6711 121.552 54.4259 133.687 47.0278 144.984C46.1625 146.299 40.5706 154.487 38.7481 152.733C38.5643 151.904 38.9374 151.65 39.3376 151.092C43.5558 145.254 47.309 141.372 50.9864 134.732C57.0974 123.691 63.7708 102.955 73.8351 95.8777C74.5381 95.3849 75.1276 94.9246 76.0632 95.0654L76.0578 95.06Z" fill="black"/>
<path d="M145.009 49.9777C143.939 57.3533 142.051 64.6748 141.364 72.1154C140.818 78.0505 140.932 84.0344 140.937 89.9967C140.937 91.3722 141.7 92.1303 140.991 93.6682C139.288 97.3777 137.93 90.6682 137.757 89.5255C136.351 80.2654 138.698 68.2218 140.986 59.1458C141.467 57.2396 142.63 52.0572 143.468 50.6654C143.939 49.8856 144.106 49.8802 145.009 49.9777Z" fill="black"/>
<path d="M139.331 35.7571C138.974 36.2716 134.031 35.0694 133.236 34.7553C132.782 34.5766 128.477 31.9069 127.958 31.5116C126.217 30.2011 125.406 27.488 124.086 25.6414C122.68 23.6702 118.846 20.4644 118.045 18.6882C117.791 18.125 117.656 17.6213 118.007 17.0473C121.506 15.439 125.065 19.2893 127.152 21.7586C128.521 23.3778 130.446 27.2876 131.598 28.2732C132.831 29.3238 135.145 29.2642 136.27 30.4989C136.789 31.0675 136.914 32.0423 137.363 32.6542C138.076 33.6289 139.666 33.9539 139.336 35.7517L139.331 35.7571Z" fill="black"/>
<path d="M165.024 108.317C164.1 107.364 162.358 105.208 163.218 103.865L164.04 103.351C165.03 103.275 165.37 104.688 165.998 105.219C167.188 106.21 168.918 106.622 170.362 107.114C171.536 106.99 172.276 101.71 172.79 100.34C173.877 97.4535 176.3 94.7242 177.171 91.7296C177.641 90.1104 177.544 87.5869 178.155 86.2168C178.766 84.8467 179.75 85.8269 179.902 87.1103C180.686 93.7224 177.544 99.2947 175.537 105.122C174.797 107.282 175.516 109.486 172.812 110.515C169.81 111.663 167.112 110.461 165.014 108.311L165.024 108.317Z" fill="black"/>
<path d="M148.665 162.475C147.384 156.431 146.621 150.177 146.232 143.992C145.907 138.913 145.447 131.462 145.804 126.512C146.021 123.49 147.448 123.284 148.076 126.306C149.114 131.31 150.006 139.26 150.282 144.404C150.585 150.041 150.071 155.803 150.282 161.457L149.898 162.291L148.665 162.469V162.475Z" fill="black"/>
<path d="M69.5682 75.9711C70.5687 76.9567 64.4036 87.8251 63.0948 89.1844C61.2399 91.1122 57.6977 92.7801 55.2425 93.9119C54.0689 94.4535 47.5577 97.3561 46.8601 96.6791C46.6762 95.4282 48.0066 94.3668 48.9151 93.6628C51.392 91.7296 54.9234 90.8848 57.4111 88.7674C60.1367 86.4442 61.4238 82.6427 63.8844 79.8159C64.6145 78.9766 68.4541 74.8664 69.5736 75.9711H69.5682Z" fill="black"/>
<path d="M144.593 82.0633C147.443 90.7277 146.232 100.427 149.049 109.08C149.677 111.008 151.596 113.997 151.818 115.665C152.132 118.005 150.845 117.414 149.693 116.153C145.091 111.138 143.36 97.8921 142.981 91.1934C142.906 89.845 142.738 82.6969 143.36 82.242L144.593 82.0633Z" fill="black"/>
<path d="M147.438 176.695C148.676 184.678 148.757 192.779 148.654 200.853C148.357 202.824 148.081 206.209 145.274 205.553C143.76 205.196 145.323 195.936 145.415 194.355C145.669 189.995 145.507 185.262 145.831 180.963C145.88 180.286 146.248 175.834 147.443 176.695H147.438Z" fill="black"/>
<path d="M96.2728 53.5626L94.3097 53.6276C93.4228 52.7611 100.226 43.214 101.016 41.454C105.126 32.2968 99.988 26.4212 100.399 17.3398C101.394 15.6502 102.735 19.7333 102.946 20.4156C104.244 24.6396 104.861 32.3401 104.406 36.7265C103.736 43.149 99.0795 48.0769 96.2782 53.5626H96.2728Z" fill="black"/>
<path d="M17.246 186.438C17.1108 185.658 17.7706 185.268 18.2681 184.824C20.4584 182.874 23.9033 181.12 26.3585 179.116C28.4027 177.448 35.5304 169.769 37.315 169.748C40.6139 169.704 36.2497 174.324 35.2979 175.482C30.4685 181.336 24.8064 185.057 17.246 186.443V186.438Z" fill="black"/>
<path d="M149.823 90.6465C151.51 96.8308 155.728 104.542 154.717 111.073C154.463 112.708 153.722 113.434 152.321 112.308C151.034 111.273 149.904 104.818 149.59 102.858C148.952 98.894 148.573 94.8379 148.654 90.8252L149.823 90.6465Z" fill="black"/>
<path d="M49.0882 106.026C50.4348 105.636 51.8463 109.4 52.0301 110.385C53.2523 116.954 50.0995 119.104 48.2824 124.308C47.8065 125.662 46.633 133.628 45.838 133.633C43.015 131.223 44.9835 126.295 46.0327 123.279C47.3468 119.51 50.5375 114.88 49.921 110.878C49.7371 109.703 47.6605 106.437 49.0882 106.026Z" fill="black"/>
<path d="M95.5265 133.438C95.467 134.185 94.7369 135.398 95.1209 136.487L93.9311 136.465C93.6986 135.442 93.2876 134.44 93.1308 133.4C92.498 129.149 93.0118 119.884 93.996 115.665C94.2826 114.447 95.5265 113.656 95.5265 114.761C95.5265 120.68 96.0024 127.676 95.5265 133.444V133.438Z" fill="black"/>
<path d="M110.128 20.3236C108.911 19.143 116.115 15.8126 114.411 13.3974C111.994 11.3721 107.77 18.3849 106.25 16.2784C104.893 14.3992 112.145 10.354 113.773 10.7439C119.722 12.1844 115.028 20.8814 110.128 20.3182V20.3236Z" fill="black"/>
<path d="M81.3305 99.5276C81.6604 99.8308 79.2106 107.152 78.805 108.16C77.4314 111.528 74.7544 116.949 70.7904 117.393C70.3415 116.986 74.9113 110.656 75.4629 109.687C77.2583 106.524 78.5671 103.069 80.0867 99.7767L81.3305 99.5276Z" fill="black"/>
<path d="M78.3778 62.2271C81.6172 61.5664 79.4972 65.942 78.6969 67.4474C77.8965 68.9529 73.8567 74.2544 72.2073 73.9403C70.9526 73.7021 72.7264 70.6208 73.0563 69.9276C73.8351 68.2922 76.7932 62.552 78.3724 62.2271H78.3778Z" fill="black"/>
<path d="M100.253 0.0703988C102.616 -0.682326 109.317 4.9929 110.75 6.90449C111.55 7.9713 111.713 9.02187 110.096 8.78901L99.6365 1.37007C99.4094 0.785217 99.6636 0.254519 100.253 0.0649835V0.0703988Z" fill="black"/>
<path d="M148.568 38.2915C150.293 39.8294 145.788 42.9811 143.36 40.4576C141.419 38.4377 142.04 35.3835 142.17 32.9195C143.246 31.7877 145.631 36.8294 146.416 37.398C147.075 37.8745 147.876 37.9178 148.568 38.2915Z" fill="black"/>
<path d="M101.61 82.0579L102.865 82.2961C103.741 86.2547 106.045 90.6411 104.25 94.6538C101.491 96.2026 102.432 91.4209 101.61 89.9804V82.0633V82.0579Z" fill="black"/>
<path d="M97.5491 34.5441C99.6365 39.8457 98.5549 47.9795 92.2817 49.5661L92.352 48.012C95.6509 47.3025 96.17 44.687 96.3485 41.6652C96.4404 40.1598 95.5265 35.3077 96.316 34.7228L97.5491 34.5441Z" fill="black"/>
<path d="M43.6099 218.117C39.8027 218.323 35.963 212.247 34.5407 209.128C34.2054 208.391 33.5565 207.725 34.4812 207.162C35.3952 207.135 38.1316 211.51 38.9428 212.436C39.5161 213.097 44.4049 217.408 43.6099 218.117Z" fill="black"/>
<path d="M96.6081 1.27801C99.7663 2.96758 95.905 4.1427 95.1695 5.55067C94.6287 6.59041 94.7856 9.80167 92.6657 8.36662C90.2104 6.70954 94.3962 1.64083 96.6081 1.27801Z" fill="black"/>
<path d="M72.8184 41.4378L75.6522 42.4667C72.1748 47.0859 68.5082 41.6219 72.6183 38.1994L73.6296 38.8168L72.8238 41.4378H72.8184Z" fill="black"/>
<path d="M78.486 41.8548C78.897 42.2338 78.8861 44.0425 78.7347 44.7195C78.6482 45.1039 76.9879 48.0282 76.7662 48.2502C75.6089 49.4308 72.4236 47.7195 72.813 45.9162L75.5981 46.6744C75.6954 45.7484 76.7608 45.2826 77.0474 44.6761C77.2421 44.27 77.4747 40.9233 78.4805 41.8548H78.486Z" fill="black"/>
<path d="M70.5795 44.7032C71.4123 46.2411 74.3705 51.2828 71.315 51.5319C68.9355 51.7268 68.6921 45.8783 70.5795 44.7032Z" fill="black"/>
<path d="M87.4145 82.464C86.944 84.7872 88.5177 88.7566 88.2473 90.7819C88.177 91.3126 87.8039 91.9462 87.2198 91.8054C86.1977 91.5617 85.3919 83.7583 86.1653 82.7023L87.4145 82.464Z" fill="black"/>
<path d="M89.821 49.9939C90.324 50.3189 92.1303 58.1277 89.0369 57.2829C89.1991 54.6023 87.5497 52.6799 88.6367 49.9723L89.821 49.9939Z" fill="black"/>
<path d="M89.4425 82.0579C90.4268 81.8954 90.7188 82.9514 90.8864 83.6554C91.1136 84.5976 91.7679 90.9985 90.4538 90.9822C90.1131 90.6952 89.4371 89.4551 89.4371 89.1627V82.0579H89.4425Z" fill="black"/>
<path d="M107.289 10.5761C106.461 11.4317 101.329 6.02722 102.021 4.48927C102.881 3.59034 108.36 9.46592 107.289 10.5761Z" fill="black"/>
<path d="M100.394 10.1753C100.783 9.78543 106.526 12.4389 106.067 14.0202C105.369 16.4192 99.4472 11.1176 100.394 10.1753Z" fill="black"/>
<path d="M95.4832 12.6555C95.9645 15.0328 96.727 17.1015 95.9213 19.5113H94.7153C95.4778 17.3018 91.5841 12.114 95.4832 12.6555Z" fill="black"/>
<path d="M97.1489 75.9711L96.9109 77.2274C95.6292 77.2978 90.9189 79.1986 90.2591 77.7906C90.059 76.9891 90.8269 77.0974 91.3623 76.8917C93.2119 76.1823 95.1641 75.8032 97.1489 75.9711Z" fill="black"/>
<path d="M98.2683 26.9248C99.0092 27.6775 99.2363 31.9827 97.7654 31.6957C97.138 31.5711 96.9704 27.7967 95.9321 27.0385C96.4026 26.1721 97.7113 26.3616 98.2683 26.9248Z" fill="black"/>
<path d="M154.235 24.0818C154.749 24.6179 154.906 26.2587 154.69 26.9627L153.127 27.6396L151.91 23.172C152.067 22.9987 154.014 23.8543 154.235 24.0818Z" fill="black"/>
<path d="M79.7135 41.8548C81.3089 40.7121 81.4387 47.1455 79.9136 47.1238C78.3886 47.1022 79.4756 42.8187 79.7135 41.8548Z" fill="black"/>
<path d="M134.058 41.4432C133.361 42.1418 129.889 38.5948 130.008 37.9991C130.603 37.2301 130.478 37.5009 131.089 37.7121C132.625 38.2428 134.172 39.6778 134.064 41.4432H134.058Z" fill="black"/>
<path d="M38.7427 207.156C39.6513 206.274 41.7874 209.474 42.0578 210.14C42.5932 211.456 41.2791 211.521 40.3489 210.622C40.0028 210.292 38.4074 207.481 38.7427 207.156Z" fill="black"/>
<path d="M78.7942 49.8748C78.3345 50.3297 77.307 50.3784 76.6689 50.3838C75.5386 50.2647 78.1777 47.4271 78.686 47.5408C79.5405 47.7249 79.3188 49.3603 78.7942 49.8748Z" fill="black"/>
<path d="M99.5824 4.89542L99.2147 8.31247L97.9655 8.55074C97.8952 7.25107 97.8194 4.99831 99.5824 4.89542Z" fill="black"/>
</g>
<defs>
<clipPath id="clip0_42_268">
<rect width="182" height="234" fill="white"/>
</clipPath>
</defs>
</svg>
