<svg width="299" height="463" viewBox="0 0 299 463" fill="none" xmlns="http://www.w3.org/2000/svg">
<path d="M208.957 191.437C241.339 194.29 251.617 189.342 251.73 189.342C257.117 187.326 259.472 187.326 261.337 187.701C263.203 188.077 264.539 188.806 265.069 190.165C265.329 193.453 260.754 209.752 249.134 239.467C242.803 255.658 235.1 273.753 225.756 294.67C216.412 315.588 206.363 338.961 198.114 353.482C186.003 374.801 173.82 392.996 159.655 400.093C155.961 401.944 149.813 404.585 142.894 402.098C133.494 398.719 127.912 392.449 120.28 380.294C113.645 369.726 102.842 353.068 91.7542 321.24C84.6293 300.786 75.8809 271.651 71.5303 256.171C66.7222 239.062 62.5519 228.516 68.3418 216.78C73.3996 206.529 83.5795 187.954 97.4601 184.411C108.561 181.578 127.803 178.981 155.851 182.855C171.962 185.08 191.416 189.891 208.957 191.437Z" fill="#F4F0CD"/>
<path d="M133.42 364.71C133.632 364.74 134.268 365.845 134.54 365.466L134.162 362.455C122.236 349.061 111.961 334.155 105.105 317.477C102.199 310.425 100.519 302.903 97.084 296.033C88.8512 279.582 74.8827 266.295 74.0957 246.5C74.0503 245.41 74.1714 234.998 77.1376 237.782C78.1364 238.721 78.4391 245.546 78.8326 247.059C84.1748 268.171 98.4763 281.701 106.876 301.36C109.812 308.23 111.794 315.691 115.139 322.547C122.1 336.758 131.801 346.549 140.458 359.171C142.334 361.91 146.874 373.427 150.733 372.277C151.445 372.065 152.459 367.51 155.168 367.888C158.648 368.357 157.71 373.941 162.144 370.052C177.293 356.719 184.679 336.712 196.483 320.549C208.877 303.569 214.311 292.764 222.407 273.196C231.018 252.371 237.601 230.73 248.362 210.829L247.802 208.332C245.138 207.772 246.879 210.209 246.197 211.238C244.699 213.493 239.902 210.996 238.252 209.588C234.953 206.758 227.114 197.981 224.692 194.439C223.89 193.259 221.045 186.388 220.243 186.433C215.597 192.139 211.269 202.793 203.278 204.957C200.463 205.714 195.635 205.956 195.847 202.036C195.908 200.962 201.311 187.099 202.234 185.011C204.231 180.501 208.227 172.904 212.373 170.21C213.872 169.241 216.142 168.197 216.127 170.921C216.127 171.496 211.011 178.776 209.982 180.516C209.468 181.394 206.668 181.424 210.043 183.376L212.706 178.851C214.507 181.787 204.534 195.151 205.533 196.225C208.817 195.302 211.39 190.368 213.085 187.538C214.78 184.708 216.732 178.261 219.335 177.126C224.829 174.75 225.388 182.968 227.144 186.312C230.095 191.972 234.257 197.163 238.752 201.507C237.087 195.105 232.728 189.551 229.702 183.74C230.125 182.832 231.306 183.27 232.002 183.876C234.423 185.979 236.527 190.807 238.525 193.017C239.191 193.758 240.189 194.772 241.022 193.94C242.293 192.638 235.785 183.558 234.544 181.924C233.303 180.289 227.099 175.492 228.945 173.555C230.791 171.617 242.051 183.679 243.216 185.51C244.654 187.78 247.257 194.167 247.65 196.77C248.044 199.373 247.363 202.657 247.938 204.836C248.331 206.304 250.268 205.093 250.859 206.44C249.012 212.267 246.667 218.139 245.017 224.011C237.026 252.538 229.944 275.466 216.883 302.404C210.512 315.54 203.914 320.67 196.21 331.642C192.518 336.909 189.824 343.492 186.358 348.94C183.377 353.632 180.048 358.157 176.067 362.076C175.386 363.711 178.08 363.302 178.746 363.257C181.122 363.045 182.03 361.925 183.952 361.653C192.775 360.427 206.819 362.939 201.931 375.092C200.857 377.77 194.41 381.75 191.58 382.114C187.736 382.628 176.612 382.537 172.708 382.038C170.604 381.766 161.372 377.906 160.207 379.057C160.116 383.218 164.263 386.033 166.155 389.514C174.433 404.708 169.454 410.036 170.029 424.761C170.468 435.914 177.823 442.952 170.301 454.529C169.348 455.997 165.11 461.036 164.036 457.934C163.158 455.376 164.974 455.679 165.595 454.317C172.057 440.076 165.368 439.652 163.945 427.818C163.128 421.038 164.596 415.756 165.428 409.627C166.624 400.895 163.128 397.52 159.647 390.558C158.331 387.94 157.967 381.508 154.517 384.353C152.474 391.799 151.021 400.002 147.646 406.948C144.029 414.379 126.958 431.616 126.958 438.396V462.202C125.218 462.293 125.611 462.474 125.445 461.082C124.31 451.366 123.75 438.896 126.428 429.558C129.652 418.344 137.522 410.853 142.092 400.653C144.392 395.507 146.148 390.619 148.6 385.685C150.885 381.115 142.485 384.898 140.881 385.095C136.084 385.7 124.446 385.852 119.815 385.095C111.522 383.733 107.723 375.092 114.079 368.872C114.7 368.266 120.148 364.74 120.526 364.74C124.385 364.74 129.788 364.256 133.36 364.74L133.42 364.71ZM181.183 368.66C179.518 368.947 169.348 372.897 169.318 374.153C169.303 374.622 170.544 375.182 171.179 375.288C175.326 376.015 187.478 376.166 191.534 375.243C193.834 374.713 197.996 371.732 196.165 369.189C195.333 368.039 183.362 368.296 181.183 368.675V368.66ZM118.256 373.306C117.878 374.062 117.212 375.273 117.575 376.09C118.574 377.286 119.845 378.028 121.389 378.27C123.795 378.648 144.453 378.224 144.362 375.667C139.731 371.777 121.419 367.086 118.256 373.306Z" fill="black"/>
<path d="M190.445 154.652C195.772 154.758 198.496 160.252 196.619 164.974C196.135 166.184 195.136 166.018 195.106 166.109C194.47 167.546 196.559 168.303 197.24 169.408C201.568 176.415 201.341 185.586 194.334 190.671C190.036 193.789 185.602 192.426 183.649 193.592C181.44 194.908 181.379 200.584 176.385 202.944C169.878 206.017 165.565 202.717 161.524 203.943C159.602 204.518 158.542 207.833 156.061 208.302C152.307 209.013 146.042 208.226 142.213 207.621C141.895 209.543 136.296 218.23 133.799 215.869C133.118 215.218 137.915 208.741 138.278 206.38C138.687 203.641 139.171 193.97 134.268 195.514C133.042 195.907 132.891 198.964 131.211 200.054C130.409 200.568 128.214 201.204 127.76 200.75C126.277 199.267 134.343 191.503 129.032 185.874C128.547 185.359 123.341 182.62 122.827 182.62C122.433 182.62 116.788 186.963 116.592 187.311C114.927 190.247 117.727 190.898 118.453 192.275C123.825 202.43 112.324 215.702 103.001 218.699C101.533 219.168 99.9897 218.669 98.4763 219.123C97.5683 219.395 94.7988 225.464 93.7546 226.826C89.5625 232.274 85.1737 231.517 89.4263 240.219C90.8186 243.064 93.467 246.046 96.9478 245.183C99.7324 244.502 106.467 236.436 107.133 236.299C111.885 235.331 117.303 238.176 121.313 235.512C122.6 234.65 126.368 230.533 127.019 229.141C127.851 227.386 129.077 219.047 131.862 219.652C134.646 220.258 131.665 223.617 131.529 224.586C131.226 226.765 131.846 228.99 131.317 231.169C130.045 236.315 121.177 242.792 115.956 243.019C113.686 243.125 111.582 241.051 109.388 241.657C107.193 242.262 102.684 249.405 97.7196 250.434C92.7558 251.463 86.2331 246.681 85.4764 241.869C85.204 240.128 86.1271 234.332 84.2808 233.984C83.509 233.833 82.4345 235.27 81.2541 235.467C74.4741 236.617 69.7524 232.092 69.8583 225.418C69.9188 221.71 71.4927 219.183 72.5824 215.854C64.4404 218.003 64.5917 208.423 66.1656 203.005C68.7384 194.137 75.4275 193.244 78.197 188.598C79.2261 186.872 79.1505 184.602 79.9828 182.817C85.2948 171.451 94.1632 168.697 106.164 169.801C107.178 169.892 107.814 170.952 108.888 170.906C113.383 170.694 117 165.624 121.616 170.18C124.174 172.707 124.128 176.203 123.947 179.563C127.76 180.335 129.213 178.216 129.289 174.599C129.319 173.434 125.021 171.708 126.58 165.186C128.411 157.513 135.327 156.257 136.387 153.85C137.022 152.413 136.583 150.748 137.128 149.31C139.595 142.833 144.529 140.2 151.414 140.351C153.548 140.396 157.998 142.152 159.662 141.834C161.161 141.547 161.463 134.994 169.257 136.87C171.452 137.4 174.327 139.897 175.825 140.139C179.639 140.79 182.197 134.827 189.249 140.275C195.348 144.997 189.688 153.82 190.399 154.607L190.445 154.652ZM186.056 158.587C185.753 158.769 185.254 160.434 184.452 161.099C182.469 162.779 178.277 166.457 175.674 164.52C172.405 162.068 177.641 160.767 179.14 159.586C187.297 153.139 176.234 154.925 174.13 152.443C171.694 149.568 175.159 143.575 168.712 141.94C164.535 140.881 164.248 146.934 161.993 147.721C157.877 149.144 155.047 145.784 151.475 145.663C142.168 145.33 137.506 156.968 147.737 159.177C149.402 155.258 150.128 151.126 155.349 150.143C159.45 149.371 170.952 153.29 171.542 158.118C172.344 164.716 167.956 161.856 165.519 165.973L173.828 166.744V168.999C167.169 168.333 159.012 172.102 153.17 167.38C151.884 166.351 150.779 163.778 149.644 163.309C147.722 162.507 144.725 165.67 140.2 162.219C138.929 161.251 137.552 157.634 136.099 158.451C135.706 160.6 133.087 161.357 132.255 163.248C128.744 171.194 134.343 170.77 134.601 173.948C134.767 175.9 131.937 178.14 132.3 181.409C132.346 181.787 135.009 188.053 135.252 188.34C136.281 189.566 138.066 189.158 139.08 189.808C140.594 190.792 143.197 195.12 143.454 196.785C143.651 198.056 142.879 199.1 142.924 200.326C143.121 205.245 152.186 205.124 155.274 202.944C156.56 202.036 156.469 200.296 157.559 199.191C160.752 195.953 169.212 200.16 173.828 198.087C176.975 196.664 177.051 190.565 178.11 189.339C180.259 186.842 190.157 188.976 193.517 183.028C195.499 179.517 194.001 170.392 188.946 170.528C190.929 182.09 179.73 184.466 170.861 181.137C170.18 186.766 163.733 189.793 158.512 188.643C157.71 188.461 152.05 181.591 150.643 181.212C148.282 180.577 143.197 185.465 140.064 181.666C138.384 179.623 139.988 170.831 142.455 168.984C148.146 164.732 141.956 176.218 143.636 178.095C145.845 178.049 150.355 174.099 152.217 174.448C154.487 174.871 159.496 183.936 162.084 183.422C166.367 182.544 165.565 176.309 169.303 175.416C172.708 174.599 184.406 178.761 185.012 172.344C185.193 170.361 182.847 168.954 184.497 166.502C185.935 164.384 188.704 164.777 190.445 163.354C193.94 160.479 188.462 157.24 186.086 158.633L186.056 158.587ZM178.398 149.325C181.682 148.402 187.357 154.032 188.174 149.734C189.703 141.789 176.279 140.23 178.398 149.325ZM157.967 159.949C159.541 160.691 167.804 161.493 167.759 159.571C167.729 157.361 152.807 150.975 154.199 159.51C154.88 163.657 160.101 165.17 157.952 159.949H157.967ZM118.604 173.63C115.578 171.996 112.763 173.842 110.008 173.63C106.467 173.328 103.955 171.285 98.6579 172.011C93.9362 172.662 85.8093 178.609 84.0387 183.074C82.6918 186.464 83.8117 189.929 81.7232 192.835C80.3914 194.697 77.3647 195.711 75.6394 197.315C73.1121 199.676 67.9212 207.939 70.3123 211.011C71.4927 212.524 77.2285 210.996 78.6662 210.178C81.0724 208.801 86.4601 191.019 93.7849 190.943L85.5823 204.261C78.3938 217.125 86.0061 222.255 94.5415 210.965C93.2249 208.832 89.3809 210.875 88.6242 208.605C86.672 202.733 97.4926 189.354 102.305 186.237C107.239 183.028 108.056 185.783 112.127 184.739C115.85 183.77 120.118 177.641 118.635 173.676L118.604 173.63ZM105.847 190.928C104.545 189.823 99.2784 195.589 98.325 196.8C96.3879 199.206 89.8955 207.863 96.7057 204.08C101.927 201.174 103.289 196.013 105.847 190.943V190.928ZM99.8081 213.584C105.68 212.872 117 202.823 115.517 196.785C114.972 194.575 110.311 188.779 109.373 194.046L99.8081 213.584ZM89.9863 221.907C87.7313 221.726 85.204 222.285 82.9944 221.726C81.4205 221.332 78.1214 217.458 77.1528 218.139C76.4566 220.621 73.9293 223.859 74.4438 226.447C76.4869 236.587 92.3017 224.162 89.9711 221.907H89.9863Z" fill="black"/>
<path d="M180.623 23.5634C180.683 22.504 182.091 20.3853 181.364 18.6449C180.759 17.8125 178.519 24.9103 178.398 25.8637C177.051 36.0185 179.473 45.8404 181.379 55.6622C178.247 56.2222 177.414 54.4818 176.476 51.8788C171.754 38.8788 173.313 22.3981 178.005 9.59489C179.109 6.56812 181.864 -2.4365 186.57 0.620532C187.312 1.10481 191.776 15.6787 191.988 17.4947C192.594 22.7764 192.018 30.0255 191.216 35.277C194.092 36.0791 193.85 34.4597 194.818 33.809C197.618 31.9324 200.16 29.6018 203.066 27.8614C206.486 25.8335 218.049 19.8859 221.408 18.993C223.209 18.5087 226.085 18.3271 226.645 20.688C226.856 21.5657 220.954 33.8544 219.925 35.6553C217.216 40.4073 211.556 47.6413 207.44 51.1221C203.944 54.0732 193.441 59.5365 191.988 62.8659C201.946 67.1185 204.428 77.0614 200.796 86.7925C199.873 89.2744 196.892 92.7703 196.543 94.6318C195.151 102.123 199.177 106.709 191.398 113.065C189.446 114.669 183.468 117.363 181.062 117.681C178.534 118.014 171.618 116.924 170.044 117.998C169.575 118.316 168.031 122.296 166.7 123.719C161.282 129.485 150.007 126.837 144.029 122.932C142.425 121.888 141.139 118.74 138.929 119.27C133.768 120.526 128.396 129.742 125.505 133.722C125.036 134.373 123.977 134.086 123.992 134.646C124.007 135.387 124.718 136.522 125.142 136.522C126.05 136.522 134.737 126.534 137.219 126.7C138.49 128.032 134.419 130.363 133.345 131.513C129.682 135.402 125.778 139.125 122.509 143.332C131.438 140.169 137.718 132.587 144.922 126.852C149.296 125.096 143.106 132.118 142.531 132.784C137.158 138.913 125.959 150.476 117.636 150.96C114.912 151.111 112.717 151.459 112.611 148.266C112.521 145.527 120.178 131.982 122.221 129.092C125.415 124.551 129.501 121.388 133.072 117.287C128.623 115.713 125.445 113.05 124.915 108.01C124.385 102.971 130.59 96.9019 130.802 100.655C130.832 101.23 128.063 103.228 128.577 106.633C129.818 114.775 135.948 111.203 140.609 112.792C143.333 113.716 147.101 119.058 150.189 120.586C152.383 121.676 159.693 121.963 162.008 121.298C165.852 120.178 166.079 113.201 167.199 112.52C168.243 111.884 176.052 112.641 178.595 112.202C181.773 111.657 189.491 107.813 190.853 104.817C192.215 101.82 190.656 95.2372 191.292 91.6504C191.761 89.0474 194.591 86.4141 195.363 84.3862C197.497 78.7413 196.407 70.9625 190.414 68.2536C182.408 64.6517 180.396 67.7541 173.328 69.1313C162.992 71.1441 167.078 69.3583 165.232 63.2291C162.825 55.1931 155.758 64.4096 153.049 64.7879C150.809 65.0906 144.241 62.5632 140.987 62.5027C136.25 62.4119 128.653 65.136 130.242 71.023C130.681 72.6575 133.027 74.1103 133.102 76.1231C134.994 76.5469 134.873 74.5038 135.902 73.8379C139.307 71.6435 143.348 70.4631 146.678 73.4899L139.428 76.0777C132.406 79.3012 138.808 87.2011 142.183 84.8402C143.197 84.1289 143.318 80.6784 145.376 79.6493C148.645 78.03 152.444 77.803 155.909 78.59C166.806 81.1173 165.08 90.9543 154.244 90.8332C156.681 94.7226 164.762 92.4677 165.549 88.5631C167.229 80.3303 157.65 77.1674 153.488 71.9462C157.135 70.6598 167.123 77.7879 168.894 80.7087C175.644 91.8623 165.625 100.443 154.063 97.8099C150.037 96.9019 145.709 92.2104 142.546 89.6982C141.441 92.1347 137.476 94.5561 138.445 97.5375C139.474 100.685 144.059 97.4316 145.633 97.2651C151.566 96.6143 149.704 106.376 156.136 106.406C159.829 106.436 160.752 101.26 163.491 100.095C169.136 97.6888 173.48 100.943 178.716 93.4211C185.965 82.9939 168.849 84.4467 170.922 77.3641C171.981 73.732 176.34 79.044 177.989 79.9369C181.016 81.5562 185.133 81.0114 185.904 85.612C187.251 93.633 181.652 101.548 174.024 103.863C171.285 104.696 167.138 104.393 164.974 105.392C163.158 106.224 162.84 108.827 160.449 109.932C156.651 111.672 151.006 110.628 148.176 107.496C147.086 106.3 146.496 103.591 145.164 102.895C143.757 102.168 140.397 105.937 135.917 102.592C134.116 101.245 133.057 96.1603 133.481 94.1627C133.723 93.0579 136.75 89.0777 136.735 88.5783C136.735 87.761 134.601 87.0649 134.101 86.4444C131.498 83.1755 132.104 80.6936 133.072 76.8798C128.865 80.3303 123.916 82.6307 127.473 88.9112C128.35 90.4549 131.014 91.832 131.438 93.2698C131.756 94.3594 131.423 96.5387 130.439 96.5235C129.879 96.5084 123.553 90.7424 122.857 89.7738C117.318 82.0102 125.778 78.6808 126.307 74.973C126.777 71.6889 123.553 71.0533 125.611 66.0138C128.82 58.1139 139.822 57.2815 147.086 57.9777C148.932 58.1593 150.522 59.5213 151.611 59.5062C153.064 59.4759 157.438 54.6331 160.601 54.9812C160.918 55.0115 166.488 57.0091 166.76 57.1907C169.03 58.7798 169.378 65.5446 170.468 65.5446C173.525 63.7588 179.911 61.2466 183.422 61.065C186.025 60.9288 187.009 62.427 188.659 62.5481C192.094 62.7903 190.672 59.824 191.958 57.5842C192.942 55.8741 198.45 52.5598 200.327 50.8345C202.476 48.8671 207.546 44.8567 206.744 42.1326C203.853 44.1454 201.689 47.3235 198.738 49.2455C197.906 49.7903 192.518 53.604 192.003 50.8043C191.534 48.2013 207.44 35.3072 210.149 32.7042C213.054 29.9045 211.813 29.3445 208.514 31.0698C205.215 32.795 197.603 38.2583 195.287 40.8765C193.502 42.8893 188.613 54.1034 185.405 50.2443C182.575 46.8392 189.022 28.603 185.965 23.2456C183.544 24.6379 184.815 28.83 184.421 31.1303C184.073 33.1885 182.257 35.0651 182.938 37.5924C182.227 37.9103 180.683 36.9266 180.683 36.4574C180.683 32.2653 180.426 27.7403 180.683 23.6088L180.623 23.5634ZM151.172 88.9112C151.414 88.6691 149.538 85.6574 151.581 85.1429C152.489 84.9159 158.013 88.094 157.952 85.5212C157.877 82.7972 148.312 81.2232 147.57 84.8554C147.132 87.0044 150.037 90.0311 151.172 88.9112Z" fill="black"/>
<path d="M265.66 103.727C263.859 105.891 259.697 110.235 260.892 103.863L269.746 89.3198C268.157 87.3524 268.656 88.6085 267.687 89.456C265.266 91.5596 263.435 94.2837 261.059 96.4932C260.484 96.5991 260.59 95.7819 260.681 95.3582C261.104 93.2848 271.229 79.0893 270.502 78.3629C269.14 78.0753 268.671 79.1044 267.839 79.846C263.011 84.1743 258.895 92.3465 257.109 98.5817C256.443 100.927 254.612 113.367 253.87 113.867C251.434 115.501 251.358 111.385 250.117 110.855C250.329 113.004 247.287 117.983 248.165 119.194C255.868 121.994 263.314 127.487 259.682 136.673C257.487 142.212 252.417 141.668 248.18 144.044C243.943 146.42 241.733 151.474 236.133 151.489C228.809 151.505 223.103 138.202 222.165 131.997C225.131 131.71 224.617 134.797 225.283 135.902C226.296 137.566 231.79 146.48 232.925 146.874C238.222 148.659 240.431 142.863 240.31 138.459C240.22 134.857 237.586 122.1 232.456 123.114C226.978 124.203 231.291 135.735 232.365 135.765C234.272 135.796 232.986 129.046 233.863 127.457C234.635 126.08 235.089 127.2 235.664 127.956C240.583 134.419 233.909 149.31 227.931 136.446C225.54 131.316 223.391 122.538 229.051 118.846C233.5 115.955 235.785 117.06 239.766 119.92C240.416 120.389 240.326 122.614 241.839 121.055C243.004 119.86 245.411 108.252 244.094 107.057C240.28 105.513 231.518 115.97 230.716 116.122C225.54 117.06 226.039 113.14 223.693 111.975C218.896 109.614 218.745 118.452 219.214 121.752C219.471 123.552 221.136 124.824 220.576 126.912C219.592 130.575 209.649 131.134 213.841 138.459C215.778 141.819 219.577 143.12 222.604 144.8C230.004 148.917 220.379 159.889 229.369 159.843C232.274 159.828 234.635 156.196 238.04 158.073C240.144 159.238 240.689 165.246 241.839 167.501C244.154 169.181 247.06 160.645 247.151 158.784C247.257 156.514 245.91 153.911 246.394 152.065C247.605 147.418 249.951 156.998 250.041 158.148C250.405 162.628 249.648 167.516 246.031 170.558C238.479 176.914 236.784 164.883 234.575 164.52C233.818 164.399 232.728 165.746 231.608 165.957C227.114 166.82 223.936 162.976 221.832 162.976C220.303 162.976 216.959 166.124 214.341 165.973C210.83 165.776 206.955 162.31 206.396 158.754C206.032 156.484 206.91 150.778 206.184 149.522C205.306 147.994 198.329 147.721 197.315 142.152C196.997 140.412 197.013 134.933 197.315 133.162C197.648 131.256 199.706 129.288 200.085 127.623C201.084 123.25 198.692 118.256 202.234 114.669C207.228 109.614 212.101 114.275 214.205 113.821C215.506 113.534 215.748 107.087 219.547 106.315C225.01 105.21 228.097 109.433 229.248 109.236C230.156 109.085 232.698 105.664 233.894 104.787C236.86 102.577 244.457 99.3838 247.65 102.002C249.149 102.592 248.906 107.828 250.495 107.057C251.691 106.482 252.887 96.4327 253.537 94.2231C256.821 83.0695 266.174 72.1277 275.845 65.9229C279.628 63.5015 281.414 64.7727 281.656 69.101C282.186 78.4537 271.683 96.5083 265.675 103.727H265.66ZM215.37 117.635C211.238 118.135 207.682 114.033 204.882 118.876C202.99 122.145 206.153 124.884 205.427 128.426C204.852 131.225 200.554 134.449 200.947 139.186C201.447 145.042 207.485 143.847 209.967 147.6C212.6 151.58 208.59 162.401 217.231 161.493C221.893 160.994 218.245 157.089 218.382 155.122C218.487 153.623 220.273 152.14 219.834 150.657C219.35 149.038 208.756 144.331 207.788 136.976C206.577 127.805 210.784 129.999 215.324 127.079C218.124 125.278 214.174 120.692 215.37 117.681V117.635ZM247.862 139.534C260.211 136.31 254.688 125.414 244.079 125.187C245.986 129.878 246.379 134.721 247.862 139.534Z" fill="black"/>
<path d="M93.7848 96.478C99.7173 94.7981 103.107 92.4675 109.131 95.8423C122.312 103.243 118.68 122.72 111.461 133.435C109.569 136.25 104 140.517 103.047 142.016C98.9152 148.538 102.366 155.212 93.0282 163.354C86.9746 168.621 85.3856 167.667 78.2878 167.44C72.6278 167.259 72.991 171.95 69.3135 174.735C61.913 180.35 55.1179 178.957 51.1832 170.452C50.033 167.985 48.0353 159.874 49.3368 157.8C49.5941 157.376 51.955 156.514 52.6511 157.649C53.423 158.905 52.7571 161.463 53.1657 163.173C53.6348 165.08 56.2833 171.148 57.842 172.087C65.9084 176.914 70.9025 162.068 74.8676 160.993C76.5323 160.555 77.5614 161.992 79.0748 162.174C90.3797 163.46 94.5113 154.213 97.4775 145.148C100.444 136.083 99.1876 139.942 104.318 133.102C112.626 122.024 118.589 102.698 99.8081 99.5047C100.05 101.714 102.184 103.076 102.653 105.331C103.682 110.265 101.412 116.576 98.7941 120.798C97.9315 122.19 94.0875 125.368 93.8757 126.428C93.6486 127.593 96.63 131.437 96.6603 133.858C96.7511 141.259 89.0782 150.264 81.2692 149.386C79.2412 149.159 77.0771 147.252 75.6091 148.175C73.9747 149.204 72.2797 160.585 65.4695 161.493C56.9945 162.613 55.572 155.167 56.7978 148.281C57.1459 146.329 59.7035 143.68 59.7338 142.182C59.764 140.896 58.2658 139.609 58.2355 137.687C58.0993 129.954 65.3333 116.863 71.9165 112.792C73.8082 111.627 77.5463 111.233 78.6359 110.446C79.1807 110.053 81.8291 104.469 83.1912 102.925C85.5975 100.201 91.4694 98.1729 86.5963 94.2079C81.7232 90.2428 74.2168 95.9029 71.2203 100.019C69.3437 102.592 66.8769 109.932 65.4846 110.9C64.0923 111.869 61.8222 111.506 59.9608 112.172C54.2402 114.2 52.1517 120.859 52.9387 126.367C53.3322 129.197 56.1924 130.847 55.8898 132.95C55.2996 137.037 45.2658 140.078 44.7059 148.342C44.0703 157.77 51.6372 146.631 53.7256 148.614C47.4754 163.173 35.0051 154.335 42.5115 140.79C43.9492 138.187 49.2763 134.055 49.6395 132.769C50.1692 130.877 47.9294 128.274 47.6418 125.611C46.976 119.406 49.3066 112.717 54.5429 108.978C56.48 107.601 61.8979 106.148 62.4276 105.528C63.3053 104.499 64.9095 99.3382 66.2564 97.2649C73.0213 86.868 90.1679 79.9821 93.8 96.4628L93.7848 96.478ZM78.8932 142.349C84.3565 148.886 93.5881 138.535 91.3332 131.013C90.8186 129.288 87.9886 128.501 88.0491 126.655C88.1853 122.735 91.8326 121.449 93.7546 118.755C95.8128 115.88 100.262 105.725 96.0095 103.606C95.2982 103.243 90.2284 103.909 89.4263 104.242C89.048 104.393 83.7511 109.705 83.5847 110.083C82.4042 112.626 84.0084 114.76 84.0084 117.242C84.0084 121.025 81.7232 128.501 78.3181 130.499C75.7907 131.982 73.7931 131.377 74.1109 128.198C78.6964 130.453 81.9502 117.136 80.9211 116.107C69.5102 115.183 63.5172 131.543 65.0609 141.047C70.2215 141.94 73.8385 137.097 78.651 136.507C78.5451 138.671 77.2587 140.381 78.8932 142.318V142.349ZM70.3577 146.344C67.3763 146.42 65.0306 147.297 62.0492 146.344C57.8572 161.296 69.0259 157.785 70.3577 146.344Z" fill="black"/>
<path d="M59.0224 193.183C53.2565 194.303 48.9131 190.626 43.4043 192.305C37.8956 193.985 42.012 195.65 41.6488 196.195L30.3287 200.372C32.4323 202.279 49.9724 197.648 49.9724 198.858C48.6104 204.624 42.6477 207.802 39.4393 211.919C37.1995 214.779 35.9434 217.201 34.6116 220.167C34.5359 220.348 30.9189 222.422 34.8537 222.649C35.8072 220.242 42.6023 210.542 44.3124 209.815C45.2507 209.422 45.7198 209.982 45.4171 210.935L30.3287 237.011C31.7967 238.403 39.409 228.581 40.4532 227.128C45.3566 220.273 47.9596 210.738 51.8793 205.321C53.4078 203.202 54.4974 203.641 54.4823 206.395C49.9724 220.56 42.2693 237.344 28.9061 245.062C23.6093 248.119 18.5243 249.89 20.7188 241.415C22.9132 232.94 29.1937 219.773 34.0668 212.449C35.3986 210.466 41.6034 203.989 41.6186 203.399C41.6488 202.612 40.4684 202.339 39.409 202.657C29.6628 205.638 23.2461 206.728 13.2729 203.807C12.3497 203.535 10.1251 203.974 9.91321 203.777C9.32299 203.217 10.2916 199.464 11.0482 198.495C11.9714 197.33 25.38 192.078 27.9376 191.216C35.7315 188.567 43.253 186.676 51.6523 188.098C52.6814 188.28 61.0201 191.458 59.0073 193.198L59.0224 193.183Z" fill="black"/>
<path d="M161.418 251.812C160.949 252.387 157.362 256.352 157.074 256.473C155.213 257.305 152.807 254.596 152.126 253.053C148.236 244.411 150.4 219.652 157.226 212.464C158.361 211.268 159.012 210.209 160.979 210.572C159.496 218.82 154.956 226.553 155.697 235.134C155.168 236.42 156.802 236.632 157.196 236.254C157.695 235.77 159.466 224.843 160.01 222.785C160.374 221.438 159.783 220.833 161.736 221.15C162.356 228.082 159.829 234.665 159.481 241.551C159.572 241.672 161.478 240.718 161.781 240.28C166.155 234.044 166.367 221.029 168.622 213.689C174.433 212.494 175.129 217.609 177.611 220.757C180.229 224.071 183.922 227.643 187.736 229.519C188.28 229.792 191.489 231.305 190.808 229.459C190.006 227.31 182.878 223.39 180.668 221.468C179.805 220.712 178.807 220.303 179.109 218.88C180.093 217.957 189.158 224.102 190.793 224.949C191.791 225.464 192.745 225.509 192.684 224.54C192.518 221.514 176.794 211.964 176.854 210.178C176.93 207.923 183.998 210.527 185.087 210.996C190.959 213.508 203.308 225.797 203.853 232.228C204.398 238.66 191.065 236.587 187.282 235.255C181.516 233.212 177.248 228.702 172.708 224.919C169.863 227.113 171.285 230.579 170.619 233.439C168.97 240.537 165.928 246.257 161.403 251.812H161.418Z" fill="black"/>
<path d="M42.2542 127.593C43.5557 129.818 41.6488 129.984 39.7571 129.742C37.8654 129.5 31.4789 125.777 30.3287 126.7L30.6919 128.97C26.3334 128.759 22.5197 126.594 18.2368 126.7C17.8433 128.728 18.6908 128.017 19.7502 128.547C27.1204 132.209 41.7094 134.192 23.8666 139.504C22.7618 140.85 14.7863 144.634 15.2252 145.951C15.8154 147.736 16.905 146.495 17.7223 146.208C20.0075 145.391 30.2531 139.7 31.827 141.047C31.5092 144.407 27.3928 145.194 24.926 146.42C24.5476 148.024 21.4754 147.403 22.0203 148.962C22.671 150.793 23.7909 149.673 24.6838 149.386C26.9236 148.644 29.0575 147.388 31.4335 147.07C32.2961 146.949 35.3229 146.42 34.8386 148.221C24.5173 153.548 16.4662 159.571 4.25316 158.436C-0.150779 158.027 0.348637 156.529 1.24153 152.382C4.48017 149.84 7.17399 146.753 10.3218 144.089C12.0017 142.682 21.6873 136.023 22.0051 135.372C22.6862 133.98 20.9912 134.313 20.3555 134.04C14.2566 131.452 9.06572 130.287 3.5116 125.929C-2.64786 121.101 1.49881 117.968 8.06688 118.362C14.1355 118.71 26.0761 120.102 31.6151 121.994C33.0679 122.493 41.8456 126.912 42.239 127.593H42.2542Z" fill="black"/>
<path d="M259.939 54.9207C261.725 56.6913 256.156 66.952 254.93 69.1767C249.814 78.3629 242.823 86.5352 233.425 91.4537C232.759 91.8018 228.763 93.86 229.732 91.5748C230.186 90.5003 237.374 86.0509 239.085 84.3105C241.748 81.6016 249.769 70.6598 250.859 67.3758C250.98 66.9974 251.055 66.1348 250.495 66.2559L232.002 84.3862C232.244 78.0149 245.456 69.8275 247.09 65.8624C247.665 64.4852 246.303 64.5609 245.365 64.8938C238.252 67.4666 227.099 80.5271 224.132 87.4886C222.861 90.4851 222.801 94.9647 220.273 97.2348C219.274 95.4793 220.425 92.7401 219.789 90.9089C219.395 89.789 216.278 89.562 217.625 85.9147C213.887 88.0637 217.368 96.5386 216.868 99.1114C216.626 100.368 214.462 100.095 213.993 99.3384C213.16 98.0066 211.011 88.0788 210.996 86.2931C210.966 83.5841 214.477 65.5143 216.066 64.3188C221.045 60.5807 223.376 74.9276 224.375 76.4107C226.16 79.0591 229.792 71.5225 230.791 70.3571C233.122 67.6028 237.753 63.7134 240.81 61.8973C243.352 60.384 258.274 53.3013 259.924 54.9509L259.939 54.9207Z" fill="black"/>
<path d="M103.592 85.8995C103.819 79.2103 104.802 72.5969 103.546 65.9229C103.334 64.7576 101.291 57.0696 99.8081 58.704C99.9141 63.4712 100.126 67.8146 98.2796 72.2942C97.0386 72.8239 95.8733 62.6842 94.6172 67.4816C94.4507 68.1173 94.4054 83.2813 91.5299 74.8972C89.1237 67.9054 88.6242 55.5411 93.119 49.3665C96.403 44.8717 99.6568 44.1756 102.623 49.4421C105.181 53.9671 109.403 71.4164 108.798 76.3955C108.677 77.4246 105.847 88.442 103.576 85.8995H103.592Z" fill="black"/>
<path d="M54.4974 99.4896C53.1051 100.837 41.9212 92.7702 38.6372 94.9646C38.1529 97.3406 41.4824 96.8563 43.0865 97.6887C44.6907 98.5211 50.9864 102.38 45.8712 102.501C43.7978 102.547 33.8549 98.3243 33.3555 98.7481C33.8549 102.607 44.3124 105.422 45.4323 107.435C46.2192 108.857 44.1459 108.57 43.5254 108.585C38.2286 108.752 25.9097 100.821 21.6571 97.2044C18.3579 94.3895 13.7723 87.322 20.8701 87.3977C26.9388 87.4582 39.7268 89.471 45.3415 91.6503C46.7641 92.1951 56.7978 97.2498 54.4974 99.4896Z" fill="black"/>
<path d="M297.471 165.458C301.179 169.695 293.899 171.421 290.509 171.33C281.822 171.103 276.102 168.5 268.762 164.338C267.128 163.415 256.443 156.484 256.156 155.788C255.626 154.501 256.534 154.41 257.669 155.031C264.691 158.86 272.485 165.428 280.718 165.973C282.216 166.079 285.53 166.82 284.864 164.474C278.433 163.37 272.5 159.737 266.734 156.907C266.507 155.636 268.656 156.03 269.322 156.196C272.273 156.938 275.708 159.722 279.189 159.934C281.701 160.418 277.888 157.286 277.751 157.21C271.093 153.442 265.75 153.215 258.743 151.671C254.521 150.733 254.173 149.613 258.774 149.31C266.779 148.781 274.059 151.55 280.96 155.137C283.805 156.62 295.897 163.657 297.471 165.443V165.458Z" fill="black"/>
<path d="M122.161 221.589C117.121 228.657 108.979 232.592 100.217 230.942C98.2039 230.564 97.2807 229.126 97.5531 227.189C102.335 228.793 109.146 226.599 113.02 223.39C116.41 220.575 123.417 207.091 125.99 206.879C129.531 206.592 126.217 213.674 125.49 215.475C124.643 217.579 123.477 219.743 122.161 221.589Z" fill="black"/>
</svg>
