<svg width="944" height="607" viewBox="0 0 944 607" fill="none" xmlns="http://www.w3.org/2000/svg">
<rect x="44.7344" y="30.4817" width="850" height="556" rx="37" transform="rotate(-0.373552 44.7344 30.4817)" fill="#F1EDE4"/>
<path d="M605.855 567.109C607.558 567.035 608.775 566.876 610.184 567.895C613.347 570.198 618.482 585.399 623.591 590.207C629.93 596.183 642.454 596.735 648.537 590.133C654.979 583.148 652.853 574.986 656.285 568.702C657.847 565.846 659.807 564.965 661.638 568.235C665.646 575.442 663.418 583.032 672.638 589.358C682.998 596.47 700.977 591.513 707.854 582.766C712.964 576.27 710.377 573.903 711.568 567.545C712.131 564.53 714.065 562.28 716.357 565.857C720.814 572.788 722.338 584.9 728.356 590.929C735.041 597.638 746.81 589.496 751.305 584.539C757.746 577.438 758.745 568.903 763.867 561.526C765.75 561.176 765.25 562.12 765.724 563.129C769.86 571.982 768.605 590.865 785.074 592.489C802.643 594.22 809.802 577.321 809.482 565.496C811.031 565.4 811.684 565.305 812.837 566.303C816.064 569.126 820.956 587.585 825.963 593.615C838.59 608.805 857.581 589.953 863.126 579.306C865.264 575.209 866.481 566.589 870.591 564.806C880.939 560.326 877.788 570.846 878.851 575.262C881.028 584.263 897.855 594.804 908.932 594.952C915.745 595.048 929.089 591.099 932.623 585.951C942.663 571.302 924.812 549.011 905.782 546.591C902.606 546.188 893.322 547.26 892.093 545.19C891.619 543.597 893.501 543.789 894.782 543.47C899.174 542.387 903.336 542.77 907.511 542.058C921.072 539.744 930.779 530.424 924.927 518.78C919.689 508.367 896.293 506.796 895.87 505.299C893.873 498.346 904.694 500.671 909.624 500.045C935.325 496.797 931.816 468.434 910.392 464.782C907.037 464.209 897.855 465.292 896.997 463.126C894.641 457.224 904.822 456.163 909.509 453.796C931.381 442.756 930.574 421.474 907.152 411.772C901.518 409.436 892.694 409.925 896.831 402.717C911.135 401.974 930.062 396.953 927.539 382.146C926.271 374.683 915.924 371.032 907.793 370.618C903.503 370.406 896.869 373.208 896.818 367.773C896.741 360.364 908.1 362.487 913.44 360.778C929.114 355.747 931.176 327.702 913.645 323.647C908.42 322.437 897.42 324.411 899.225 319.592C901.21 314.274 908.382 316.387 912.416 316.004C929.819 314.349 939.718 297.11 934.583 284.033C932.572 278.916 917.115 268.715 910.84 268.694C907.485 268.683 898.56 272.706 897.048 268.131C894.935 261.763 908.382 260.839 913.273 258.79C928.128 252.57 937.028 232.03 922.327 222.583C913.414 216.851 898.252 222.424 897.945 211.491C906.73 209.092 913.939 211.894 920.919 205.451C930.792 196.322 923.365 179.37 910.341 175.23C905.795 173.787 892.131 173.532 892.067 168.851C892.041 167.121 894.154 167.365 895.742 167.11C906.73 165.305 921.802 166.908 928.18 157.355C936.567 144.798 922.302 133.312 907.857 131.147C904.028 130.574 892.451 131.879 893.04 127.517C893.706 122.591 901.518 124.332 905.078 123.886C928.205 120.988 939.679 108.166 931.932 88.9209C926.694 75.9177 912.966 77.1703 898.841 76.9474C898.265 73.9115 899.494 71.4595 903.375 70.7483C940.614 63.9442 953.279 104.514 928.628 123.504C926.694 125.001 921.085 126.88 921.853 129.024C922.02 129.48 928.935 133.79 930.561 135.414C937.733 142.611 939.116 149.999 934.57 158.661C930.625 166.165 924.927 167.354 917.09 171.26C920.022 175.124 924.082 177.343 926.579 181.684C930.152 187.883 931.778 195.218 929.076 201.852C927.398 205.96 923.71 207.903 922.033 211.714C940.46 221.362 943.111 240.522 932.303 255.436C930.869 257.41 923.8 263.27 923.8 264.331C923.8 266.125 933.596 271.942 935.85 274.267C945.775 284.489 944.059 301.717 933.468 311.302C931.253 313.308 922.814 317.48 922.839 319.242C934.39 330.993 935.633 345.163 925.196 357.763C923.749 359.504 920.598 360.619 920.88 362.986C921.098 364.833 926.579 366.977 928.295 368.452C938.578 377.348 939.756 388.207 930.971 398.355C927.296 402.6 916.27 406.114 916.078 406.846C915.233 410.073 920.842 411.942 923.365 414.309C933.212 423.554 932.265 437.629 923.826 447.331C920.855 450.749 916.603 452.565 914.183 456.11C914.183 457.49 924.53 462.882 926.72 464.857C936.516 473.677 938.283 490.417 928.205 499.493C926.195 501.308 922.622 502.338 921.034 504.747C920.752 506.095 926.797 509.906 928.103 511.445C934.506 519.045 934.275 531.826 926.72 538.842C925.234 540.222 919.049 543.29 918.972 543.682C918.46 546.262 929.511 551.336 932.457 553.989C943.816 564.211 950.167 584.454 935.274 594.474C918.114 606.023 893.348 603.667 878.313 590.887C876.188 589.082 869.055 579.592 867.672 579.837C860.001 587.755 855.391 600.366 842.009 603.157C824.849 606.745 818.318 592.256 814.322 581.429C812.171 579.762 806.6 588.849 805.691 589.783C797.419 598.264 780.579 600.865 771.576 591.789C767.786 587.968 766.992 582.745 762.958 579.051C755.108 587.299 747.168 601.268 731.686 598.572C723.17 597.086 719.93 588.18 717.318 582.214C712.029 584.942 709.737 589.889 704.205 593.222C692.41 600.302 675.814 600.642 665.941 590.982C663.61 588.689 662.137 583.732 658.411 584.581C657.822 584.719 654.172 592.065 652.814 593.615C644.234 603.37 627.728 602.659 618.981 593.296C617.265 591.46 612.937 583.286 610.286 583.817C602.474 595.228 581.755 614.526 565.107 602.117C559.434 597.882 559.664 592.479 555.49 587.798C554.145 587.532 546.474 596.99 544.502 598.572C538.496 603.402 531.312 605.949 522.796 605.333C509.184 604.357 507.404 591.056 505.073 582.225C502.819 580.856 496.852 590.006 495.456 591.354C486.005 600.493 471.342 610.492 459.433 597.362C456.282 593.88 454.695 583.265 449.508 587.511C442.298 593.402 440.941 599.665 428.494 601.926C410.809 605.132 410.732 595.589 404.688 585.409C399.104 588.997 396.044 593.455 389.743 596.873C376.322 604.176 366.782 604.23 357.152 592.988C355.244 590.759 351.389 582.469 348.06 583.01C343.002 592.808 329.402 603.879 315.456 602.064C306.313 600.875 302.74 591.417 298.578 585.972C296.158 582.798 291.56 592.001 290.357 593.317C279.267 605.503 263.823 608.093 254.244 593.105C252.822 590.887 249.186 579.253 246.253 579.837C245.344 580.017 238.313 590.844 236.175 592.978C227.019 602.107 210.717 607.531 201.74 595.207C200.703 593.774 199.729 588.944 197.271 589.39C195.926 589.634 191.533 596.247 190.022 597.723C184.772 602.871 174.117 608.295 165.755 606.724C157.675 605.206 155.959 592.5 152.463 588.297C149.569 584.815 145.829 592.022 143.473 594.177C137.749 599.389 127.696 606.437 118.553 605.259C110.972 604.283 112.15 595.929 106.963 592.574C103.006 598.253 98.1017 605.004 88.8303 604.474C76.5366 603.762 77.6123 584.974 73.8346 583.361C70.108 583.775 66.8425 586.259 63.2441 587.384C50.1949 591.47 35.7242 591.311 23.5843 585.271C9.93317 578.478 4.1193 565.05 12.3407 553.172C14.3128 550.317 23.9556 543.884 23.9556 542.844C23.9556 541.167 17.6167 538.906 15.7599 537.664C4.68276 530.202 5.31025 521.529 16.2977 514.279C18.8077 512.623 26.4015 510.076 26.8241 507.847C27.0675 506.52 14.4408 500.777 13.3523 498.272C-0.951835 484.038 8.15315 473.157 26.8113 468.009C27.2083 464.793 21.1895 462.224 18.59 459.708C9.95878 451.312 6.00176 439.827 18.1802 432.29C21.7658 430.072 32.7917 427.959 28.0663 424C22.5982 419.414 16.0288 417.971 12.3407 410.774C5.78406 398.004 14.7354 394.331 25.5948 387.697C25.9149 385.967 17.4502 382.326 15.5934 380.638C5.96335 371.934 11.6364 361.054 22.6238 355.598C24.6728 354.579 29.7311 354.186 29.7055 351.883C29.7055 350.524 18.6796 342.138 16.5666 339.644C4.22174 325.091 8.38366 316.599 26.7857 308.893C21.3432 302.821 13.6981 298.235 13.8774 289.807C14.0823 280.02 25.249 277.653 31.652 271.518C29.078 267.909 24.1477 266.507 20.6261 263.089C16.7971 259.364 12.7761 252.676 13.4036 247.73C14.4537 239.493 26.0942 237.327 26.7473 234.854C22.8799 230.629 16.6307 228.602 15.4909 222.785C13.2371 211.246 23.8019 209.23 33.2399 205.249C34.1107 204.888 34.8278 205.451 34.4949 203.869C34.0467 201.693 24.2373 195.993 21.5865 193.063C10.9704 181.355 17.7448 175.4 30.6275 168.84C22.3933 160.603 9.5618 152.047 18.2954 140.35C20.8822 136.889 25.8125 135.828 27.6949 132.357C18.257 127.548 8.80625 119.524 11.6235 109.355C12.5584 105.968 19.3711 103.293 19.1534 102.052C17.2325 98.4955 12.3663 97.4447 9.65144 93.9418C2.8131 85.0996 8.16596 75.8222 18.7436 71.4914C21.228 70.4723 24.2502 70.1433 26.5424 69.1773C27.4516 68.7952 28.0919 69.379 27.7462 67.8186C24.2758 64.3157 18.9485 62.957 14.8122 60.229C-20.5064 36.9188 13.109 -6.27305 55.202 10.7744C58.9541 12.2923 72.1826 21.2831 73.2839 21.2937C75.8835 21.3043 81.3388 10.8806 88.6126 8.49221C100.343 4.64964 109.192 7.6218 116.491 15.4874C127.312 8.15254 138.722 -1.91034 153.423 6.58154C159.506 10.0951 160.889 15.7315 166.447 18.8948C173.208 14.479 178.459 6.6983 187.115 4.16135C197.066 1.24227 207.695 3.54569 214.379 10.18C216.223 12.0163 219.924 18.9054 222.152 18.64C226.724 15.6891 229.068 11.5917 233.831 8.66205C254.807 -4.26684 262.26 12.4834 270.162 26.0173C274.4 22.3552 275.771 17.1964 279.446 13.046C293.238 -2.526 312.472 1.48641 324.817 15.7634C326.136 17.2919 329.658 23.9899 331.604 23.6396C332.706 23.4485 338.417 14.7337 340.709 12.8761C348.329 6.71953 362.313 1.53949 372.199 6.74076C378.359 9.98891 379.422 14.0013 382.764 18.6612C383.225 19.3087 382.585 19.9456 384.454 19.7015C390.063 16.0924 393.38 10.3604 399.424 6.61338C420.157 -6.27305 428.942 10.4772 437.266 23.6184C439.123 23.7776 445.065 15.7634 446.87 14.0969C456.282 5.39268 471.393 -6.34735 484.852 4.12951C488.412 6.89999 493.906 17.4299 495.878 18.0774C497.517 18.6188 497.197 17.5042 497.556 17.0796C502.525 11.3264 505.636 4.9787 514.6 2.56913C533.195 -2.41985 547.588 8.70451 552.058 22.8541C553.838 24.1916 566.823 11.4113 569.422 9.78722C572.56 7.83409 577.529 5.54128 581.486 5.39268C587.889 5.14854 599.721 11.1672 599.107 17.2813C591.269 11.2733 586.352 6.51785 575.16 11.3582C568.552 14.2136 556.002 27.1637 554.401 33.1505C553.415 36.8339 555.4 45.676 548.216 42.3854C546.193 34.1802 550.38 29.1912 545.719 20.5613C535.397 1.4758 511.412 3.1954 502.627 22.0792C499.746 28.2677 500.015 35.1461 496.762 41.2072L493.445 40.7932C491.575 39.7848 490.871 29.5627 490.154 26.8134C488.515 20.5401 483.405 7.00613 473.814 6.92122C464.696 6.8363 448.676 21.5909 444.347 27.9068C442.631 30.4119 438.303 41.1966 435.396 41.2072C431.029 41.2178 431.221 30.3163 430.248 27.1213C428.391 21.0284 422.04 9.49001 413.255 9.29894C404.483 9.11849 391.69 23.1726 388.629 29.4884C387.118 32.5985 386.516 37.7255 385.44 39.5725C384.365 41.4195 380.19 42.067 379.357 39.8485C378.038 36.3774 378.743 30.38 378 26.6542C376.118 17.2813 369.92 8.5559 357.139 12.1543C348.073 14.7019 340.748 21.4423 337.892 28.8303C336.663 32.0147 335.356 44.4129 331.656 44.4023C327.135 42.5447 328.006 35.9316 326.648 31.8024C321.641 16.5807 302.433 1.00874 285.631 16.5701C280.522 21.2937 278.037 27.7157 276.705 33.8405C276.091 36.6534 277.538 43.9989 271.698 39.944C269.867 38.6702 267.011 28.7772 265.641 25.8687C263.003 20.2641 257.471 9.02296 249.058 8.51344C239.684 7.95086 226.199 21.4742 224.073 28.4269C222.972 32.0466 223.984 48.489 214.968 44.7632C210.153 41.0161 215.391 34.9338 215.942 30.4543C217.401 18.4383 206.35 7.28212 190.944 10.5303C181.852 12.4409 169.11 25.8793 168.829 33.6494C168.726 36.5367 172.197 44.4447 166.28 45.8459C157.623 47.8945 161.235 34.2438 161.132 31.3566C160.851 23.8944 152.207 10.371 141.629 10.9761C134.727 11.3688 125.66 19.0858 122.612 23.9262C122.1 24.7329 119.91 28.48 119.91 28.8515V41.5787C119.91 42.8843 115.364 44.6995 113.123 42.4279C109.192 38.4367 113.161 28.2571 110.485 22.334C104.12 8.23746 83.4774 16.3897 81.6077 29.7325C81.1467 32.9807 82.9908 40.8675 79.1618 42.1307C70.505 44.9967 73.4504 34.1695 72.4259 29.9979C70.2489 21.1557 50.6687 12.7063 40.5777 11.8359C15.7086 9.65985 -1.84825 34.9126 15.619 50.7287C22.086 56.5881 31.0501 57.6602 37.2097 61.4922C40.1167 63.3073 40.2959 65.6638 42.1016 67.0013C43.9072 68.3388 48.0691 67.7762 45.4439 71.4064C43.0108 74.7713 19.6144 73.5294 15.9007 81.1403C11.201 90.7785 23.1488 96.1072 32.6124 97.9223C35.5578 98.4849 52.2566 98.7397 45.4823 103.262C39.963 106.956 17.5911 102.508 17.9625 113.165C18.2314 120.628 27.0546 125.691 34.815 127.909C37.9397 128.801 49.0039 129.555 48.5429 132.272C47.9026 136.136 25.4027 135.775 23.072 145.169C21.2408 152.557 28.4761 160.221 35.9675 163.565C39.4123 165.104 43.3565 165.412 46.8525 166.516C50.3486 167.619 48.9143 169.53 46.161 170.677C38.4903 173.872 18.8461 174.519 23.0976 186.121C26.2863 194.847 37.0048 199.751 45.6488 204.039C47.8898 205.154 47.2623 206.979 45.3158 208.168C39.1946 211.905 24.3526 209.166 22.2652 218.56C20.7413 225.396 30.7299 230.321 37.7988 231.245C39.8093 231.51 59.9402 231.542 49.0296 236.69C39.2074 241.329 12.4303 238.75 23.7635 255.606C27.1443 260.637 33.8802 264.522 40.1295 266.709C42.537 267.548 50.7968 268.153 50.3998 270.711C50.0028 273.269 38.9641 275.551 35.9291 276.772C19.5888 283.396 14.5689 292.673 31.1525 302.778C34.5589 304.848 49.196 308.839 41.6406 311.737C34.0851 314.635 15.2348 313.616 14.2231 324.889C13.5828 332.033 27.7846 348.072 35.4169 350.97C38.9513 352.307 42.1784 351.617 44.8933 353.496C44.6371 354.791 44.317 355.831 42.7547 356.479C37.8244 358.485 29.9744 357.636 24.4166 360.321C10.3302 367.126 17.1941 378.982 30.3073 382.262C34.8278 383.398 37.6195 382.814 41.6021 383.271C44.8804 383.653 42.537 386.625 41.0515 387.634C32.8941 393.174 12.251 394.172 17.732 407.006C20.7798 414.16 29.7823 418.364 37.9909 420.444C41.5893 421.357 54.2031 421.771 46.2251 426.93C39.8989 431.027 18.6668 434.891 18.0649 442.597C17.4758 450.081 27.6565 459.73 36.0572 461.831C40.5264 462.946 50.0028 461.874 45.764 467.139C43.3181 470.175 24.1221 474.229 18.6668 477.308C4.45225 485.333 22.8543 500.459 35.0583 502.444C38.8105 503.059 52.6152 501.616 44.8676 507.762C38.9513 512.454 17.2709 516.179 14.6201 523.281C9.70266 536.454 34.8406 541.018 45.8793 543.237V545.604C32.7789 545.243 18.3594 547.313 17.0276 560.295C15.0555 579.508 41.679 586.704 59.8377 578.255C66.0742 575.357 70.6331 563.617 77.894 565.602C82.1072 566.748 80.1222 579.837 80.4808 583.393C80.9034 587.564 83.0804 599.548 89.573 599.633C103.378 599.814 104.146 575.548 105.452 567.884C111.023 568.468 109.704 574.996 110.511 578.404C111.42 582.236 114.647 596.873 117.439 598.922C125.314 604.707 141.834 587.384 144.6 581.62C146.444 577.767 147.161 571.313 148.877 568.457C150.862 565.177 153.82 568.15 154.909 570.273C157.649 575.591 160.261 599.877 169.302 600.196C178.894 600.525 191.226 585.261 193.339 578.234C194.492 574.402 193.685 561.908 199.127 567.056C205.684 573.255 199.704 597.776 215.416 598.19C225.418 598.455 234.087 590.526 238.762 584.04C241.694 579.964 243.577 572.47 245.766 569.954C247.188 568.309 249.147 568.086 250.978 569.466C253.424 577.841 254.538 592.065 264.565 597.192C278.281 604.208 290.882 586.216 293.456 576.833C293.929 575.092 293.327 569.222 296.119 568.68C299.5 568.022 300.793 579.232 301.664 581.577C303.803 587.331 310.795 598.009 319.157 598.009C323.421 598.009 333.935 592.5 336.906 589.751C344.039 583.127 344.128 575.665 347.97 567.906C352.209 567.98 356.461 596.927 372.967 597.362C382.508 597.616 396.056 587.458 399.514 580.357C400.935 577.438 402.779 563.893 407.082 572.215C411.948 581.609 408.619 602.287 427.892 597.5C438.572 594.846 446.448 585.452 449.06 576.843C449.867 574.211 448.087 571.27 451.685 569.487C459.907 577.098 456.398 598.71 472.93 599.676C485.531 600.419 502.717 578.658 506.008 569.498L508.902 569.816C512.001 577.491 510.029 584.932 513.768 592.84C521.4 609.006 543.081 595.239 549.074 584.879C551.097 581.386 553.095 570.602 556.412 569.466C558.038 568.914 557.948 570.22 558.281 571.047C562.546 581.461 561.662 606.406 583.471 599.049C589.617 596.969 605.868 583.891 605.868 578.605V567.067L605.855 567.109Z" fill="black"/>
<path d="M758.233 9.59616C761.664 12.8443 763.445 17.4724 766.006 21.0496C766.467 21.6971 765.826 22.3446 767.683 22.0898C770.308 21.7289 777.352 13.4918 780.643 11.3158C798.366 -0.456107 814.502 8.58775 823.466 22.9178C826.744 23.3636 830.535 16.793 832.955 14.8717C851.178 0.435542 864.611 14.9567 871.449 29.2655C874.318 29.6795 878.659 24.4463 881.041 22.886C907.332 5.68989 943.022 22.663 934.262 48.68C931.138 57.9468 909.56 68.4449 898.803 64.6342C897.868 64.3051 896.19 62.9464 897.817 62.2564C914.247 59.7089 931.778 50.4103 923.505 34.6154C915.463 19.2344 890.3 19.6378 881.323 33.4796C879.094 36.9188 878.864 44.1687 872.564 42.6296C868.696 41.6849 870.438 37.6088 869.861 35.2947C867.339 25.1681 856.172 6.17818 840.664 14.9142C834.863 18.1836 828.742 25.9324 827.179 31.5901C825.784 36.664 828.127 46.6632 820.034 46.7481C818.241 35.783 821.916 26.7073 811.364 17.7165C798.955 7.14413 787.199 12.8125 777.774 22.5038C770.513 29.9767 769.758 36.1333 768.157 45.3682C757.157 50.8136 761.946 37.354 761.408 32.0466C760.614 24.0324 752.342 7.84471 740.266 10.5303C730.969 12.6002 719.738 24.3508 716.972 31.813C715.576 35.5813 715.947 40.91 714.68 43.3939C713.77 45.1878 709.57 45.9839 708.738 43.8503C707.726 41.239 708.277 34.5198 707.201 30.8046C705.255 24.1385 696.483 12.908 686.993 13.2901C675.558 13.7466 666.491 29.7007 664.506 37.6937C663.994 39.7742 665.172 44.2643 662.496 45.5699C661.497 46.0582 659.384 46.4722 658.539 45.4956C657.284 44.052 657.565 33.1505 656.259 29.2336C654.274 23.3212 648.384 14.8399 639.919 14.8505C634.515 14.8505 624.577 20.5082 621.209 24.096C614.717 31.0275 616.945 38.6384 611.118 44.9967C605.919 43.8609 608.327 40.1245 607.635 36.8869C606.867 33.2673 604.882 29.8068 604.856 26.0598C611.17 31.7706 611.9 24.1279 614.999 20.5401C623.451 10.7532 640.124 4.00213 652.289 13.4069C654.723 15.2963 660.472 23.7139 661.983 23.7139C664.724 23.7139 670.115 14.341 672.997 12.1013C688.287 0.21263 703.167 10.9655 711.043 22.9284C714.321 23.3742 717.843 16.7718 720.122 14.5427C727.178 7.66426 740.752 -0.976234 751.74 5.01054C752.559 5.45637 757.567 9.04419 758.181 9.61739L758.233 9.59616Z" fill="black"/>
</svg>
