<svg width="382" height="571" viewBox="0 0 382 571" fill="none" xmlns="http://www.w3.org/2000/svg">
<path d="M253.438 13.5868C254.856 13.5977 256.302 13.6634 257.726 13.6032C265.847 13.2527 273.766 12.0808 281.959 12.3601C298.678 12.9296 331.739 19.0303 343.299 31.8778C355.008 44.8896 346.777 56.7349 348.677 71.6744C351.519 94.0617 369.378 112.336 376.951 132.916C394.848 181.546 359.181 233.265 362.171 283.248C362.987 296.9 370.013 308.926 371.957 322.737C374.684 342.113 369.098 358.651 369.947 377.731C370.467 389.439 373.2 400.962 374.065 412.632C376.338 443.42 370.834 474.98 363.529 504.76C359.767 520.105 351.234 551.249 336.591 559.119C320.567 567.727 307.38 553.297 293.935 557.908C291.033 558.905 287.807 561.128 284.888 562.41C263.06 571.971 247.907 570.75 225.607 564.513C207.803 559.535 195.438 562.897 178.532 561.112C175.833 560.827 172.892 559.464 169.924 559.436C157.898 559.31 149.639 568.795 137.865 570.509C126.589 572.152 117.876 567.897 107.154 567.256C83.118 565.811 64.2191 576.489 41.7223 561.282C25.5287 550.334 13.2781 524.902 9.47207 506.08C6.35603 490.67 9.12158 472.822 7.61559 456.974C7.80726 444.121 10.4742 431.498 11.7283 418.787C13.9462 396.356 1.44922 378.41 7.00771 354.922C8.61228 348.137 11.69 343.646 14.2639 337.54C25.1454 311.768 9.79517 300.651 8.45347 276.676C7.00771 250.844 18.8311 229.486 8.51919 203.912C2.22139 188.288 -0.697506 180.692 2.9826 163.19C6.09316 148.403 9.77327 138.573 8.85324 122.665C7.53892 99.9433 -6.0479 83.8045 3.20713 60.3274C10.9452 40.7111 33.6501 24.8407 53.9071 20.717C64.2246 18.614 75.2375 20.2679 84.9854 16.9164C88.0248 15.8704 90.8068 14.1454 93.7969 13.0063C105.407 8.59781 117.816 8.30209 130.034 9.87928C131.228 8.669 131.666 6.98777 132.958 5.79392C135.412 3.52124 148.987 0.361387 152.679 0.0711403C164.266 -0.84341 176.654 7.23968 185.559 13.9701C188.116 12.6175 190.969 13.0829 192.886 15.2516C194.748 13.647 196.665 11.7631 198.707 10.4105C205.323 6.02393 213.203 5.61868 220.755 3.72934C226.259 2.3493 231.155 -0.21363 237.195 0.0711403C243.077 0.350434 253.509 6.83443 253.427 13.5977L253.438 13.5868ZM199.26 17.2997C202.634 18.0774 206.013 19.0686 209.43 19.6491C217.863 21.0894 231.089 23.7673 238.969 21.1167C243.131 19.7148 247.825 16.4673 244.495 11.6536C238.898 3.55957 218.751 11.0895 211.467 14.1234L199.255 17.2943L199.26 17.2997ZM181.61 14.4356C180.044 13.9044 178.587 13.1815 176.999 12.6777C170.225 10.5474 153.035 8.27471 146.299 9.68213C143.079 10.3557 137.071 12.8365 138.314 16.9C143.675 20.2022 149.776 16.2373 155.247 15.3501C160.291 14.5342 165.269 15.8321 170.345 15.6733L181.61 14.4301V14.4356ZM119.24 66.7949C118.846 65.393 119.525 62.4577 119.24 60.8367C117.285 61.6253 112.192 67.6985 110.242 66.554C110.012 66.4171 109.99 65.4094 110.073 65.037C110.653 62.3482 115.516 53.3341 117.263 50.8533C124.508 40.5852 133.068 41.5161 143.44 37.6279C147.64 36.0507 151.162 33.3509 155.236 31.7737C162.405 28.9972 171.703 28.3127 177.694 23.0389C178.209 22.5844 181.605 18.9317 181.194 18.5319C174.65 22.4858 167.224 21.0948 160.176 22.338C154.267 23.3839 148.993 27.1955 142.816 26.7574C136.677 26.3193 130.784 22.5077 129.87 16.1059C118.632 15.0928 107.258 15.1201 96.3543 18.4224C88.6053 20.7717 84.6623 24.6326 75.9604 25.1254C68.9671 25.5252 64.3779 25.0816 57.1875 26.8614C40.5722 30.9796 20.3207 41.6038 11.6571 56.8609C-3.54521 83.6347 15.151 104.762 13.3877 131.701C12.2869 148.48 2.67592 166.656 4.80622 183.386C5.95078 192.379 10.7481 199.104 13.07 207.564C20.611 235.039 6.35603 260.148 12.0021 287.902C13.9736 297.59 19.6307 305.936 20.3645 316.089C21.8486 336.658 8.72181 347.074 8.02084 366.198C7.41844 382.539 16.4325 397.621 15.4194 413.853C14.5979 427.029 10.6769 440.769 10.0745 454.504C9.72946 462.319 10.7152 469.547 10.9288 477.094C11.2464 488.386 9.82256 498.041 13.4808 509.043C18.5628 524.338 30.4903 547.076 44.1866 555.937C66.1468 570.137 82.2144 560.164 105.106 561.501C118.796 562.3 129.108 569.556 143.259 564.814C157.706 559.973 165.74 556.167 181.824 555.362C215.525 553.675 249.451 571.183 281.192 557.892C291.509 553.571 296.405 549.847 308.607 550.844C318.699 551.671 323.004 558.576 333.814 551.829C345.501 544.535 349.383 531.271 353.43 518.889C364.964 483.6 369.92 446.519 366.678 409.346C365.342 394.045 362.653 379.752 363.375 364.144C363.759 355.913 366.174 347.879 366.672 339.928C368.008 318.685 358.272 303.581 357.242 283.248C354.444 228.068 391.759 180.944 367.981 126.695C358.359 104.746 340.074 90.0913 341.629 63.4982C342.204 53.701 348.732 40.6673 338.091 33.4002C331.689 29.0246 314.077 21.6808 306.443 19.4848C292.347 15.4323 273.202 16.6645 258.547 17.7214C257.129 17.8255 255.311 17.4914 254.035 17.7214C252.529 18.0007 252.49 20.5143 251.85 21.6972C245.147 34.0793 226.5 29.8187 215.246 27.3817C207.294 25.6621 200.744 22.9677 193.51 19.3643L193.466 20.8101C196.462 22.4092 198.954 25.6731 201.84 27.2557C206.807 29.9775 214.074 30.4375 219.78 33.5316C222.743 35.1417 225.054 37.617 227.852 39.4187C232.042 42.1131 236.691 43.1864 240.974 45.5851C249.84 50.5466 253.728 56.9375 258.41 65.508C259.051 66.6799 260.694 67.1947 258.213 68.1914L253.421 65.7873C253.58 70.2943 253.619 74.4399 249.55 69.0457C246.664 65.2178 244.741 59.9605 241.861 56.2037C237.792 50.9135 230.853 49.3966 225.24 46.1436C221.122 43.756 217.562 40.4373 213.072 38.6082C208.132 36.5929 202.804 36.9379 198.291 34.0957C194.512 31.7189 192.136 27.88 189.573 24.3752L186.506 24.5066C183.478 28.3346 178.439 32.398 174.086 34.6488C169.967 36.7791 165.022 37.9017 160.811 39.8458C157.689 41.2861 154.924 43.5533 151.928 44.9224C143.462 48.7942 134.327 48.148 128.079 56.7842C126.485 58.9857 123.156 67.5671 120.598 67.7862C120.16 67.8574 119.306 67.0742 119.234 66.8223L119.24 66.7949Z" fill="black"/>
</svg>
