<svg width="198" height="243" viewBox="0 0 198 243" fill="none" xmlns="http://www.w3.org/2000/svg">
<path d="M54.7069 83.3809C53.8086 77.6057 54.0606 77.927 54.0965 77.9629C54.1437 75.2779 54.1897 72.6719 54.3456 70.8718C54.7595 68.1064 56.0588 64.7999 57.5373 62.5653C58.4188 62.0003 60.7778 60.6084 65.0095 60.3453C69.8478 60.0444 75.4879 60.129 83.4686 61.8794C88.5769 62.9999 95.6526 64.8254 100.819 65.9949C105.985 67.1644 109.164 67.5771 111.15 68.0617C113.978 68.7519 116.538 70.189 126.33 74.7508C134.311 78.4683 148.105 84.7333 156.998 89.1474C165.89 93.5615 169.888 95.8929 172.674 98.2554C177.478 102.329 183.621 105.663 187.412 109.912C189.855 112.649 193.396 117.215 195.869 122.355C197.136 124.988 197.264 127.032 196.814 129.116C196.542 130.373 196.234 131.668 194.49 134.159C191.197 138.861 188.098 143.105 182.747 147.22C178.687 150.342 171.995 155.374 168.25 157.831C164.024 160.605 162.753 161.023 155.179 161.286C148.307 161.526 135.642 161.878 126.512 161.504C117.381 161.13 111.951 160.062 104.865 157.854C97.7785 155.647 89.1362 152.72 83.9555 149.983C76.4877 146.038 73.7157 144.186 72.8933 142C71.2183 137.55 68.3464 131.042 64.9753 122.817C63.1326 118.321 61.1906 113.15 59.295 105.624C57.3994 98.0981 55.507 88.525 54.7069 83.3809Z" fill="#F4F0CD"/>
<path d="M190.713 114.852C184.77 109.084 176.162 106.318 168.571 103.148C165.073 101.688 161.245 100.576 157.841 99.0321C152.093 96.4234 147.057 93.4688 140.963 91.2462C137.632 90.0342 125.606 87.073 123.817 85.2466C121.675 83.0609 126.305 83.7693 127.365 83.9607C133.634 85.0888 141.913 88.6409 147.94 91.0649C156.86 94.6507 166.62 98.6393 175.289 102.722C181.181 105.498 187.01 109.205 191.841 113.6C192.257 113.979 193.678 115.262 193.651 115.732C190.807 119.472 188.537 123.481 185.063 126.694C179.758 131.599 172.039 137.172 165.109 139.207C161.131 140.375 156.699 141.654 152.684 142.635C149.743 143.353 142.618 144.072 140.647 145.693C139.563 146.586 139.234 148.033 138.149 148.608V148.96C140.228 151.065 138.861 154.137 137.149 155.987C137.307 156.92 142.86 159.747 143.901 160.577C146.19 162.4 147.023 165.526 148.598 167.963C150.921 171.559 154.339 175.655 156.135 179.556C157.78 183.135 156.326 185.247 153.15 186.912C148.806 189.192 144.28 189.42 140.795 185.593L134.362 171.508L133.842 171.67C132.915 173.372 131.421 174.315 130.461 176.038C127.634 181.121 131.247 184.351 130.837 189.511C130.652 191.871 129.356 193.849 128.826 196.041C129.847 197.827 131.163 199.633 132.721 200.98C136.619 204.341 139.845 204.186 141.641 209.927C143.743 216.639 143.045 233.238 138.381 238.865C134.98 242.964 126.529 243.914 122.665 240C119.741 237.038 123.41 237.293 125.687 236.481C127.151 235.957 129.078 235.178 130.414 234.413C133.234 232.798 138.072 227.664 138.156 224.263C138.207 222.172 136.726 218.428 134.617 217.589C133.996 220.305 131.2 220.003 128.957 219.852C118.002 219.113 97.5383 210.206 89.3261 202.863C86.5629 200.392 82.7086 194.916 88.5169 193.486C94.3252 192.056 100.117 193.919 105.814 193.426C111.314 192.949 115.03 185.136 116.994 180.698C116.749 180.348 116.541 180.308 116.132 180.312C110.246 180.352 95.8394 183.313 90.6657 186.066C85.8444 188.631 86.15 193.768 84.4175 198.193C82.6851 202.618 81.594 195.772 81.3589 194.218C79.8481 184.24 87.7984 179.348 96.7426 178.801C102.225 178.465 106.496 178.488 111.915 176.863C118.27 174.956 118.7 172.442 119.731 166.304C120.412 162.252 120.765 158.106 121.302 154.026C121.594 151.827 122.709 150.917 120.355 149.141C115.265 145.3 108.964 144.381 104.549 138.774C102.715 136.447 103.689 134.114 105.045 131.713C109.309 124.159 122.209 128.997 127.55 133.127C132.892 137.256 134.033 142.994 135.128 149.343L137.381 148.843C136.971 147.768 136.498 147.523 136.642 146.227C137.031 142.739 140.698 140.489 143.669 139.402C142.034 139.355 135.749 135.849 135.406 134.577C135.289 134.137 135.417 133.986 135.762 133.748C138.022 134.339 140.03 135.567 142.219 136.323C143.652 136.82 146.476 137.182 147.429 137.652C148.148 138.005 148.138 138.989 148.349 139.046C150.951 138.817 153.352 137.652 155.806 136.944C160.023 135.725 163.683 135.097 167.55 132.834C174.05 129.027 183.313 122.886 189.071 118.116C189.306 117.921 190.777 116.877 190.465 116.618C189.864 116.652 189.283 116.628 188.692 116.504C181.04 114.882 173.526 112.25 166.395 109.108C154.691 103.947 142.977 98.6795 131.592 92.8276C126.026 89.9671 119.875 87.2576 115.746 82.5002C115.252 82.2585 114.681 82.4431 114.174 82.3088C94.2749 77.0377 75.9602 66.7338 57.5079 57.9475C56.5041 65.6259 55.7486 72.7234 57.5012 80.3649C58.6058 85.1794 60.9157 89.0505 63.7191 93.0257C64.7465 94.4794 70.0713 100.536 69.692 101.852C68.9399 102.947 66.9557 101.261 66.1868 100.63C62.6045 97.6958 55.9199 87.5732 54.7448 83.1247C52.6733 75.265 52.2368 67.3986 53.3951 59.3677C53.5932 58.0012 53.5999 54.2745 55.423 54.4692C60.5833 55.0198 72.1496 62.1241 77.4173 64.7093C87.3956 69.6044 98.2098 74.6875 109.141 77.0243C109.393 77.078 110.259 77.3063 110.212 76.8363C99.4587 71.733 88.8627 66.1698 77.931 61.4291C71.7232 58.7365 63.8198 55.3656 57.189 54.2409C56.0441 54.0462 53.3347 54.5968 53.8953 52.5891C54.587 50.1079 61.8927 52.3977 63.5512 52.908C73.8383 56.0707 85.6799 61.879 95.5406 66.4652C100.144 68.6072 105.025 70.7459 109.464 73.1767C112.549 74.8688 118.727 78.1893 121.258 80.2541C121.802 80.6973 122.665 81.3285 122.172 82.1275C121.678 82.9266 118.811 82.5942 119.019 83.5007C121.107 86.6332 124.764 87.1301 127.99 88.6241C130.736 89.8966 133.449 91.723 136.202 92.9921C144.707 96.9102 153.335 100.677 161.863 104.575C171.059 108.779 180.658 113.284 190.713 114.852ZM113.355 131.364C112.731 131.357 108.95 131.444 108.957 132.103C112.334 135.514 116.783 134.923 121.158 134.245C121.577 134.181 121.973 134.365 122.282 133.865C119.727 132.052 116.447 131.391 113.355 131.364ZM128.322 148.091C126.942 143.414 121.174 141.147 117.092 139.062C114.903 137.944 110.552 135.561 108.46 134.862C108.124 134.752 107.795 134.711 107.443 134.748C107.402 136.293 109.333 137.118 110.481 137.874C114.201 140.321 118.499 142.873 122.366 145.116C123.145 145.566 127.909 148.409 128.322 148.091ZM131.592 145.072C131.468 140.959 126.815 138.173 123.102 137.582C122.652 137.511 120.416 137.246 120.275 137.646C122.004 138.646 124.018 139.163 125.687 140.281C127.355 141.399 129.125 144.055 130.448 144.834C130.847 145.069 131.126 145.139 131.592 145.072ZM133.795 148.158C132.946 147.127 130.293 149.712 130.082 150.729C130.166 151.119 132.7 151.67 133.288 152.062C133.781 152.388 134.275 153.462 134.711 153.368L135.87 151.367L133.872 151.351C133.825 150.219 134.389 149.259 133.795 148.158ZM118.008 197.951C117.303 197.256 120.281 191.337 120.825 190.32C121.097 189.816 121.879 189.048 121.98 188.705C122.239 187.815 121.752 186.922 121.772 186.002C121.923 179.422 125.267 177.928 127.362 172.942C128.708 169.739 129.299 165.959 131.018 162.819C130.122 161.658 128.776 160.845 128.138 159.482C127.181 157.434 127.772 154.876 126.613 152.952C126.321 152.469 125.529 151.428 125.66 152.643C126.019 155.97 125.539 158.552 125.811 161.56C126.147 165.287 127.476 166.271 126.187 170.505C125.23 173.65 123.363 174.819 121.937 177.33C120.127 180.513 118.643 185.093 117.048 188.551C116.078 190.656 115.094 192.778 113.99 194.819C112.633 193.976 112.321 195.222 111.075 195.413C108.52 195.809 104.209 196.054 101.53 196.182C99.9019 196.259 89.7793 195.947 89.3328 196.437C89.504 197.36 90.1386 198.243 90.7127 198.955C94.5938 203.776 107.557 210.239 113.543 212.113C117.941 213.489 122.527 214.292 126.956 215.561C127.554 215.685 127.325 215.165 127.204 214.806C126.872 213.835 126.053 212.784 125.633 211.848C124.048 208.322 122.524 203.229 123.619 199.402C123.857 198.569 125.193 196.692 125.21 196.313C125.234 195.796 123.961 192.566 123.598 191.979C123.397 191.65 123.3 191.196 122.924 191.656C121.98 192.801 120.436 197.448 119.093 197.894C118.754 198.008 118.364 197.945 118.015 197.948L118.008 197.951ZM151.703 183.827C152.23 183.068 144.686 173.892 143.813 172.499C141.258 168.423 140.228 163.091 135.873 160.432C136.555 164.619 136.394 168.822 137.941 172.838C138.918 175.369 143.333 182.974 145.301 184.609C147.268 186.244 149.79 184.72 151.703 183.827ZM145.932 170.756C145.25 168.668 144.32 166.412 142.917 164.713C143.652 166.731 144.381 169.246 145.932 170.756ZM126.56 191.905C127.48 188.759 127.305 185.203 126.435 182.084C125.432 184.774 125.119 188.071 125.992 190.84C126.09 191.146 126.18 191.905 126.56 191.905ZM90.5885 182.846C88.7755 183.605 86.8752 184.915 85.5557 186.368L88.3021 184.713L90.5885 182.85V182.846ZM139.64 219.1C139.741 218.418 140.245 217.827 140.345 217.149C140.553 215.752 138.885 211.519 138.089 210.209C137.115 208.601 130.085 201.067 128.547 200.12C128.235 199.926 127.993 199.63 127.567 199.717C128.685 201.487 129.853 203.259 130.881 205.086C132.902 208.672 134.047 212.308 137.481 214.846L139.637 219.103L139.64 219.1ZM129.578 210.038L127.745 205.959L126.815 201.228C126.002 204.428 126.775 208.084 129.578 210.038Z" fill="black"/>
<path d="M61.238 126.355C61.4125 126.523 65.3474 128.275 65.663 128.346C67.1839 128.695 69.7288 127.916 69.7087 130.216C72.4853 129.01 74.3486 128.56 76.3496 131.243C79.6365 135.651 76.0811 138.391 76.8063 141.866C77.1722 143.625 79.9051 147.426 80.8184 149.433C81.9834 151.992 84.3033 157.669 82.2855 160.056C81.275 161.255 77.1286 162.151 75.423 162.756C73.6268 163.394 71.9984 164.807 69.9538 164.461C70.9073 167.795 74.2714 169.447 76.7492 171.633C78.0921 172.814 80.9829 175.124 81.4059 176.79C82.5407 181.252 77.79 186.399 77.4979 190.777C77.2293 194.839 81.0299 199.214 79.8313 203.182C79.4519 204.435 77.9008 207.554 76.87 208.275C75.1678 209.464 73.8786 209.729 72.361 211.569C71.9078 212.116 70.491 215.161 69.5643 213.822C68.6377 212.482 69.7893 208.517 69.9471 206.889C70.548 200.634 67.9696 195.705 69.6315 189.702C70.4372 186.795 73.7779 181.436 73.0997 178.807C72.8412 177.8 71.0953 175.578 70.3298 174.782C70.0679 174.51 69.8866 174.194 69.4468 174.285C68.7048 180.909 58.777 178.7 54.3049 177.73C44.5147 175.608 35.2583 170.907 27.9325 164.089C25.4111 161.742 22.6781 159.069 27.7411 157.592C28.7584 157.297 30.8198 156.941 31.8338 156.961C32.522 156.974 33.9355 157.122 33.7307 158.032C33.5696 159.526 29.3963 159.227 28.4428 160.308C32.9249 163.833 36.692 167.389 42.0302 169.618C48.0299 172.123 56.3596 175.994 62.7891 175.554C66.452 175.302 66.7542 175.098 64.874 171.938C63.3766 169.42 61.154 167.553 59.3914 165.341C58.8811 164.7 56.6517 161.809 58.7367 161.947C60.3012 162.051 64.6726 167.741 66.0558 168.997C66.6232 169.108 66.3781 168.759 66.4654 168.41C66.9187 166.613 66.9086 164.74 67.9024 163.031L67.6943 162.574C64.2966 162.668 61.9061 157.898 61.6408 155.037C61.3454 151.871 62.873 148.913 61.3958 146.09C61.201 145.938 60.8586 146.654 60.7679 146.845C59.7808 148.923 58.6293 153.059 58.1995 155.356C57.9074 156.927 57.9242 160.459 57.0882 161.544C56.316 162.544 55.5203 161.436 55.3726 160.557C55.0267 158.502 56.0239 152.405 56.5846 150.216C57.1453 148.027 60.8082 140.902 60.6403 139.694C60.5665 139.163 60.1334 138.854 60.1837 138.226C60.2542 137.357 62.5876 134.171 62.1512 133.754C61.6375 133.734 61.1305 133.707 60.6303 133.865C58.5655 134.513 56.1078 143.148 54.3989 145.022C55.5001 149.041 56.9841 152.68 54.3989 156.588C52.9116 158.841 49.6818 159.012 47.1671 158.942C44.236 158.858 42.4331 157.629 39.811 156.991C36.0608 156.078 25.072 155.473 21.3788 156.276C17.6857 157.078 14.9863 161.47 13.6534 164.911C13.3244 165.761 12.062 170.568 11.8102 170.743C10.7761 171.461 10.1819 169.299 10.0946 168.608C9.37273 162.924 12.3306 154.272 17.5379 151.424C23.7894 148.007 27.4188 148.52 34.1 148.859C38.9481 149.104 44.6289 147.859 49.0472 145.949C49.6616 142.443 49.5475 138.589 51.8406 135.651C53.1097 134.023 54.8925 133.113 56.363 131.743L51.206 132.495C49.7489 132.213 47.8721 131.878 46.6265 131.035C44.8034 129.803 44.4039 125.777 43.8701 125.425C42.2787 124.381 36.2991 128.181 37.0512 123.615C37.6555 119.966 44.4643 113.278 48.1172 112.28C54.7447 110.471 54.0061 116.457 55.6009 120.795C56.5947 123.494 57.7966 122.662 59.5156 123.927C60.2677 124.481 60.6403 125.804 61.2279 126.368L61.238 126.355ZM52.8478 122.662C52.9754 122.208 52.4919 122.067 52.4046 121.721C52.0924 120.436 52.5792 118.176 50.8367 117.877C50.4674 118.31 51.8976 122.383 52.8444 122.662H52.8478ZM55.6177 128.45C55.8997 128.077 51.9413 126.512 51.5888 126.318C49.0976 124.924 49.5508 123.729 48.2716 121.58C46.2639 118.203 42.1444 117.229 41.7784 122.158C43.0173 122.232 45.0049 122.279 45.9349 123.162C47.1973 124.354 46.9723 126.818 48.5872 128.064C50.7897 129.762 53.1701 129.061 55.6143 128.453L55.6177 128.45ZM74.174 133.043C73.6436 132.563 70.3399 132.445 70.2089 133.117C71.3706 134.886 70.5615 137.622 71.0785 139.294C71.3874 140.301 73.5227 141.5 73.7376 142.803C74.1505 142.87 73.9827 142.474 73.9558 142.208C73.892 141.53 73.6134 139.502 73.422 138.962C73.1333 138.139 71.9749 138.226 72.9755 137.135C73.3783 136.699 74.4762 136.413 74.2278 135.641C74.1035 135.252 72.2872 134.96 74.4729 133.617C74.3151 133.472 74.2949 133.153 74.174 133.043ZM64.9949 135.829C63.8064 136.826 63.7762 139.462 63.944 140.892C64.2294 143.306 66.0525 146.596 66.1666 149.01C66.2405 150.552 65.6261 152.472 65.9853 154.208C66.086 154.698 68.0569 158.911 68.3187 158.918C69.5543 157.34 68.9533 155.222 69.6483 153.456C70.491 151.307 72.1697 151.938 71.6929 148.497C71.3337 145.905 68.3959 143.353 67.8084 141.053C67.4592 139.694 68.3221 135.483 66.5225 135.319C66.217 135.292 65.2333 135.631 64.9949 135.833V135.829ZM78.5118 151.868C77.8907 150.474 77.3199 149.034 76.4504 147.765C76.2791 147.513 75.3021 146.002 74.9899 146.335C75.3189 147.731 74.8825 149.403 74.5669 150.82C74.08 153.002 72.445 156.256 72.2402 158.065C71.9347 160.758 74.2613 159.489 75.8729 158.928C77.649 158.31 79.7776 157.757 79.2639 155.4L74.7381 156.907C73.8383 155.977 78.5521 154.043 79.0121 153.509C77.8 153.358 76.8835 154.547 75.4935 154.137C74.7448 153.402 77.9108 151.921 78.5118 151.868ZM50.5748 149.108C44.8572 151.022 39.2268 152.509 33.1029 152.119C29.3997 151.884 27.5665 150.881 23.6115 151.941C23.2254 152.046 22.2719 152.193 22.1577 152.623C22.7789 152.66 23.4201 152.566 24.0412 152.63C27.9963 153.029 32.3878 153.613 36.3394 154.171C39.7774 154.654 45.2063 156.377 48.4294 155.886C51.1053 155.477 51.4746 151.166 50.5748 149.111V149.108ZM75.1846 207.463C75.3861 206.509 75.8527 205.573 75.9703 204.596C76.6182 199.126 73.15 194.772 74.9194 188.688C75.6278 186.261 78.6797 181.054 78.5286 178.942C78.4346 177.653 74.953 173.654 73.8517 172.778C73.6201 172.593 72.6834 171.834 72.4752 172.019C75.3458 175.181 76.9641 178.542 75.6144 182.836C74.5971 186.07 71.5016 190.102 72.032 193.486C72.2939 195.155 73.5429 197.025 73.7342 198.831C74.0498 201.792 73.291 204.848 72.9788 207.772L75.1846 207.463Z" fill="black"/>
<path d="M120.523 98.4882C121.413 98.0249 121.816 96.6886 123.018 96.9975C123.558 97.3601 123.884 105.371 124.048 106.667C124.354 109.114 125.197 111.76 125.391 114.147C125.415 114.422 125.693 115 125.173 115.104C124.293 115.279 123.404 110.749 122.971 110.011L120.775 101.258C120.832 109.83 123.236 119.455 127.433 126.946C129.326 130.323 132.146 132.824 134.033 136.135L133.479 136.692C132.452 136.283 131.613 135.648 130.827 134.883C123.363 127.6 120.674 120.254 119.053 110.155C118.109 104.28 117.683 98.3203 116.743 92.4449C116.273 92.3475 116.192 92.4785 115.883 92.7168C115.081 93.3312 114.114 94.7884 113.227 95.5975C110.437 98.1458 104.639 103.655 101.466 104.978C97.2697 106.727 91.4647 107.355 86.9322 107.553C85.8847 107.6 79.4989 107.805 79.7742 106.197C80.8284 105.099 82.816 104.934 84.2866 104.656C88.5505 103.847 92.9923 103.659 97.2193 102.997C102.511 102.168 111.173 94.2915 115.108 90.4338C116.35 89.2184 117.021 87.1267 119.136 87.1368C119.539 87.1368 120.516 87.3886 120.516 87.7915V98.4949L120.523 98.4882Z" fill="black"/>
<path d="M50.3969 18.2159C49.9638 18.9512 50.8032 21.1167 50.5346 22.265C50.4003 22.8391 49.9739 23.0473 49.7321 23.4737C49.4065 24.0511 49.665 24.8065 48.688 24.961C46.227 25.3538 46.2304 22.4127 45.8745 20.7374C44.8673 15.9564 45.5522 11.8738 45.3138 6.94513C45.2164 4.92397 43.4034 -0.733259 47.1335 0.0792334C48.547 0.388115 48.3758 1.67064 48.8559 2.64094C49.0573 3.04718 49.6516 3.29899 49.7791 3.73209C50.0679 4.69567 49.7422 6.73026 49.8597 7.93221C50.0578 9.95337 51.8473 16.1511 51.1557 17.6049C50.9576 18.0246 50.4674 18.0884 50.3936 18.2159H50.3969Z" fill="black"/>
<path d="M16.2991 15.6979C16.6482 15.5938 17.1384 15.577 17.4977 15.6475C19.0656 15.953 25.3674 24.36 26.6969 26.0857C27.1502 26.6766 27.9056 27.1466 28.3085 27.7476C28.9666 28.7246 30.192 31.7194 29.5642 32.7468C28.0768 35.1809 23.7424 31.8235 22.282 30.5074C19.0286 27.5831 18.9145 25.4948 17.2324 21.9628C16.6079 20.6467 14.5163 18.7598 14.9662 17.1483C15.0702 16.7722 15.9264 15.8087 16.3024 15.6945L16.2991 15.6979Z" fill="black"/>
<path d="M108.631 11.6556C109.423 11.5313 110.545 12.5856 110.676 13.3141C110.84 14.2341 110.206 14.5161 110.092 15.1103C110.071 15.2144 110.001 16.9099 110.018 17.0039C110.129 17.6552 111.844 18.0011 111.085 19.6697C109.266 21.3618 107.218 22.8592 105.421 24.5749C103.884 26.0421 103.484 27.9692 100.701 27.0526C99.9455 26.8042 99.6971 26.22 99.405 26.1092C99.0659 25.9816 98.1627 26.5457 98.1392 25.6123C98.1124 24.5077 101.829 19.0385 102.709 17.8332C103.588 16.6279 107.305 11.8637 108.631 11.6556Z" fill="black"/>
<path d="M73.9894 19.1695L73.6033 19.9249L73.0191 19.3474C74.0767 16.5137 74.9865 13.623 76.0576 10.7961C77.1286 7.96914 78.4447 4.20885 79.7977 1.69751C80.355 0.663426 81.1071 -0.159139 82.3594 0.582848C83.3935 1.20061 82.8395 1.96274 82.91 2.67787C83.192 5.46116 82.2721 6.64968 81.6006 9.2886C80.9292 11.9275 80.0092 17.662 78.955 19.7369C77.7799 22.0501 75.2887 20.4083 73.986 19.1627L73.9894 19.1695Z" fill="black"/>
<path d="M16.0573 46.8009C15.5336 47.2944 14.3249 46.9889 14.1369 47.1467C13.9791 47.2776 14.1805 48.4259 13.1196 48.7683C11.0347 49.4432 1.81857 47.7577 0.408461 46.1025C-0.578616 44.9409 0.3581 43.2185 1.78164 43.0809C-0.239518 38.3604 7.16692 40.7542 9.39624 41.6405C10.343 42.0166 11.1891 42.7317 12.0385 43.0271C13.4587 43.5207 16.5106 43.1715 16.6281 45.2498C16.6482 45.5889 16.2856 46.5927 16.0607 46.8009H16.0573Z" fill="black"/>
<path d="M129.397 32.8341C129.212 33.1195 129.286 33.8917 128.826 34.2744C130.038 33.7104 133.671 34.073 132.472 36.0404C131.848 37.0678 125.633 38.498 124.099 38.9916C122.43 39.5288 119.472 41.3821 117.814 40.6602C117.468 40.5091 117.444 40.123 117.24 39.9652C116.9 39.7134 116.484 39.6933 116.232 39.3911C115.003 37.9038 116.457 37.2122 117.011 35.9263C120.127 34.5497 122.84 32.3842 125.969 31.0446C127.318 30.4671 130.501 28.8824 130.36 31.6355C130.307 32.7099 129.615 32.4984 129.397 32.8375V32.8341Z" fill="black"/>
<path d="M150.139 117.699C150.297 117.83 150.354 118.216 150.572 118.381C151.327 118.952 153.399 119.009 154.487 119.257C158.163 120.093 161.789 121.154 165.559 121.52L165.804 122.403C156.582 125.22 147.275 120.271 139.66 115.463C138.401 114.668 133.14 111.162 132.583 110.209C132.254 109.642 132.083 108.732 133.009 109.017C135.561 109.806 138.62 112.519 140.973 113.895C142.256 114.644 146.627 117.125 147.772 117.437C148.598 117.662 149.39 117.078 150.135 117.699H150.139Z" fill="black"/>
<path d="M77.5046 107.805C77.6792 109.024 77.3905 109.809 76.9305 110.88C75.8159 113.466 73.7578 116.111 72.5122 118.797C71.599 120.768 70.1083 126.167 68.5807 127.197C68.1173 127.51 67.5264 127.728 66.959 127.691C66.536 126.828 66.7878 126.227 67.0195 125.381C67.6439 123.074 71.1726 114.154 72.4853 112.472C73.0662 111.726 73.9626 111.048 74.6206 110.33C75.4734 109.396 76.0106 107.607 77.508 107.808L77.5046 107.805Z" fill="black"/>
<path d="M66.6871 94.7111C66.3312 94.7379 66.0223 94.7379 65.6865 94.5801C63.746 93.6602 58.918 83.2119 58.9079 80.9558C58.9012 79.9418 59.8581 78.8439 60.9022 79.4785C61.2313 79.6799 61.98 81.2378 62.2049 81.7011C63.5177 84.3937 65.3239 88.9531 66.1902 91.8136C66.489 92.7973 66.865 93.6233 66.6871 94.7144V94.7111Z" fill="black"/>
<path d="M99.3916 93.7073C100.05 94.6843 96.3028 95.8124 95.685 95.9097C90.2024 96.7659 85.2804 93.0627 80.3316 91.3772L80.0227 89.675C80.2644 89.4232 84.0079 91.2329 84.666 91.4444C89.2119 92.9015 94.6711 92.9217 99.3916 93.7073Z" fill="black"/>
<path d="M69.6113 105.055C70.0747 104.897 70.5648 105.129 70.8334 105.529C69.9068 109.527 68.0401 113.241 66.8717 117.182C66.4285 118.683 65.0856 125.613 64.1723 126.069C63.4102 126.449 62.5641 125.824 62.4802 125.025C62.4366 124.629 62.7354 123.917 62.8495 123.477C63.991 119.136 66.405 114.073 67.9494 109.699C68.2214 108.926 69.1413 105.213 69.6113 105.055Z" fill="black"/>
<path d="M57.8839 174.533C57.2896 174.604 56.7424 174.507 56.1682 174.362C53.6938 173.748 49.7354 171.612 47.1267 170.568C45.7368 170.011 41.4594 168.853 40.6402 167.997C39.9419 167.268 40.187 166.811 41.1472 166.711C43.8096 166.429 52.3039 170.172 54.8689 171.633C55.4833 171.982 58.7467 173.657 57.8839 174.533Z" fill="black"/>
<path d="M134.107 130.971C133.392 131.7 129.467 127.456 128.974 126.67C128.48 125.885 126.449 121.194 126.832 120.671C127.389 120.436 127.624 120.389 128.154 120.677C129.471 121.389 134.923 130.138 134.107 130.971Z" fill="black"/>
<path d="M126.791 96.4905C127.191 98.8374 127.409 101.201 127.94 103.528C128.695 106.835 130.216 109.95 130.582 113.345C129.497 113.563 129.205 111.982 128.886 111.142C127.651 107.906 125.63 99.9017 126.053 96.6215L126.791 96.4905Z" fill="black"/>
<path d="M49.0103 159.727C50.1484 159.486 54.6843 161.04 55.245 161.937C55.7419 162.732 55.057 163.347 54.231 163.34C53.3447 163.333 48.4932 161.181 48.1911 160.432C48.0131 160.053 48.7719 159.778 49.0103 159.727Z" fill="black"/>
<path d="M58.27 66.7607C59.9856 66.3746 60.1736 73.771 58.7602 74.0597C57.4541 74.3283 57.5179 68.755 57.6489 67.9089C57.7194 67.4557 57.9007 67.0461 58.27 66.7607Z" fill="black"/>
<path d="M77.7295 106.016C75.4834 106.267 73.1165 105.351 71.3303 104.035L71.4982 103.299C72.0488 102.954 76.4772 104.102 77.1856 104.471C77.8605 104.82 78.0686 105.351 77.7262 106.016H77.7295Z" fill="black"/>
<path d="M70.2124 113.341C69.7457 112.042 70.2459 110.427 70.6455 109.121C70.9174 108.231 71.0081 106.946 72.0623 107.328C72.4753 107.476 72.4887 107.795 72.4853 108.168C72.4753 108.94 71.7031 114.355 70.2124 113.341Z" fill="black"/>
<path d="M68.9499 116.618C69.6785 117.693 68.0737 123.336 66.5662 122.913C65.7604 122.685 66.7945 120.405 67.0026 119.831C67.1672 119.375 68.312 116.162 68.9499 116.622V116.618Z" fill="black"/>
<path d="M32.2468 161.463C33.338 160.416 36.6249 162.594 35.3692 163.709C34.1135 164.824 31.6895 162.286 32.2468 161.463Z" fill="black"/>
<path d="M121.913 93.4521C122.779 93.2473 123.605 95.9231 122.658 96.4737C121.423 96.0507 120.808 94.3485 121.913 93.4521Z" fill="black"/>
<path d="M126.556 116.87C126.58 117.417 128.027 119.596 127.184 119.888C126.717 120.049 126.18 118.498 126.113 118.196C126.016 117.736 125.771 116.638 126.553 116.87H126.556Z" fill="black"/>
<path d="M115.94 210.592L115.994 211.546C115.366 211.582 114.772 211.394 114.181 211.22C108.077 209.434 102.561 205.814 97.3569 202.373C96.5713 201.853 91.8609 199.291 91.646 198.902C91.4983 198.633 91.6191 198.25 91.5923 197.948C92.2671 197.914 92.8446 198.24 93.4422 198.489C97.4677 200.15 101.987 203.045 105.928 205.129C109.282 206.902 112.905 208.208 115.944 210.589L115.94 210.592Z" fill="black"/>
<path d="M108.51 195.997C108.819 195.729 109.988 195.591 110.387 195.873C112.556 197.438 115.648 198.388 117.79 199.805C118.253 200.11 118.848 200.325 118.666 200.976C117.824 204.015 111.085 200.976 109.575 199.717C108.668 198.962 107.389 196.964 108.51 195.997Z" fill="black"/>
</svg>
