<svg width="310" height="312" viewBox="0 0 310 312" fill="none" xmlns="http://www.w3.org/2000/svg">
<path d="M97.1839 158.677C92.5404 155.128 92.9446 155.186 92.9953 155.187C91.1722 153.215 89.4027 151.301 88.27 149.893C86.6562 147.61 85.3072 144.323 84.8291 141.687C85.0749 140.669 85.8157 138.032 88.6896 134.915C91.9755 131.351 96.1071 127.511 103.081 123.254C107.545 120.53 113.918 116.954 118.457 114.225C122.997 111.496 125.579 109.594 127.348 108.571C129.868 107.113 132.71 106.38 142.938 102.901C151.272 100.065 165.568 95.0474 175.043 92.084C184.518 89.1205 189.018 88.0384 192.664 87.8175C198.951 87.4366 205.693 85.5949 211.37 86.0405C215.028 86.3276 220.743 87.1752 226.085 89.1768C228.821 90.202 230.327 91.5893 231.443 93.4054C232.117 94.5015 232.791 95.6494 233.254 98.6547C234.128 104.328 234.826 109.537 233.808 116.21C233.036 121.273 231.683 129.536 230.679 133.901C229.546 138.827 228.917 140.008 223.63 145.437C218.833 150.364 209.93 159.379 203.078 165.425C196.226 171.47 191.566 174.456 184.921 177.763C178.277 181.07 170.011 184.935 164.377 186.542C156.255 188.859 152.972 189.439 150.866 188.429C146.578 186.374 140.003 183.661 131.878 180.053C127.438 178.081 122.458 175.69 115.883 171.566C109.309 167.443 101.32 161.838 97.1839 158.677Z" fill="#E4B8AF"/>
<path d="M217.171 87.3249C208.89 87.2702 200.76 91.227 193.085 94.1892C189.549 95.5545 186.016 97.3995 182.489 98.6391C176.534 100.731 170.853 102.081 164.915 104.691C161.672 106.12 150.938 112.3 148.383 112.219C145.324 112.122 149.157 109.431 150.056 108.836C155.363 105.314 163.799 102.153 169.828 99.7344C178.75 96.1532 188.558 92.2823 197.642 89.2341C203.818 87.1634 210.591 85.8084 217.12 85.6402C217.683 85.6262 219.596 85.5701 219.901 85.9281C220.435 90.5961 221.569 95.061 221.282 99.7851C220.844 106.997 219.125 116.361 215.528 122.624C213.464 126.219 211.148 130.209 208.926 133.694C207.299 136.248 202.651 141.695 202.35 144.229C202.184 145.624 202.948 146.897 202.562 148.061L202.806 148.316C205.763 148.399 206.901 151.562 206.944 154.083C207.704 154.648 213.669 152.848 214.995 152.727C217.909 152.459 220.673 154.141 223.496 154.812C227.661 155.801 232.963 156.395 236.958 157.97C240.622 159.417 241.033 161.947 239.891 165.347C238.331 169.998 235.22 173.294 230.056 172.94L215.668 167.219L215.404 167.695C215.912 169.566 215.486 171.28 215.984 173.189C217.458 178.815 222.301 178.648 225.575 182.658C227.074 184.49 227.506 186.815 228.64 188.765C230.612 189.349 232.812 189.743 234.869 189.638C240.008 189.368 242.232 187.025 247.5 189.929C253.66 193.321 264.638 205.792 265.163 213.081C265.542 218.394 260.097 224.926 254.598 224.772C250.438 224.656 253.265 222.302 254.346 220.141C255.041 218.75 255.894 216.854 256.33 215.377C257.249 212.26 257.192 205.206 254.9 202.692C253.489 201.147 249.831 199.468 247.728 200.32C249.158 202.711 246.929 204.427 245.205 205.87C236.783 212.914 215.843 220.637 204.834 221.015C201.129 221.142 194.558 219.854 197.763 214.803C200.968 209.752 206.44 207.092 210.213 202.794C213.854 198.646 211.134 190.433 209.482 185.869C209.064 185.786 208.885 185.901 208.592 186.187C204.37 190.287 196.014 202.391 194.182 207.958C192.475 213.146 196.249 216.644 198.059 221.038C199.868 225.432 194.345 221.243 193.1 220.283C185.107 214.122 187.464 205.09 193.545 198.508C197.272 194.473 200.372 191.536 203.162 186.614C206.432 180.84 205.003 178.727 201.502 173.582C199.191 170.184 196.577 166.946 194.144 163.629C192.833 161.838 193.009 160.41 190.081 160.756C183.748 161.503 178.561 165.198 171.494 164.203C168.561 163.79 167.65 161.432 166.969 158.76C164.823 150.355 177.485 144.926 184.199 144.214C190.913 143.501 195.706 146.855 200.888 150.683L202.169 148.763C201.13 148.27 200.619 148.421 199.827 147.385C197.695 144.597 198.787 140.436 200.18 137.595C198.967 138.692 192.003 140.508 190.876 139.826C190.486 139.59 190.474 139.393 190.559 138.981C192.599 137.845 194.899 137.344 197.003 136.375C198.382 135.742 200.672 134.051 201.685 133.731C202.448 133.488 203.121 134.206 203.313 134.101C205.035 132.136 205.962 129.634 207.245 127.425C209.447 123.628 211.655 120.643 212.883 116.333C214.944 109.088 217.385 98.2456 218.243 90.8173C218.278 90.5141 218.618 88.7428 218.214 88.7721C217.803 89.2121 217.367 89.5969 216.855 89.9159C210.207 94.0376 202.96 97.3343 195.637 99.9977C183.615 104.367 171.512 108.666 159.242 112.315C153.243 114.1 146.927 116.398 140.654 115.819C140.131 115.986 139.846 116.514 139.387 116.768C121.371 126.726 101.017 131.954 81.6138 138.373C86.2002 144.612 90.5642 150.26 97.1157 154.566C101.244 157.279 105.59 158.477 110.364 159.408C112.111 159.747 120.146 160.438 120.783 161.651C120.997 162.961 118.398 163.117 117.406 163.193C112.789 163.552 100.96 160.866 97.0341 158.466C90.1014 154.223 84.3448 148.844 79.626 142.243C78.8239 141.119 76.2508 138.423 77.7021 137.303C81.8095 134.131 95.0764 131.261 100.669 129.484C111.261 126.117 122.586 122.307 132.097 116.433C132.316 116.297 133.1 115.863 132.741 115.556C121.445 119.309 109.944 122.621 98.7708 126.76C92.4252 129.109 84.386 132.142 78.8195 135.916C77.858 136.568 76.2822 138.84 75.2983 137.002C74.0815 134.732 80.9413 131.332 82.4921 130.553C92.1087 125.721 104.678 121.724 114.971 118.215C119.777 116.578 124.782 114.746 129.669 113.431C133.067 112.519 139.825 110.643 143.082 110.383C143.781 110.327 144.841 110.186 145.037 111.105C145.233 112.023 142.933 113.766 143.71 114.277C147.385 115.095 150.369 112.924 153.733 111.771C156.596 110.791 159.819 110.233 162.685 109.245C171.537 106.192 180.373 102.944 189.228 99.8598C198.777 96.5343 208.825 93.1483 217.171 87.3249ZM172.728 152.76C172.273 153.187 169.603 155.865 170.063 156.336C174.862 156.463 177.666 152.959 180.356 149.443C180.615 149.106 181.029 148.966 180.906 148.391C177.806 148.849 174.98 150.64 172.728 152.76ZM195.107 154.486C190.876 152.063 185.143 154.416 180.752 155.734C178.398 156.441 173.607 157.73 171.613 158.672C171.294 158.824 171.029 159.023 170.8 159.294C171.839 160.437 173.804 159.698 175.156 159.449C179.536 158.643 184.404 157.513 188.749 156.457C189.622 156.244 195.03 155.002 195.107 154.486ZM195.381 150.044C192.446 147.16 187.158 148.366 184.068 150.508C183.694 150.768 181.896 152.124 182.071 152.51C184.011 152.036 185.824 151.016 187.802 150.669C189.781 150.322 192.895 151.016 194.389 150.664C194.841 150.557 195.091 150.415 195.381 150.044ZM199.106 150.749C197.78 150.592 197.652 154.294 198.203 155.174C198.533 155.398 200.745 154.042 201.441 153.919C202.023 153.813 203.122 154.247 203.372 153.878L202.825 151.631L201.37 153.001C200.554 152.216 200.297 151.133 199.106 150.749ZM222.149 197.628C221.159 197.613 219.216 191.279 218.905 190.168C218.753 189.616 218.786 188.52 218.622 188.203C218.193 187.382 217.224 187.073 216.602 186.395C212.159 181.538 213.54 178.146 211.605 173.097C210.361 169.852 208.173 166.713 207.243 163.257C205.792 163.039 204.258 163.383 202.854 162.84C200.746 162.023 199.403 159.767 197.236 159.179C196.691 159.032 195.399 158.828 196.334 159.615C198.895 161.769 200.334 163.966 202.611 165.95C205.432 168.409 207.072 168.2 209.07 172.149C210.555 175.083 210.015 177.218 210.722 180.019C211.617 183.569 213.713 187.902 214.953 191.503C215.709 193.694 216.466 195.907 217.08 198.145C215.518 198.475 216.154 199.591 215.387 200.59C213.816 202.644 210.872 205.803 209.026 207.748C207.903 208.93 200.377 215.707 200.394 216.37C201.156 216.918 202.225 217.117 203.132 217.234C209.27 218.031 223.102 213.731 228.721 210.943C232.849 208.895 236.716 206.302 240.792 204.155C241.309 203.832 240.785 203.614 240.449 203.438C239.538 202.967 238.219 202.775 237.268 202.389C233.685 200.939 229.061 198.315 227.204 194.794C226.8 194.028 226.467 191.748 226.217 191.463C225.876 191.073 222.723 189.621 222.055 189.447C221.682 189.349 221.298 189.089 221.344 189.681C221.455 191.161 223.554 195.585 222.893 196.836C222.727 197.153 222.402 197.377 222.152 197.62L222.149 197.628ZM236.712 164.12C236.568 163.207 224.773 161.799 223.178 161.397C218.514 160.221 214.082 157.083 209.098 158.175C212.486 160.727 215.277 163.874 219.172 165.704C221.629 166.856 230.078 169.294 232.629 169.113C235.181 168.933 235.948 166.088 236.712 164.12ZM223.503 158.673C221.566 157.636 219.334 156.65 217.145 156.394C219.072 157.343 221.338 158.655 223.503 158.673ZM224.142 187.346C222.63 184.438 220.045 181.991 217.259 180.34C218.395 182.976 220.45 185.573 222.996 186.97C223.278 187.123 223.868 187.608 224.142 187.346ZM191.899 205.687C191.115 207.489 190.648 209.749 190.701 211.711L191.539 208.616L191.902 205.689L191.899 205.687ZM252.4 197.937C252.001 197.375 251.956 196.6 251.56 196.04C250.744 194.888 246.61 192.984 245.13 192.589C243.314 192.101 233.026 191.524 231.26 191.904C230.9 191.979 230.521 191.933 230.274 192.291C232.305 192.795 234.375 193.267 236.38 193.876C240.32 195.067 243.662 196.901 247.898 196.358L252.4 197.941L252.4 197.937ZM238.865 198.353L234.72 196.675L230.776 193.902C232.402 196.775 235.489 198.881 238.865 198.353Z" fill="black"/>
<path d="M131.627 185.193C131.869 185.194 135.923 183.737 136.199 183.57C137.539 182.77 138.838 180.447 140.415 182.122C141.586 179.331 142.62 177.717 145.921 178.27C151.344 179.18 150.672 183.618 153.599 185.626C155.08 186.643 159.683 187.497 161.731 188.315C164.342 189.357 169.945 191.852 170.139 194.972C170.238 196.536 167.864 200.052 167.05 201.668C166.194 203.371 165.996 205.518 164.28 206.683C167.275 208.431 170.847 207.297 174.148 207.161C175.936 207.086 179.621 206.754 181.078 207.664C184.984 210.102 185.114 217.105 187.931 220.468C190.548 223.588 196.318 224.118 198.198 227.813C198.79 228.98 199.827 232.305 199.582 233.54C199.175 235.575 198.428 236.659 198.604 239.037C198.656 239.746 199.739 242.925 198.143 242.599C196.547 242.272 194.636 238.612 193.624 237.327C189.731 232.394 184.46 230.619 181.507 225.134C180.078 222.477 178.784 216.297 176.476 214.867C175.592 214.319 172.794 213.921 171.691 213.876C171.314 213.861 170.964 213.758 170.71 214.128C174.756 219.425 166.058 224.697 162.157 227.09C153.62 232.33 143.684 235.338 133.676 235.481C130.232 235.531 126.41 235.491 129.044 230.922C129.575 230.005 130.817 228.322 131.563 227.635C132.07 227.169 133.193 226.298 133.674 227.097C134.591 228.287 131.371 230.958 131.43 232.398C137.105 231.844 142.285 231.805 147.682 229.723C153.748 227.381 162.441 224.415 166.779 219.65C169.25 216.934 169.327 216.577 165.784 215.596C162.961 214.814 160.064 215.003 157.261 214.625C156.449 214.515 152.839 213.969 154.44 212.626C155.642 211.619 162.735 212.705 164.603 212.655C165.089 212.343 164.671 212.26 164.492 211.947C163.577 210.337 162.274 208.991 161.809 207.069L161.343 206.883C158.955 209.302 153.928 207.51 151.758 205.628C149.355 203.546 148.412 200.353 145.392 199.336C145.147 199.361 145.394 200.115 145.461 200.315C146.186 202.499 148.215 206.283 149.493 208.238C150.369 209.575 152.825 212.114 152.971 213.476C153.106 214.732 151.764 214.483 151.049 213.95C149.378 212.705 145.881 207.612 144.772 205.643C143.662 203.675 141.379 195.996 140.422 195.239C140.002 194.907 139.475 194.984 139.077 194.496C138.527 193.819 138.008 189.904 137.405 189.905C137.02 190.246 136.635 190.577 136.383 191.037C135.34 192.934 139.539 200.87 139.6 203.405C143.176 205.545 146.765 207.147 147.601 211.757C148.085 214.413 145.871 216.771 144.007 218.459C141.832 220.426 139.68 220.786 137.345 222.139C134.005 224.074 125.651 231.239 123.539 234.373C121.427 237.507 122.516 242.545 123.934 245.953C124.284 246.794 126.698 251.139 126.637 251.439C126.387 252.673 124.462 251.523 123.921 251.084C119.468 247.478 115.619 239.184 117.41 233.526C119.56 226.733 122.536 224.594 127.596 220.217C131.267 217.041 134.507 212.212 136.377 207.776C134.396 204.819 131.647 202.115 131.271 198.407C131.061 196.353 131.719 194.463 131.834 192.457L128.63 196.567C127.382 197.371 125.795 198.427 124.312 198.68C122.143 199.051 119.07 196.421 118.441 196.535C116.569 196.882 114.88 203.763 112.265 199.945C110.177 196.892 110.468 187.352 112.416 184.105C115.95 178.214 119.558 183.048 123.71 185.077C126.295 186.339 126.587 184.907 128.704 184.632C129.63 184.511 130.814 185.209 131.629 185.21L131.627 185.193ZM123.013 188.33C122.792 187.914 122.345 188.147 122.043 187.957C120.928 187.245 119.716 185.276 118.251 186.266C118.284 186.834 122.134 188.786 123.011 188.332L123.013 188.33ZM129.017 190.594C128.963 190.13 125.022 191.738 124.633 191.841C121.87 192.558 121.371 191.381 118.96 190.715C115.174 189.664 111.526 191.811 114.671 195.623C115.617 194.819 117.084 193.479 118.367 193.473C120.103 193.46 121.645 195.396 123.673 195.178C126.439 194.881 127.672 192.728 129.017 190.599L129.017 190.594ZM145.595 181.075C144.88 181.095 142.413 183.295 142.782 183.871C144.845 184.345 146.154 186.881 147.684 187.73C148.603 188.244 150.975 187.633 152.031 188.425C152.376 188.188 151.98 188.018 151.777 187.845C151.262 187.399 149.658 186.127 149.146 185.869C148.369 185.475 147.592 186.339 147.56 184.859C147.549 184.265 148.145 183.3 147.431 182.914C147.072 182.719 145.558 183.764 146.208 181.283C145.994 181.287 145.759 181.071 145.595 181.075ZM140.894 189.437C140.725 190.979 142.526 192.903 143.637 193.82C145.513 195.366 149.105 196.481 150.858 198.145C151.977 199.207 152.862 201.019 154.322 202.024C154.734 202.308 159.071 203.987 159.265 203.811C159.066 201.817 157.166 200.703 156.447 198.947C155.569 196.812 157.218 196.107 154.493 193.951C152.441 192.328 148.554 192.517 146.539 191.263C145.346 190.523 143.057 186.885 141.644 188.011C141.405 188.203 140.929 189.129 140.896 189.439L140.894 189.437ZM161.749 191.669C160.337 191.092 158.928 190.447 157.422 190.132C157.125 190.068 155.374 189.653 155.378 190.109C156.582 190.89 157.423 192.4 158.176 193.641C159.334 195.554 160.403 199.034 161.507 200.483C163.149 202.639 163.951 200.113 164.727 198.593C165.583 196.918 166.737 195.046 164.735 193.699L162.51 197.918C161.217 197.869 163.283 193.212 163.246 192.508C162.266 193.238 162.426 194.73 161.139 195.396C160.09 195.382 161.352 192.123 161.749 191.669ZM139.665 209C136.86 214.338 133.823 219.306 129.131 223.261C126.294 225.653 124.276 226.196 122.154 229.698C121.947 230.04 121.36 230.807 121.575 231.196C122.049 230.793 122.447 230.281 122.94 229.898C126.072 227.451 129.648 224.835 132.887 222.504C135.704 220.475 140.816 217.963 142.805 215.38C144.454 213.233 141.739 209.864 139.668 209.003L139.665 209ZM197.803 234.119C197.289 233.291 196.978 232.292 196.387 231.505C193.072 227.107 187.555 226.361 184.625 220.744C183.457 218.501 182.059 212.629 180.489 211.209C179.529 210.343 174.249 209.864 172.848 209.992C172.553 210.019 171.351 210.119 171.329 210.397C175.59 210.695 179.083 212.003 181.079 216.037C182.58 219.076 183.134 224.129 185.858 226.206C187.202 227.23 189.397 227.716 190.785 228.888C193.061 230.809 194.627 233.54 196.424 235.868L197.803 234.119Z" fill="black"/>
<path d="M155.164 124.06C155.486 123.11 154.852 121.866 155.934 121.258C156.575 121.146 162.352 126.706 163.367 127.528C165.281 129.084 167.719 130.411 169.511 132.001C169.719 132.183 170.319 132.407 170.015 132.843C169.501 133.577 165.725 130.922 164.902 130.688L157.262 125.886C163.232 132.037 171.626 137.325 179.838 139.831C183.542 140.96 187.309 140.816 190.961 141.901L190.947 142.687C189.922 143.102 188.877 143.224 187.78 143.215C177.353 143.119 170.329 139.674 162.172 133.503C157.427 129.912 152.996 125.903 148.253 122.311C147.847 122.566 147.879 122.716 147.821 123.102C147.666 124.1 147.976 125.822 147.896 127.019C147.643 130.789 147.267 138.779 145.891 141.929C144.07 146.095 140.313 150.564 137.176 153.842C136.452 154.601 131.983 159.166 131.069 157.814C131.071 156.292 132.392 154.798 133.262 153.58C135.781 150.046 138.859 146.838 141.454 143.436C144.701 139.177 145.508 127.497 145.681 121.989C145.738 120.252 144.776 118.277 146.31 116.822C146.601 116.543 147.481 116.049 147.76 116.34L155.164 124.069L155.164 124.06Z" fill="black"/>
<path d="M48.995 114.599C49.1908 115.43 51.2949 116.413 51.8952 117.428C52.1954 117.935 52.0314 118.381 52.1518 118.856C52.3161 119.498 53.0253 119.865 52.4266 120.652C50.9211 122.638 48.8891 120.512 47.4732 119.548C43.4387 116.792 41.1093 113.37 37.5278 109.976C36.0594 108.584 30.8369 105.752 34.0926 103.759C35.327 103.004 36.0905 104.049 37.1084 104.417C37.5349 104.571 38.1382 104.342 38.53 104.567C39.405 105.063 40.5772 106.757 41.4935 107.544C43.0346 108.867 48.6141 112.105 49.1203 113.633C49.2675 114.073 48.9577 114.458 48.9926 114.601L48.995 114.599Z" fill="black"/>
<path d="M22.6292 136.367C22.8094 136.05 23.1517 135.699 23.4599 135.502C24.8036 134.638 35.1698 136.35 37.3237 136.676C38.0597 136.789 38.9304 136.606 39.6371 136.762C40.7881 137.012 43.7447 138.327 44.0019 139.503C44.6116 142.29 39.1591 142.863 37.194 142.923C32.8217 143.062 31.2948 141.633 27.6369 140.246C26.2755 139.727 23.4598 139.811 22.6699 138.336C22.485 137.993 22.4367 136.705 22.6293 136.362L22.6292 136.367Z" fill="black"/>
<path d="M86.5112 69.5791C86.9975 68.9413 88.5365 68.9269 89.1351 69.3625C89.8902 69.913 89.6271 70.5556 89.9557 71.0637C90.0131 71.1528 91.135 72.426 91.2122 72.4823C91.7427 72.876 93.2209 71.939 93.8272 73.6689C93.6836 76.1496 93.2404 78.6476 93.13 81.1291C93.0344 83.2523 94.079 84.9204 91.435 86.1837C90.7176 86.5269 90.1341 86.2768 89.8465 86.3989C89.5134 86.5413 89.2513 87.5734 88.5887 86.9156C87.8052 86.1365 86.706 79.6159 86.5075 78.137C86.309 76.6581 85.6975 70.6468 86.5112 69.5791Z" fill="black"/>
<path d="M66.6921 98.9679L66.9358 99.7806L66.1145 99.7676C64.9181 96.9897 63.5755 94.2728 62.3935 91.4904C61.2115 88.7081 59.5608 85.0822 58.8008 82.3327C58.4879 81.2004 58.462 80.0861 59.8797 79.7557C61.0538 79.4865 61.1809 80.4201 61.7265 80.8878C63.8554 82.7027 64.0132 84.1973 65.3537 86.5675C66.6942 88.9377 69.9966 93.7152 70.6705 95.9428C71.4221 98.4262 68.4874 98.9638 66.685 98.9654L66.6921 98.9679Z" fill="black"/>
<path d="M43.9695 158.996C43.9326 159.714 42.8485 160.33 42.8218 160.574C42.7984 160.777 43.7382 161.467 43.2089 162.448C42.1701 164.378 34.3487 169.536 32.1855 169.316C30.6691 169.16 30.1541 167.268 31.0869 166.184C26.362 164.173 33.3665 160.779 35.5896 159.877C36.5334 159.493 37.6391 159.424 38.4569 159.05C39.8239 158.424 41.7863 156.061 43.3087 157.481C43.5578 157.712 43.9904 158.687 43.9719 158.993L43.9695 158.996Z" fill="black"/>
<path d="M116.157 70.5092C116.221 70.843 116.809 71.3496 116.741 71.9441C117.226 70.6984 120.101 68.4474 120.596 70.6973C120.856 71.8712 117.357 77.2029 116.59 78.6206C115.757 80.1628 114.903 83.5472 113.206 84.1732C112.852 84.3033 112.568 84.0407 112.311 84.0684C111.891 84.1212 111.577 84.3946 111.186 84.3506C109.27 84.1265 109.841 82.6214 109.352 81.3096C110.65 78.1603 111.111 74.72 112.444 71.5881C113.019 70.2374 114.221 66.8914 116.024 68.9771C116.728 69.7901 116.082 70.1158 116.159 70.5116L116.157 70.5092Z" fill="black"/>
<path d="M189.84 117.447C190.044 117.433 190.353 117.672 190.624 117.64C191.564 117.53 193.1 116.138 194.057 115.565C197.29 113.626 200.643 111.884 203.619 109.54L204.407 110.008C199.695 118.422 189.551 121.286 180.726 123.081C179.266 123.377 173.042 124.485 171.98 124.182C171.35 124 170.597 123.461 171.464 123.026C173.852 121.831 177.938 121.674 180.589 121.041C182.034 120.694 186.907 119.462 187.949 118.896C188.701 118.487 188.869 117.517 189.837 117.45L189.84 117.447Z" fill="black"/>
<path d="M130.542 160.545C131.511 161.305 131.846 162.072 132.255 163.163C133.238 165.801 133.582 169.135 134.541 171.937C135.244 173.992 137.902 178.921 137.512 180.723C137.394 181.269 137.118 181.835 136.682 182.201C135.78 181.87 135.546 181.262 135.128 180.491C133.984 178.393 130.361 169.51 130.146 167.387C130.05 166.447 130.228 165.337 130.206 164.363C130.176 163.1 129.326 161.436 130.547 160.545L130.542 160.545Z" fill="black"/>
<path d="M113.673 158.572C113.434 158.838 113.211 159.051 112.86 159.17C110.822 159.848 100.108 155.642 98.5402 154.02C97.834 153.292 97.7656 151.837 98.9586 151.573C99.3355 151.491 100.954 152.098 101.437 152.277C104.247 153.314 108.706 155.357 111.31 156.823C112.206 157.327 113.049 157.663 113.675 158.575L113.673 158.572Z" fill="black"/>
<path d="M136.596 135.225C137.747 135.475 135.822 138.881 135.443 139.379C132.076 143.79 125.96 144.52 121.22 146.726L119.82 145.711C119.82 145.362 123.775 144.079 124.397 143.777C128.688 141.684 132.644 137.923 136.596 135.225Z" fill="black"/>
<path d="M122.94 164.019C123.165 163.585 123.68 163.413 124.15 163.516C126.247 167.045 127.467 171.017 129.35 174.672C130.068 176.062 133.892 181.996 133.548 182.957C133.26 183.758 132.217 183.893 131.604 183.374C131.298 183.118 131.022 182.397 130.8 182C128.622 178.076 126.863 172.75 124.952 168.522C124.614 167.777 122.71 164.459 122.94 164.019Z" fill="black"/>
<path d="M162.531 222.306C162.151 222.768 161.688 223.076 161.174 223.369C158.962 224.637 154.626 225.833 152.02 226.884C150.631 227.443 146.74 229.565 145.557 229.513C144.548 229.47 144.41 228.971 145.033 228.234C146.761 226.189 155.485 223.016 158.347 222.297C159.032 222.124 162.548 221.076 162.531 222.306Z" fill="black"/>
<path d="M187.443 138.121C187.43 139.142 181.661 138.792 180.761 138.566C179.861 138.34 175.15 136.358 175.064 135.715C175.304 135.16 175.441 134.964 176.024 134.805C177.466 134.409 187.456 136.956 187.443 138.121Z" fill="black"/>
<path d="M158.309 118.281C160.22 119.7 162.013 121.256 164.006 122.569C166.839 124.435 170.092 125.633 172.704 127.831C172.072 128.739 170.767 127.799 169.957 127.413C166.826 125.93 159.829 121.548 157.866 118.887L158.309 118.281Z" fill="black"/>
<path d="M145.881 217.752C146.536 216.79 150.887 214.775 151.912 215.034C152.821 215.265 152.751 216.183 152.15 216.749C151.505 217.358 146.513 219.159 145.777 218.828C145.386 218.677 145.744 217.953 145.881 217.752Z" fill="black"/>
<path d="M88.2604 144.21C89.2323 142.744 94.4843 147.956 93.6633 149.142C92.9059 150.239 89.0968 146.17 88.6061 145.469C88.3435 145.093 88.1911 144.671 88.2604 144.21Z" fill="black"/>
<path d="M129.467 159.097C128.019 160.833 125.676 161.808 123.475 162.093L123.088 161.446C123.246 160.816 127.239 158.582 128.006 158.358C128.735 158.144 129.252 158.383 129.464 159.1L129.467 159.097Z" fill="black"/>
<path d="M129.106 169.588C127.87 168.972 127.114 167.46 126.499 166.24C126.08 165.41 125.256 164.418 126.282 163.966C126.683 163.787 126.913 164.008 127.168 164.279C127.695 164.844 130.884 169.289 129.106 169.588Z" fill="black"/>
<path d="M130.461 172.827C131.73 173.099 134.475 178.285 133.094 179.022C132.354 179.415 131.524 177.053 131.277 176.495C131.08 176.051 129.684 172.939 130.463 172.83L130.461 172.827Z" fill="black"/>
<path d="M134.976 230.601C135.039 229.09 138.92 228.39 138.784 230.063C138.649 231.737 135.142 231.581 134.976 230.601Z" fill="black"/>
<path d="M152.684 119.462C153.168 118.714 155.615 120.076 155.312 121.128C154.127 121.677 152.506 120.873 152.684 119.462Z" fill="black"/>
<path d="M172.236 133.161C172.631 133.54 175.184 134.113 174.777 134.907C174.552 135.346 173.091 134.597 172.833 134.425C172.445 134.161 171.508 133.537 172.233 133.163L172.236 133.161Z" fill="black"/>
<path d="M229.4 208.187L230.098 208.838C229.67 209.299 229.111 209.574 228.563 209.857C222.92 212.789 216.433 213.991 210.294 215.106C209.367 215.274 204.193 216.682 203.769 216.549C203.476 216.458 203.299 216.098 203.07 215.898C203.534 215.407 204.177 215.243 204.78 215.009C208.837 213.424 214.102 212.388 218.391 211.167C222.039 210.127 225.559 208.565 229.4 208.182L229.4 208.187Z" fill="black"/>
<path d="M213.939 202.787C213.976 202.379 214.724 201.471 215.208 201.399C217.856 201.028 220.747 199.575 223.274 199.117C223.82 199.017 224.397 198.761 224.717 199.357C226.21 202.134 219.242 204.601 217.28 204.737C216.103 204.818 213.798 204.26 213.939 202.787Z" fill="black"/>
</svg>
