<svg width="197" height="176" viewBox="0 0 197 176" fill="none" xmlns="http://www.w3.org/2000/svg">
<path d="M59.184 90.5417C56.4985 97.352 54.7799 101.877 54.6424 102.713C53.9067 103.868 52.5454 105.02 52.1473 105.65C51.2373 107.026 51.295 107.052 51.3912 109.154C51.8758 116.218 52.4569 124.774 50.8437 127.738C47.8464 133.243 42.7727 140.994 39.8096 141.644C38.6834 141.891 35.3943 142.308 29.8521 141.459C23.5212 140.489 17.017 139.343 12.9211 136.729C9.23285 134.375 6.42174 132.36 5.84476 129.576C4.57978 123.472 4.3769 115.969 6.44926 114.447C9.27032 112.376 16.2423 110.678 18.9859 107.324C19.4092 106.806 19.9563 105.992 19.4706 105.65C16.0492 103.237 8.89214 101.674 6.97248 99.6129C3.4243 95.804 0.0621562 91.8732 0.0370242 88.9389C0.0044314 85.1334 -0.479023 81.4477 3.27964 76.5002C6.02677 72.8842 18.4891 67.4473 22.6681 61.2334C23.7525 59.621 27.7805 52.2452 30.1729 40.5343C31.83 32.4227 32.4397 27.7303 33.9308 25.3877C35.5239 22.8849 38.9028 16.3389 43.3889 15.6241C48.2689 14.8465 54.871 14.6596 57.0291 15.8583C57.944 16.3664 58.7206 17.1194 59.0683 18.1514C59.4028 19.1446 59.9929 21.0529 59.9769 25.3269C59.9501 32.4716 59.8773 38.9196 58.0586 43.6398C55.542 50.1712 53.6762 54.7556 53.0735 56.3881C51.6746 60.1763 48.4458 65.8123 50.2313 68.1163C52.078 70.4994 55.9847 72.4454 56.9798 74.502C58.6166 77.8847 61.0999 85.6827 59.184 90.5417Z" fill="#E4B8AF"/>
<path d="M166.024 97.534C171.851 97.0102 173.72 96.9727 173.751 96.9727C174.583 98.1264 176.593 98.453 176.748 98.9803C176.937 100.142 176.756 106.44 176.355 115.411C175.996 120.298 175.748 122.257 174.991 122.971C172.932 124.913 170.332 125.994 168.623 127.809C165.25 131.392 164.066 134.775 163.605 141.633C163.058 149.763 162.735 156.791 161.879 160.485C160.585 166.078 159.888 168.852 157.623 170.257C154.553 172.16 149.578 175.232 139.788 175.493C134.86 175.625 131.976 175.451 130.33 174.41C127.393 172.553 125.142 170.939 124.722 169.794C124.302 168.649 123.534 166.396 124.251 163.858C125.297 160.151 127.433 157.037 130.983 153.205C133.391 150.606 137.293 145.975 139.368 135.657C140.75 128.784 143.12 116.169 144.382 109.514C145.643 102.858 145.791 102.181 146.094 101.707C146.397 101.234 146.83 100.941 147.488 100.705C148.961 100.177 155.95 98.4396 166.024 97.534Z" fill="#E4B8AF"/>
<path d="M38.0167 106.758C38.3673 113.724 38.8194 135.167 29.325 136.468C16.5827 138.221 6.04565 127.241 13.2703 115.578C18.7418 106.739 32.093 116.833 24.7485 124.289C23.8073 125.645 18.8802 124.529 19.2677 126.392C19.7844 128.893 24.1118 129.88 26.3632 129.382C32.4252 128.044 32.3883 114.84 32.4344 109.904C24.4901 107.247 15.4478 106.038 9.97628 99.007C-2.47996 83.0261 18.5111 65.0892 32.0654 58.9348C32.9235 50.0402 31.6594 40.5181 34.8426 31.9555C36.2267 28.2279 41.2645 20.9479 45.6473 21.2247C58.7309 22.0551 52.1061 46.7185 47.5111 53.6202C44.0049 58.8979 38.0074 60.3465 37.2601 67.5896C36.2636 77.2132 37.9982 73.9931 43.7096 77.7299C53.7854 84.3271 50.4545 104.414 38.0259 106.758H38.0167ZM38.6349 51.3227C42.787 49.9571 45.352 44.0796 46.4408 40.1028C47.3358 36.8273 48.8213 23.1531 43.1745 29.2244C41.3014 31.2451 37.7399 50.2985 38.6349 51.3227ZM32.4068 82.4633C27.0552 80.8209 27.2028 90.9243 25.0714 91.4133C18.8894 90.0201 19.646 83.0077 23.4106 79.3446C27.1382 75.7185 33.3756 77.0933 30.6813 68.623C25.136 73.7993 10.6868 84.6132 17.5977 92.7697C18.7971 94.1814 28.633 101.369 29.9063 101.083C30.9397 100.852 32.3975 96.156 32.3975 95.2609V82.4541L32.4068 82.4633ZM37.2508 101.84C47.4188 99.6345 47.9448 87.5288 39.6591 82.4818C38.2473 82.2972 38.764 82.5371 38.6349 83.4967C37.869 89.1528 38.6533 96.0268 37.2508 101.84Z" fill="black"/>
<path d="M188.101 154.433L188.7 115.08L156.72 117.156L155.585 118.789C156.166 122.545 155.013 126.309 154.865 129.834C154.404 140.805 158.141 170.524 143.323 173.643C128.855 176.688 127.914 159.231 141.422 159.932C143.627 160.043 148.545 162.414 149.256 160.2C149.754 149.635 148.96 139.005 149.329 128.45C149.486 123.975 149.698 119.103 150.021 114.61C150.686 105.291 152.42 105.558 160.826 103.27C167.571 101.434 188.045 96.5435 192.594 102.541C196.682 107.939 196.165 132.178 195.75 139.578C195.178 149.709 192.742 170.266 178.117 166.151C170.809 164.093 172.037 158.843 176.346 154.091C180.35 149.681 184.594 149.589 188.101 154.433Z" fill="black"/>
<path d="M103.684 141.294C104.376 130.092 98.6371 123.015 92.9626 114.305C89.2165 119.814 88.6721 127.472 89.2349 133.94C90.4067 147.291 98.8678 161.51 82.8315 169.233C76.954 172.056 74.0844 172.342 67.8471 169.86C56.8118 165.477 65.4942 148.943 74.2597 148.841C76.3358 148.814 81.3552 150.032 83.1637 151.084C84.8429 152.062 85.6641 154.368 87.7586 154.433C86.1624 134.66 82.1672 113.964 91.9292 95.621C93.7745 94.32 97.6775 102.947 98.8401 104.267C103.509 109.544 108.288 111.187 111.139 118.956C113.824 126.291 114.47 141.386 103.684 141.294Z" fill="black"/>
<path d="M168.78 52.0793C172.378 59.0087 172.175 64.4156 169.259 71.5664C168.881 72.4891 165.947 79.7968 164.692 75.7738C163.714 72.6367 165.412 68.1709 165.283 64.84C165.098 60.2635 162.634 55.1057 159.756 51.6456C159.174 50.9536 154.884 46.4048 154.21 47.1706C153.906 57.8461 154.063 80.5164 145.556 87.9902C135.96 96.4143 121.879 84.687 128.984 73.4948C131.974 68.7799 143.212 65.5966 145.749 70.5053C146.469 71.8893 145.888 74.8235 147.281 75.5339C151.941 55.0411 145.943 32.8875 152.808 12.8744C154.616 11.6196 158.658 20.5788 160.079 22.2581C164.96 27.9972 171.861 28.0249 172.885 37.1318C173.375 41.45 173.716 50.4738 168.78 52.0793ZM165.956 48.5546C164.148 42.6771 163.373 34.7144 159.405 29.8518C158.981 29.3259 156.185 26.3549 155.585 27.1022L155.004 42.9078L165.956 48.5546Z" fill="black"/>
<path d="M93.9866 53.3988C95.4445 47.5674 95.0477 41.6622 95.3891 35.7571C95.8597 27.416 95.7213 26.9362 94.7525 19.0841C94.042 13.3358 96.4225 6.23114 97.4559 0.547406C97.3729 -0.199968 98.7846 -0.0154312 99.1537 0.141425C100.63 0.750397 102.697 12.1363 102.909 14.3785C103.758 23.1624 101.239 57.0342 97.9911 64.6555C94.7432 72.2769 89.9914 73.8547 82.2501 71.0221C69.5724 66.3717 81.6134 50.8337 88.7642 51.332C90.7388 51.4704 91.8091 53.7771 93.9866 53.3988Z" fill="black"/>
<path d="M184.64 144.745C183.69 144.929 182.98 144.505 182.694 143.591C181.891 141.035 183.764 122.646 186.384 122.619C187.648 123.449 187.362 124.455 187.455 125.691C187.953 132.187 186.264 138.553 184.65 144.754L184.64 144.745Z" fill="black"/>
</svg>
