<svg width="204" height="203" viewBox="0 0 204 203" fill="none" xmlns="http://www.w3.org/2000/svg">
<path d="M58.6423 86.4138C58.5573 79.811 58.5573 79.7913 58.5573 79.7716C59.3908 77.9037 60.1344 75.9919 60.8571 75.4547C62.4129 74.5132 65.9239 72.7563 70.3981 70.5826C73.3903 69.325 79.1166 67.3956 90.5001 66.716C97.3045 66.3097 106.153 66.0011 113.085 66.7764C130.701 68.7468 134.175 68.9509 135.736 71.876C139.418 78.7748 142.604 89.9394 143.383 94.6037C143.961 98.0654 145.013 105.696 144.191 115.302C143.558 122.703 143.228 126.825 142.171 127.444C139.567 128.969 134.737 131.617 123.339 132.708C118.137 133.206 110.322 133.676 105.438 134.17C100.554 134.664 98.669 135.247 95.8105 135.625L95.6946 135.64C89.186 136.5 81.3706 137.533 74.2547 136.498C68.6229 135.679 65.2773 135.154 64.4814 134.066C62.8582 131.848 59.8174 127.931 59.2316 114.1C58.8971 106.202 58.7272 93.0166 58.6423 86.4138Z" fill="#A9AA9A"/>
<path d="M153.034 123.523C146.136 130.675 138.139 142.843 128.15 145.824C126.985 146.17 126.807 146.761 125.82 145.376C137.675 138.005 145.198 126.909 153.313 115.89L155.567 115.299V120.357C156.083 117.663 158.472 115.113 158.709 112.369C158.996 109.05 156.952 104.465 156.826 101.02C156.682 97.0432 157.873 92.7452 157.493 88.3628C156.716 79.4292 144.041 59.7379 136.273 55.1191C125.862 48.9297 105.318 41.0178 93.3527 42.639C86.606 43.551 71.1283 52.2229 66.0619 50.5932C65.226 50.323 64.8291 49.6897 65.0064 48.82C84.9425 35.8754 105.579 31.8646 127.922 41.9297C135.319 45.2651 136.974 48.4906 142.589 53.2277C144.962 55.2289 148.61 56.791 150.805 58.9442C154.039 62.1276 160.347 75.5027 161.917 80.13C163.327 84.2844 166.891 97.1445 167.423 101.214C168.031 105.859 166.494 110.317 164.543 114.471C161.782 120.323 146.397 144.101 141.931 147.588C139.879 149.193 135.437 151.65 132.921 151.929C131.857 152.047 131.502 151.979 130.869 151.067C130.092 148.239 142.378 139.322 144.785 136.502C147.858 132.904 151.075 127.813 153.026 123.54L153.034 123.523Z" fill="black"/>
<path d="M157.552 179.329C165.16 174.567 170.665 167.93 176.762 161.504C177.783 160.432 179.227 159.832 180.291 158.701C188.304 150.172 200.236 123.929 199.248 112.454C198.792 107.159 196.841 103.984 197.331 97.854C197.635 94.1049 199.712 89.4776 199.653 85.9481C199.569 80.7044 195.414 77.521 193.869 72.8684C191.809 66.679 192.949 58.5475 190.703 53.2363C189.858 51.2436 174 32.8443 171.982 31.4257C169.12 29.4245 165.067 28.8587 162.373 26.6464C160.288 24.9323 158.869 21.8841 156.006 20.1699C150.366 16.7839 142.133 14.8587 136.13 12.182C132.938 10.755 128.918 7.3943 125.803 6.67657C121.842 5.77307 117.452 6.76101 113.449 6.36414C107.209 5.73929 103.789 3.13012 96.3165 3.81408C90.6421 4.32916 85.4069 9.64883 79.9606 9.32796C78.8629 9.26041 76.3128 8.47512 77.3261 6.98899C79.2682 5.21577 82.4178 5.69707 84.5794 4.74291C86.6144 3.84786 88.2525 1.492 91.2417 0.639166C97.5915 -1.17628 107.327 1.47511 114.04 1.33157C116.531 1.2809 118.667 -0.340328 121.614 0.0649801C123.692 0.352073 125.98 2.44616 128.277 2.92747C130.117 3.31589 132.085 2.90214 133.571 3.33278C135.057 3.76342 136.991 7.42808 139.701 7.98537C141.652 8.39068 144.058 6.86233 146.668 7.96849C148.019 8.53423 149.074 11.0674 150.172 12.0638C153.583 15.1374 157.881 16.1169 161.672 18.2954C172.143 24.3075 186.59 37.4209 191.766 48.3642C193.438 51.8937 201.485 71.1881 201.781 73.8141C202.161 77.1833 201.308 81.2448 201.815 84.5464C202.102 86.4125 203.411 87.9577 203.672 90.2882C204.238 95.3124 202.397 99.2472 202.355 103.596C202.254 114.455 203.934 122.223 198.918 133.04C197.964 135.092 196.166 136.561 195.313 138.3C193.835 141.289 193.928 144.616 192.163 147.817C188.296 154.834 173.629 170.7 167.279 176.129C165.43 177.708 157.011 184.995 157.535 179.355L157.552 179.329Z" fill="black"/>
<path d="M68.8062 9.53058C68.5782 13.6934 64.4998 12.9926 61.8399 14.2761C52.5094 18.7767 32.6071 30.7079 27.1355 39.1012C24.2307 43.5596 22.7446 49.0481 19.9328 53.4305C16.4117 58.919 11.4973 61.4776 9.46234 68.2918C7.54557 74.7176 7.61312 82.6887 6.56607 89.4607C5.65413 95.3545 2.69031 102.16 3.61914 107.97C3.97379 110.174 6.07632 113.087 6.67584 115.679C8.58417 123.887 6.97982 133.428 10.6867 141.433C12.4008 145.131 16.8001 147.969 19.1137 152.005C22.3478 157.628 22.4829 163.016 24.6192 168.665C29.162 180.663 40.5866 178.916 50.8713 183.577C55.5239 185.688 64.2802 192.552 67.5143 193.532C72.0909 194.917 74.1174 191.168 80.0281 194.326C81.4889 195.103 83.9714 197.813 85.0945 198.125C86.4371 198.497 91.8581 197.686 90.5155 200.591C87.9063 206.248 79.0486 198.489 75.8568 197.965C74.3369 197.712 72.1669 198.446 69.9123 198.1C68.0716 197.813 56.1572 193.903 54.0631 193.059C51.0655 191.86 49.1234 188.964 46.2525 187.571C43.3815 186.177 40.6288 186.431 37.7832 185.274C35.4105 184.311 33.156 181.322 31.4841 180.807C29.9051 180.317 28.3176 180.748 26.8315 180.393C23.5299 179.616 23.5215 175.454 22.2042 172.988C19.1644 167.33 18.4044 165.684 15.9219 159.638C11.7506 149.463 6.67584 144.507 4.92795 132.634C3.75425 124.663 3.27294 123.084 1.02686 115.637C-2.30848 104.542 3.32361 86.1676 5.94967 74.9203C6.57452 72.2351 6.3212 68.8998 7.18248 66.0204C9.31879 58.8937 16.8508 52.1301 20.5576 45.831C22.238 42.9685 23.0148 39.4136 24.8387 36.8129C29.3815 30.3533 38.6614 24.9661 45.1717 21.0481C49.8327 18.2447 59.3405 11.4051 63.9171 10.0288C65.6313 9.51369 67.0245 9.37014 68.8062 9.53902V9.53058Z" fill="black"/>
<path d="M153.271 30.1843C151.937 29.0528 150.45 26.8405 148.635 26.2747C145.84 25.3966 143.332 26.5196 140.14 24.6366C138.316 23.5558 137.675 21.4533 136.383 20.7355C129.78 17.0624 119.385 16.4207 112.934 13.8368C110.958 13.0431 108.678 10.3326 107.082 10.1806C103.3 9.82599 96.9075 13.4147 93.1162 13.9128C90.3044 14.2759 87.2983 13.6342 84.4527 14.1155C80.7205 14.7403 77.0474 18.0926 73.8894 18.7512C71.1536 19.3254 68.2404 18.5148 65.7832 19.5112C63.8749 20.288 59.6614 25.2784 56.2585 27.0854C50.9304 29.9056 45.6698 32.1433 40.9919 36.5172C36.7024 40.5281 34.5408 46.5992 31.0534 51.2772C29.3393 53.5824 26.3924 55.8369 24.8134 58.3363C21.6047 63.4195 22.4913 68.3508 20.6758 73.8309C19.4177 77.6222 15.677 82.3339 15.0944 85.9986C14.5118 89.6632 16.6903 92.4497 16.0824 95.8188C14.7229 103.435 10.5263 95.0167 10.5178 90.9129C10.4925 80.2314 19.8906 57.8043 26.0884 48.8538C30.361 42.6813 45.4841 27.1022 52.0788 24.1806C54.5191 23.0998 57.0945 22.9816 59.4925 21.4617C62.7097 19.4267 65.1753 15.8549 69.1777 14.0479C78.2718 9.93576 93.4202 9.3278 103.232 5.78979C107.31 5.88268 109.92 9.42912 113.221 10.3748C116.886 11.4219 121.462 11.1095 125.786 12.376C130.599 13.7862 134.086 16.5896 138.274 18.253C142.057 19.7645 145.502 19.2916 149.015 20.8115C153.33 22.6776 158.025 29.5932 162.213 32.9454C170.817 39.8441 184.724 44.2941 185.332 57.3652C185.577 62.5751 182.216 64.1373 179.692 59.1553C175.157 50.2048 179.295 48.4738 169.044 41.9382C162.204 37.5811 159.426 35.3857 153.254 30.1758L153.271 30.1843Z" fill="black"/>
<path d="M123.269 152.03C120.77 156.227 115.974 156.539 112.073 158.245C104.119 161.715 103.215 163.683 93.4793 161.859C68.5951 157.206 49.8243 148.028 38.9316 123.946C30.2428 104.744 37.8255 74.6838 52.3406 59.8816C53.4298 58.767 58.5975 54.1144 59.9232 54.773L61.1054 56.1663C57.5251 64.3484 51.9437 70.7574 47.9919 78.9648C39.5396 96.5535 34.5999 113.838 48.8448 129.865C60.2525 142.691 72.1331 154.166 90.0258 156.446C97.4395 157.392 105.064 157.645 112.208 155.213C115.797 153.989 119.208 150.654 123.269 152.03Z" fill="black"/>
<path d="M72.6144 127.315C72.3695 125.862 72.741 126.082 73.8556 125.744C77.267 124.722 83.2368 124.055 86.9353 123.599C102.768 121.649 118.963 121.632 134.584 118.364C135.555 114.294 133.622 110.537 133.377 106.754C132.777 97.5921 133.875 87.7802 133.394 78.551L63.8074 87.4847C64.1789 93.6657 63.858 100.64 64.3816 106.728C64.6264 109.54 68.4262 125.829 67.5311 126.69L65.074 126.614C63.2416 113.669 60.5058 98.9093 61.7977 85.8128C61.9159 84.6307 61.6964 83.8792 62.7434 82.9588C66.0872 80.0034 79.1246 80.9069 83.6759 80.4594C94.8894 79.3701 106.753 76.6765 117.891 76.0432C120.424 75.8997 132.532 75.621 133.723 76.6596C137.379 79.8683 137.472 102.946 137.844 108.637C138.468 118.204 142.496 122.4 129.906 124.148C119.427 125.609 105.664 126.816 95.0752 127.315C87.6192 127.669 80.0619 127.07 72.6059 127.315H72.6144Z" fill="black"/>
<path d="M190.846 98.2759C195.161 97.0515 196.52 104.947 196.487 107.902C196.402 115.476 191.623 120.196 190.551 126.529C188.195 140.377 187.654 141.804 178.695 152.672C173.637 158.793 158.801 176.391 151.793 178.324C149.37 178.991 146.76 178.805 146.76 175.774C146.76 171.974 159.046 167.55 161.934 164.409C164.273 161.867 165.565 157.062 167.592 154.867C168.959 153.389 171.602 152.883 173.266 151.675C176.415 149.395 185.459 135.758 185.906 132.018C186.413 127.703 185.746 124.224 186.801 119.614C187.857 115.003 191.209 111.659 190.263 106.906C189.867 104.887 186.447 99.5424 190.863 98.2927L190.846 98.2759Z" fill="black"/>
<path d="M14.1234 102.059C19.156 100.683 14.4358 112.276 14.402 113.762C14.2163 120.99 21.5287 125.634 22.4238 130.954C23.3188 136.274 20.6843 144.431 24.7965 148.214C28.3514 151.481 35.5203 154.783 38.7543 158.321C41.2706 161.074 41.1693 165.439 43.466 168.175C46.2778 171.519 51.5806 171.004 54.232 174.499C51.378 178.536 42.3598 172.692 39.3791 170.37C33.1982 165.549 33.612 161.454 29.8882 157.063C26.3586 152.917 21.4612 152.148 18.0329 146.119C13.4985 138.165 16.7072 133.825 15.466 125.888C14.782 121.489 11.0076 117.486 10.5516 113.078C10.2899 110.528 11.2271 102.861 14.1318 102.068L14.1234 102.059Z" fill="black"/>
<path d="M142.893 179.886C143.712 184.657 141.272 186.304 137.362 187.967C131.224 190.568 127.745 189.496 121.69 190.028C109.658 191.092 106.373 198.007 92.542 193.194C88.4467 191.767 83.9883 188.288 79.7326 187.638C73.1717 186.633 67.7676 188.263 61.8231 183.382C60.4889 182.285 55.3297 176.332 58.4202 175.479C62.4648 176.441 65.8677 179.532 69.8954 181.01C74.6494 182.757 80.1632 183.289 84.9763 184.928C89.0969 186.329 96.5191 191.125 100.209 191.227C103.899 191.328 112.681 186.65 117.418 185.763C123.227 184.666 129.56 185.763 134.694 184.674C137.894 183.999 139.904 181.077 142.885 179.886H142.893Z" fill="black"/>
<path d="M136.569 60.819C135.386 61.1398 134.686 61.4438 133.394 61.2158C128.513 60.3714 119.613 55.0349 114.116 53.2025C95.5903 47.0469 90.735 50.9396 73.7037 55.2713C72.8677 55.4824 72.4962 56.4703 72.6144 54.8153C89.9498 42.2846 114.066 46.1688 131.941 55.6428C133.976 56.7237 136.797 58.1422 136.569 60.819Z" fill="black"/>
<path d="M153.668 181.786C153.955 183.315 153.524 183.382 152.637 184.227C151.751 185.071 144.734 190.619 143.763 191.184C140.858 192.89 135.538 193.338 131.975 194.596C128.851 195.702 124.992 198.32 121.893 199.079C118.456 199.915 115.45 199.139 112.199 199.519C106.719 200.16 101.704 202.229 96.0378 200.768C95.9618 197.855 96.9582 197.357 99.5842 197.044C108.881 195.938 116.388 198.505 126.326 195.271C128.665 194.511 130.464 192.333 132.634 191.446C135.446 190.306 139.313 190.306 142.074 188.854C145.485 187.064 148.626 181.812 153.659 181.761L153.668 181.786Z" fill="black"/>
<path d="M48.5323 96.2916C49.6638 105.36 52.0872 115.257 55.659 123.684C58.2513 129.789 62.9292 134.973 65.0064 141.247C63.7229 141.526 63.3176 140.96 62.4479 140.327C54.9835 134.863 46.4805 112.031 46.0245 102.929C45.9063 100.547 45.2392 96.5027 48.5408 96.2832L48.5323 96.2916Z" fill="black"/>
<path d="M138.882 155.956C143.163 155.568 145.705 169.095 144.481 171.645C142.564 175.622 136.788 168.394 136.206 165.996C135.555 163.294 135.175 156.294 138.882 155.956Z" fill="black"/>
<path d="M183.905 98.6731C180.671 101.291 166.705 99.8721 167.136 94.696C167.473 90.6767 184.463 92.6019 184.581 97.1278C184.589 97.4571 184.184 98.4451 183.905 98.6646V98.6731Z" fill="black"/>
<path d="M111.11 92.6778C121.741 91.6983 120.964 95.2363 111.473 96.2073C103.967 96.9757 96.2489 96.3593 88.7676 96.9335C85.8207 97.1615 82.5445 98.3099 79.5891 98.5294C78.4576 98.6138 77.9594 99.264 77.0559 97.8708C77.0897 96.2242 94.7037 95.2194 96.916 94.9407C101.518 94.3581 106.525 93.0915 111.11 92.6693V92.6778Z" fill="black"/>
<path d="M62.8786 172.059C59.7543 175.183 56.9256 174.702 58.3442 169.737C58.9522 167.609 64.8545 158.329 67.2103 158.996C68.9835 159.494 67.3623 163.792 66.9317 165.034C66.197 167.153 64.4492 170.497 62.8786 172.067V172.059Z" fill="black"/>
<path d="M59.3152 28.5294C61.2742 26.5029 67.565 36.9987 67.9112 38.6537C68.2574 40.3087 67.1259 41.533 65.8846 42.4281C61.1307 39.8527 58.8002 33.7309 59.3068 28.5294H59.3152Z" fill="black"/>
<path d="M21.7989 97.0939C25.4382 96.5366 30.5806 96.2242 32.0752 100.387C29.2802 103.385 27.5492 101.78 24.7374 101.4C22.7193 101.13 20.5408 101.822 18.7675 100.412L18.1427 98.5125C18.3791 97.685 20.9461 97.2205 21.7905 97.0939H21.7989Z" fill="black"/>
<path d="M87.1717 103.258C86.8846 101.451 87.5432 102.202 88.6409 101.907C90.963 101.282 110.984 98.6982 111.87 99.4666C112.081 100.539 111.634 100.784 110.772 101.206C107.707 102.718 102.151 101.924 98.8918 103.258H87.1717Z" fill="black"/>
<path d="M142.209 30.4883C143.966 33.469 136.543 44.4461 134.306 38.6198C135.935 35.2169 137.21 28.6644 142.209 30.4883Z" fill="black"/>
<path d="M111.237 107.699L109.016 108.958L90.9714 111.491C92.39 109.43 96.5698 109.008 99.0692 108.518C102.936 107.758 107.429 106.982 111.228 107.708L111.237 107.699Z" fill="black"/>
<path d="M108.07 153.93C104.507 156.97 98.8834 155.813 94.7712 154.546C93.8509 153.643 94.8304 153.398 95.7085 153.288C99.5758 152.798 104.169 153.677 108.07 153.93Z" fill="black"/>
</svg>
