<svg width="164" height="144" viewBox="0 0 164 144" fill="none" xmlns="http://www.w3.org/2000/svg">
<path d="M57.4856 72.1485C67.2331 66.8867 77.5996 62.8206 79.3864 62.4275C80.136 61.6078 80.6586 60.9447 81.1174 60.4501C82.1402 59.4949 83.2225 59.0412 84.6393 59C86.4279 59.296 90.5611 60.2551 94.9581 62.5234C97.1841 63.6717 100.93 68.1239 108.757 75.4064C117.483 83.5253 123.925 89.0314 126.706 93.4744C130.573 99.652 133.459 104.004 133.37 107.1C133.029 118.94 132.024 124.989 129.856 127.17C128.583 128.452 121.468 133.764 110.098 139.734C105.498 142.149 102.873 142.904 96.774 143.198C90.6746 143.492 81.3238 143.891 76.0162 143.058C66.8728 141.622 61.9104 141.312 59.0436 139.54C56.8211 138.166 51.0118 134.41 47.6144 126.857C44.9108 120.847 42.9926 116.477 43 113.023C43.015 106.056 42.8202 97.2829 45.1463 90.6792C47.8422 83.026 51.0807 75.6059 57.4856 72.1485Z" fill="#F4F0CD"/>
<path d="M36.5571 61.2957C43.4371 58.7557 48.4171 63.7357 54.8971 65.0757C73.3371 50.4957 99.6371 50.5057 114.937 69.5457C129.497 87.6657 120.727 120.056 98.9571 127.836C95.5271 129.066 81.7971 133.126 78.8671 133.266C75.6771 133.426 70.7071 129.406 69.2871 129.676C68.5271 129.816 60.1971 138.026 57.2171 139.346C53.1471 141.146 31.5271 144.516 27.5371 143.456C26.6371 143.216 12.1971 134.726 11.4271 134.066C9.79707 132.676 8.30707 129.736 7.18707 127.806C-3.03293 110.286 -2.67293 90.3557 10.3271 74.4457C13.2371 70.8857 17.1671 66.4757 21.5571 65.0357C22.1471 64.1757 8.77707 58.8757 11.3971 50.7557C11.8171 49.4457 14.0871 47.0557 15.2871 46.3957C18.4471 44.6757 31.8371 42.7157 35.5771 42.8157C45.2271 43.0857 35.3271 55.9357 36.5571 61.2957ZM30.5471 47.8057L26.8071 48.5657C26.5971 52.2157 31.3671 54.6957 27.1771 57.5357C25.6171 57.5357 24.3071 50.7957 23.7871 49.3057L20.7971 50.4357C22.6171 54.0057 26.4271 56.8857 26.0371 61.2957L23.0471 59.7957C22.4271 64.0457 31.9771 63.0957 32.6871 61.9457L34.2871 47.8057C31.2671 47.2957 33.8371 53.1257 31.6571 54.5557C29.3471 55.2957 31.1271 48.4857 30.5371 47.8057H30.5471ZM115.297 90.5457C111.687 63.0957 91.1471 53.3057 65.8171 63.1857C55.8571 67.0757 63.0271 68.4857 66.4971 72.3957C70.2371 76.6057 78.8071 91.7757 79.1171 97.1057C79.2571 99.4757 77.9371 102.036 77.8171 104.436C77.6171 108.256 78.2471 112.556 77.6271 116.246C76.9471 120.266 73.7971 122.916 72.5571 126.546C75.4371 126.576 76.0171 124.216 79.1871 123.966C81.4271 123.786 83.6471 125.026 85.7171 125.066C88.3571 125.116 101.997 119.296 104.427 117.536C106.367 116.126 108.127 113.496 110.047 111.906C110.427 109.376 106.567 113.316 107.037 110.416L112.307 89.0457L115.287 90.5457H115.297ZM49.3071 71.8057C38.6671 70.0957 30.2971 70.7857 20.7971 75.9157C16.5271 78.2157 12.5471 81.2657 10.1771 85.5457C8.85707 87.9357 6.92707 92.6557 6.92707 95.0457L9.94707 92.0557C10.7771 91.8757 11.4571 92.5657 11.6871 93.2957C13.0571 97.6857 10.8571 106.906 11.8871 112.606C12.9171 118.306 16.6771 125.036 21.2071 128.786C22.7671 130.076 30.2671 135.056 31.8571 135.386C41.7271 137.396 55.0271 131.566 63.5571 126.926C57.1871 124.466 54.8071 120.196 52.1771 114.306C46.2471 101.036 44.8771 85.7157 49.3071 71.8057ZM62.0671 119.816C66.4671 126.596 68.9471 122.026 71.6671 117.036C76.1671 108.766 71.7571 112.546 70.0571 106.936C69.0671 103.676 69.3871 99.0857 68.6271 95.6157C67.0971 88.6457 61.7071 78.8157 55.6871 74.8157L51.5571 85.2957L54.6671 85.7557C55.4571 95.0757 55.7671 103.366 59.6771 112.056C60.5271 113.946 63.8571 117.656 63.6071 119.406L62.0671 119.806V119.816ZM21.5571 132.546C19.1871 129.486 16.1871 127.206 14.2071 123.786C11.5271 119.156 10.9571 113.266 7.31707 109.306C8.60707 118.596 11.8871 129.116 21.5571 132.546Z" fill="black"/>
<path d="M93.9819 20.2964C93.2081 20.7458 92.9212 23.1545 92.0968 24.0654C91.6846 24.5209 91.1794 24.4922 90.7395 24.7576C90.1454 25.118 90.013 25.9406 89.0158 25.5803C86.5021 24.6761 87.9687 21.9915 88.4671 20.2786C89.8973 15.3948 92.574 12.0173 94.8019 7.39318C95.7159 5.4971 96.8231 -0.600572 99.9325 2.05578C101.11 3.06328 100.311 4.14686 100.28 5.2795C100.268 5.75394 100.702 6.2889 100.607 6.74997C100.4 7.77827 99.0804 9.46952 98.593 10.6277C97.7739 12.5754 96.3757 19.1548 95.0008 20.1277C94.6053 20.4094 94.1118 20.2161 93.9788 20.2947L93.9819 20.2964Z" fill="black"/>
<path d="M64.1611 0.806416C64.5443 0.890127 65.0171 1.12749 65.3217 1.37819C66.6525 2.47032 68.3768 13.5128 68.7648 15.798C68.8958 16.5795 69.374 17.4048 69.4522 18.1696C69.5822 19.4146 69.2309 22.8222 68.1176 23.4503C65.48 24.9387 63.0698 19.5909 62.351 17.6176C60.746 13.229 61.6922 11.2348 61.8822 7.0938C61.9552 5.55193 60.9267 2.7241 62.1664 1.46278C62.4548 1.16801 63.7522 0.716802 64.1659 0.805037L64.1611 0.806416Z" fill="black"/>
<path d="M151.01 43.4649C151.813 43.7572 152.346 45.2756 152.112 45.9967C151.816 46.9067 151.084 46.8365 150.687 47.312C150.617 47.3952 149.721 48.8819 149.691 48.9749C149.476 49.6164 150.912 50.8014 149.386 51.9132C146.855 52.5053 144.206 52.8062 141.686 53.4313C139.53 53.9652 138.213 55.4922 136.057 53.2504C135.472 52.6422 135.525 51.9909 135.306 51.7425C135.051 51.4551 133.93 51.5013 134.365 50.6511C134.88 49.6454 141.034 46.6281 142.447 45.994C143.859 45.3599 149.668 42.9759 151.01 43.4649Z" fill="black"/>
<path d="M115.321 33.2928L114.595 33.816L114.376 32.9944C116.754 30.8445 119.032 28.5702 121.419 26.433C123.805 24.2959 126.885 21.401 129.358 19.695C130.377 18.9926 131.459 18.5819 132.182 19.8781C132.777 20.9532 131.9 21.4022 131.597 22.1066C130.423 24.8516 129.007 25.525 127.067 27.6774C125.128 29.8299 121.389 34.7658 119.402 36.2059C117.186 37.8115 115.832 35.0775 115.321 33.2849L115.321 33.2928Z" fill="black"/>
<path d="M159.278 72.8175C158.967 72.9799 158.658 73.7107 158.042 73.8207C159.447 73.9298 162.656 76.0999 160.577 77.2575C159.492 77.8628 153 75.9913 151.329 75.6553C149.511 75.2903 145.848 75.4522 144.655 73.962C144.406 73.6508 144.573 73.2922 144.46 73.0466C144.267 72.6483 143.889 72.4189 143.802 72.0197C143.384 70.0605 145.077 70.1778 146.222 69.3046C149.799 69.6509 153.387 69.0842 156.959 69.4704C158.499 69.6373 162.241 69.8307 160.763 72.2307C160.187 73.1679 159.646 72.6269 159.277 72.8205L159.278 72.8175Z" fill="black"/>
</svg>
