<svg width="155" height="210" viewBox="0 0 155 210" fill="none" xmlns="http://www.w3.org/2000/svg">
<path d="M14.0308 134.562C37.6238 151.634 44.3319 154.35 45.7615 154.603C46.5535 154.225 47.0547 154.282 47.8611 153.958C49.4868 153.36 51.6898 151.713 54.6511 148.392C60.7939 143.301 67.6056 137.077 72.2324 136.825C76.3658 136.599 80.0773 136.51 81.0845 137.941C82.1898 139.511 86.0057 142.792 82.3492 158.216C78.4639 174.605 74.4628 184.641 68.5799 189.322C66.3398 191.105 64.1498 192.087 61.4154 191.71C57.692 191.196 53.3957 190.779 50.648 188.772C47.0221 186.123 43.8447 181.196 40.359 182.966C35.4216 185.474 27.8925 193.604 21.8195 193.522C17.7415 193.466 12.7154 193.32 10.1394 188.552C6.8826 182.525 1.51724 173.886 0.890657 167.908C-0.113163 158.331 -1.67148 129.429 5.27959 130.009C6.95907 130.149 8.63985 130.661 14.0308 134.562Z" fill="#F4F0CD"/>
<path d="M85.0308 97.5622C108.624 114.634 115.332 117.35 116.761 117.603C117.553 117.225 118.055 117.282 118.861 116.958C120.487 116.36 122.69 114.713 125.651 111.392C131.794 106.301 138.606 100.077 143.232 99.8248C147.366 99.5994 151.077 99.5104 152.085 100.941C153.19 102.511 157.006 105.792 153.349 121.216C149.464 137.605 145.463 147.641 139.58 152.322C137.34 154.105 135.15 155.087 132.415 154.71C128.692 154.196 124.396 153.779 121.648 151.772C118.022 149.123 114.845 144.196 111.359 145.966C106.422 148.474 98.8925 156.604 92.8195 156.522C88.7415 156.466 83.7154 156.32 81.1394 151.552C77.8826 145.525 72.5172 136.886 71.8907 130.908C70.8868 121.331 69.3285 92.4287 76.2796 93.0086C77.9591 93.1487 79.6398 93.6614 85.0308 97.5622Z" fill="#F4F0CD"/>
<path d="M39.7603 208.386C38.0188 206.951 33.293 198.794 31.8227 196.318C29.8274 192.966 27.9633 189.509 26.4668 185.895C24.7777 184.696 20.8046 189.168 15.9387 184.634C8.75375 177.94 5.04311 159.404 4.13295 149.839C3.95792 148.044 3.8004 139.319 4.73681 138.637C6.53962 137.333 9.46262 140.299 10.0315 139.669C10.014 136.545 10.3378 133.333 10.7841 130.253C12.9895 115.104 16.5776 100.139 19.5181 85.1649C20.6908 79.2051 24.3139 71.4863 25.0928 66.4542C26.3443 58.3678 22.4849 54.2896 26.7906 45.1793C29.8886 38.6069 43.5147 25.0509 51.041 25.4447C60.3526 25.9435 60.1426 38.7207 62.3742 45.6606C69.0166 66.3404 78.5557 80.8854 59.6087 99.001C57.0183 101.478 52.2137 103.499 51.9862 107.166C51.5398 114.474 58.7336 116.408 62.5405 121.632C64.3783 124.153 65.9448 129.01 65.8748 132.125C65.831 133.92 64.4658 137 64.6583 137.963C64.8159 138.75 66.4174 139.678 66.995 140.807C71.0907 148.893 70.0755 171.07 67.6076 179.856C65.1397 188.643 61.4028 183.882 57.9547 185.956C55.7143 187.304 48.0655 204.702 44.8274 207.607C43.4622 209.13 41.4931 209.813 39.7691 208.386H39.7603ZM57.9372 42.5276C57.5784 39.062 56.6595 31.0544 52.3712 30.6606C50.3759 30.4768 48.1092 30.9669 48.1005 33.3298C52.0824 35.1326 54.7954 39.5521 57.9372 42.5364V42.5276ZM46.4465 36.1215C42.2457 38.8607 42.8758 43.4115 41.7382 47.656C35.9972 69.1409 29.7223 90.3195 21.8372 111.113L22.1348 148.893C22.4673 149.821 23.1237 150.486 23.7888 151.177C24.2789 151.694 30.1687 156.49 30.6588 156.778C33.2317 158.266 36.9948 156.665 38.5789 160.664C40.1279 156 45.195 158.1 47.1553 156.796C48.9931 155.571 54.069 147.887 56.2831 145.568C58.0159 143.747 60.3963 142.715 61.8316 140.571C49.422 126.507 47.0241 111.218 49.5882 92.9275C51.4698 79.4764 57.2721 64.4676 56.6507 50.719C56.3619 44.2079 52.1437 38.9745 46.4465 36.1303V36.1215ZM28.4009 57.6239C29.066 54.0971 30.8425 50.1502 32.4266 46.8771C33.7568 44.1204 36.0147 41.5737 36.9336 38.5894C32.3303 42.3788 28.6722 48.0761 27.8233 54.0883C27.7182 54.8147 27.1844 57.6414 28.4009 57.6239ZM21.1809 102.257C23.5088 100.217 24.3139 95.9118 25.2941 92.91C29.101 81.2618 33.3805 68.6946 36.601 56.9588C37.5112 53.6333 38.8589 49.7476 38.5789 46.4658C31.8052 57.2301 26.1517 70.9787 22.9662 83.3621C22.6161 84.7186 21.1809 89.952 21.1809 90.7659V102.248V102.257ZM52.0387 98.9748C52.5988 99.6837 63.0043 89.2169 63.8269 88.1317C72.7447 76.4047 62.9868 59.0154 59.2412 47.1309C58.0947 46.9734 58.6198 48.6186 58.5935 49.415C58.0159 64.3188 55.7581 72.3177 53.5264 86.3551C52.8613 90.5208 52.8701 94.8266 52.0387 98.9748ZM19.2118 146.889L19.2468 121.589L17.9166 112.758L12.7007 140.693C12.7882 142.181 17.9253 145.419 19.2118 146.889ZM62.5317 135.075C62.7505 128.949 60.4401 122.595 55.6443 118.666C54.9004 118.062 54.5854 117.073 53.3514 117.362C55.0054 123.803 57.2371 130.751 62.5317 135.083V135.075ZM32.8116 166.116C31.6564 165.189 30.3437 165.25 29.0572 163.64C26.9919 161.058 28.6722 159.64 28.1121 158.713C27.7445 158.091 19.133 149.602 17.9078 148.526C15.0373 146.023 10.3203 142.443 6.7409 141.647C5.17438 143.257 10.4515 166.405 11.5192 170.011C12.5869 173.616 16.6914 186.779 22.2923 184.494C24.0339 183.786 33.2755 175.699 31.6739 173.809L21.1809 175.113C18.6167 172.794 32.3215 171.481 32.339 170.851L17.2515 161.662C18.1791 160.349 18.5729 160.673 19.8769 160.988C23.9989 161.968 28.7772 166.055 32.6803 167.893C34.4394 168.357 32.9954 166.274 32.8029 166.116H32.8116ZM61.5515 171.831C58.7161 172.391 54.4103 171.428 51.3823 171.831C51.6886 174.229 50.5159 177.975 52.3275 179.751C52.9576 180.364 60.7464 182.832 61.6916 182.893C62.6892 182.954 63.0043 182.272 63.3719 181.519C65.2797 168.785 66.925 155.737 64.8334 142.951C63.6432 142.977 48.8969 159.203 48.7394 160.384C48.5381 161.933 49.632 163.648 49.422 165.276C53.3426 164.891 56.1781 160.857 60.5714 161.338C59.3987 166.055 52.7475 165.294 50.0871 168.882C50.0608 171.297 61.219 168.856 62.7943 169.276C63.1531 169.372 64.1507 170.098 63.5381 170.527C63.3456 170.798 61.8403 171.779 61.5603 171.84L61.5515 171.831ZM29.7223 160.682C30.7113 162.869 33.1442 163.675 34.6932 165.224C35.6296 166.151 35.3671 167.499 36.7323 168.435C37.4062 168.899 43.751 171.131 44.5649 171.175C49.8158 171.411 46.7878 160.463 45.0812 160.078L39.244 163.088C35.7521 160.839 34.2206 159.045 29.7223 160.69V160.682ZM48.7569 173.8C43.5935 174.561 39.384 172.111 34.982 169.871C34.4482 172.566 32.9429 175.839 33.7918 178.605C34.5619 181.134 48.9669 184.424 49.4395 180.04C49.597 178.552 48.118 175.752 48.7656 173.8H48.7569ZM32.0152 179.734C31.0526 180.644 28.9435 182.482 29.1973 183.864C29.3198 184.529 34.7632 194.436 35.6121 195.81C36.461 197.184 41.1343 204.168 42.4295 203.949L55.198 184.634C52.1874 179.716 49.3695 184.241 45.7813 184.337C42.1932 184.433 34.5882 182.665 32.024 179.734H32.0152Z" fill="black"/>
<path d="M133.428 108.164C133.655 108.488 139.212 103.771 140 107.849C138.433 121.746 138.915 137.578 128.807 148.508C126.444 151.064 123.836 151.352 122.602 152.805C119.521 156.437 114.699 173.144 108.792 172.881C104.696 170.378 101.108 165.469 97.9928 161.635C96.7851 160.156 91.893 152.709 91.4117 152.411C90.2302 151.685 88.8212 153.54 86.4758 151.484C80.8836 146.592 76.6041 129.43 76.9367 122.236C77.1817 117.09 79.5971 113.301 80.2098 109.1C81.435 100.716 78.0219 93.5225 85.0756 86.075C86.9309 84.1146 94.5972 80.299 94.7197 78.9425C95.026 75.6169 89.8977 70.8386 88.2349 68.3357C80.4285 56.6262 77.8994 50.999 81.2249 36.6115C82.5464 30.8793 83.4041 30.8968 83.5003 24.4994C83.6141 17.0169 81.9776 10.5495 87.1322 4.44974C90.3702 0.616583 93.1007 -1.08121 98.0978 0.721601C105.44 3.37331 117.815 11.3372 120.799 18.7059C123.25 24.7532 122.243 33.6535 122.917 40.2171C125.262 63.0498 137.418 84.701 133.419 108.155L133.428 108.164ZM95.1223 116.933C96.19 118.009 100.277 123.698 101.021 123.838C104.863 121.081 109.974 123.566 113.378 123.251C114.551 123.146 124.737 115.804 125.201 114.719C126.383 112.435 124.956 109.975 124.895 107.831C124.641 97.767 124.536 87.6328 122.077 77.8311C118.935 65.2902 112.126 53.8082 108.311 41.7136C104.495 29.6191 105.047 16.4393 96.9951 6.43633C93.3633 10.0332 86.1345 14.8378 86.1083 20.5262C86.0908 23.6505 88.8212 33.0321 89.7664 36.6203C93.3808 50.2551 100.767 64.7651 97.4065 79.0388C95.0348 89.1205 89.2851 97.837 84.9531 107.087C85.2156 108.47 93.547 115.34 95.1223 116.924V116.933ZM118.979 37.6092C118.611 32.8746 118.979 27.3612 118.979 22.5128C118.979 21.2964 111.916 11.9235 110.464 10.6808C109.58 9.92818 103.734 5.6487 103.865 8.07286C103.996 10.4445 107.917 24.1756 109.011 26.5648C111.146 31.2206 115.697 35.6838 119.303 39.2457C120.388 38.7381 118.988 37.7667 118.97 37.6092H118.979ZM95.3498 71.4075L84.8656 34.6512C80.1397 48.3735 84.1917 62.3847 95.3498 71.4075ZM130.653 111.314C131.143 110.483 130.968 94.4064 130.785 92.096C129.656 77.3935 123.722 60.7569 118.9 46.877L110.455 35.9726C113.964 49.3362 121.438 62.6297 124.562 76.002C127.319 87.7903 127.477 100.69 128.177 112.767C128.676 112.4 130.513 111.542 130.653 111.314ZM93.3808 83.8871C87.3597 86.18 80.1397 94.9227 83.8766 101.6L93.3808 83.8871ZM115.137 142.881L123.906 148.858C134.417 138.374 136.797 123.094 137.357 108.829L117.736 124.905L120.633 131.154L129.481 125.247C128.483 131.145 122.051 132.957 118.331 136.737C118.06 138.216 118.979 137.648 119.95 137.718C121.421 137.814 127.87 137.21 127.494 140.019C127.31 141.376 125.674 140.623 125.009 140.562C122.051 140.308 119.171 139.135 116.117 139.783L115.119 140.754L115.137 142.89V142.881ZM101.257 139.013H91.0879C90.6853 139.013 89.8277 137.656 90.1077 137.044C92.0155 135.25 101.948 139.503 102.57 135.075C98.938 135.538 85.7582 129.089 84.9531 126.096C84.7168 125.22 85.1106 124.056 85.8545 123.908C87.3247 123.61 97.3189 132.23 101.581 132.467C104.084 132.607 100.531 128.283 99.9356 127.54C98.4216 125.632 93.7833 120.608 92.0155 119.051C89.2851 116.653 85.0756 115.025 82.5639 112.111C78.1531 119.978 79.2646 130.506 82.0476 138.864C82.984 141.691 87.4297 150.399 90.9478 149.41C92.6456 148.937 102.421 139.853 101.266 139.004L101.257 139.013ZM104.548 137.044C108.985 135.197 114.183 137.306 117.045 132.117C117.526 127.207 106.456 124.074 102.57 125.894C105.362 129.334 105.677 132.878 104.548 137.044ZM113.072 138.365C109.527 139.214 105.003 138.041 102.64 141.306L104.618 144.841C109.475 145.183 111.54 142.522 113.072 138.365ZM101.248 144.272C100.487 143.747 93.7746 149.856 94.1334 151.65C98.7367 156.56 102.789 164.156 107.182 168.864C107.803 169.529 108.328 170.509 109.379 170.474C112.765 169.879 119.714 153.82 120.143 149.926C119.924 148.788 114.944 145.445 113.798 145.253C110.499 144.693 103.139 151.484 101.248 144.272Z" fill="black"/>
</svg>
