<svg width="424" height="475" viewBox="0 0 424 475" fill="none" xmlns="http://www.w3.org/2000/svg">
<path d="M339.585 188.581C360.851 192.961 381.754 193.814 386.289 194.035C387.674 195.064 388.011 196.11 388.359 198.522C389.055 204.603 393.365 222.12 399.379 244.494C402.026 257.719 402.445 264.46 405.059 270.975C409.511 282.072 413.221 294.497 417.064 304.583C420.513 313.635 424.087 319.439 423.705 322.597C423.096 327.622 424.032 342.066 416.145 353.273C408.607 363.985 394.597 381.764 389.447 384.06C387.433 384.958 385.143 385.756 371.232 385.613C358.538 385.483 334.671 382.932 320.262 386.824C299.442 392.448 291.77 397.83 288.052 398.131C278.968 398.864 268.201 396.806 250.667 389.813C244.047 387.173 230.83 385.5 209.458 387.221C198.37 388.114 186.877 389.845 175.867 390.77C164.858 391.696 154.592 391.386 145.927 392.597C130.215 394.794 121.164 396.737 114.865 396.725C104.176 396.705 95.6832 396.735 91.0886 395.216C79.622 391.425 73.7651 384.421 58.1546 371.518C50.3661 365.08 39.6244 365.746 33.525 362.223C26.6825 358.27 6.32142 353.058 0.397908 338.378C-1.12009 334.616 1.69559 321.256 9.01034 300.339C12.4269 290.569 15.5205 282.467 18.7718 276.296C24.4305 265.556 29.7226 255.761 36.4883 245.071C44.322 232.694 50.8403 220.56 58.3664 209.616L58.5522 209.346C67.7563 195.962 74.1504 186.664 79.5226 184.733C88.2215 181.608 97.263 178.927 123.865 179.002C146.757 179.066 187.596 179.684 212.259 180.465C236.921 181.247 245.157 182.165 259.431 182.973C273.704 183.781 293.419 184.459 307.471 185.225C321.523 185.991 329.718 186.549 339.585 188.581Z" fill="#F4F0CD"/>
<path d="M147.258 29.524C152.101 31.3593 157.314 29.0524 161.329 32.6848L162.055 34.1505C159.608 41.4534 163.623 49.3554 163.585 55.8172C163.559 59.0799 161.851 61.8201 161.558 65.3251C160.602 76.7447 162.527 97.481 166.605 108.149C169.626 116.051 175.743 122.5 176.903 131.307L170.199 129.892L171.066 140.802L174.01 141.362L173.526 133.741C175.782 135.066 180.548 135.767 180.765 139.017C180.892 140.967 179.274 141.847 179.083 142.956C178.751 144.829 180.319 147.837 179.554 151.202C178.968 153.776 176.075 155.153 175.973 157.09C175.896 158.683 177.668 161.385 177.846 163.819C178.611 174.003 178.318 184.925 178.993 195.172C180.739 201.073 194.402 194.255 199.233 195.72C225.003 191.489 228.929 182.797 227.45 156.746C224.111 156.21 220.861 155.165 218.044 153.241C213.839 150.386 210.219 142.395 207.224 141.12C201.514 138.673 185.404 142.892 184.525 133.142L204.382 3.97005C207.096 -2.51721 220.581 2.50436 226.087 2.81025C240.195 3.56221 255.018 3.4475 269.101 3.76613C274.021 3.88084 303.322 2.87397 304.584 4.62005C306.343 7.2328 303.042 9.8583 303.08 11.872C303.118 13.6946 305.82 15.0456 306.47 17.0465C308.866 24.4005 302.825 33.6662 301.385 40.7525C298.211 56.4417 298.836 73.1251 295.127 89.9359C292.973 99.6604 287.964 111.552 286.919 120.919C285.415 134.455 292.361 147.365 272.95 147.862C261.327 148.168 246.53 145.607 236.64 154.758C230.522 160.416 231.248 177.966 233.555 185.55C236.487 195.185 240.45 196.957 250.035 197.747C266.17 199.098 283.44 199.62 299.741 200.614C308.943 201.175 309.86 195.083 308.726 186.85C307.273 176.361 298.033 176.666 292.591 169.542C285.899 160.773 287.875 150.297 289.825 140.062C290.857 134.62 291.724 127.394 297.752 125.049C303.118 122.958 321.229 122.64 327.206 123.456C332.266 124.144 344.54 127.254 344.82 133.371C342.666 144.459 346.643 156.414 341.481 166.878C337.02 175.927 328.455 174.449 321.203 180.057C312.435 186.837 313.429 191.795 318.999 200.678C332.496 200.818 345.751 204.349 359.107 206.248C373.701 208.325 384.993 204.17 388.039 223.199C393.876 259.688 390.116 289.856 404.875 325.848C406.175 329.009 409.361 331.66 408.966 335.675C408.316 342.366 399.306 344.086 397.445 348.075C395.138 353.008 399.382 358.272 395.38 363.229C391.11 368.531 373.764 368.022 367.672 377.58C365.952 380.27 364.601 387.063 361.363 388.478C359.541 389.268 357.489 388.669 355.653 389.459C354.596 389.918 353.589 391.855 352.161 392.658C341.901 398.329 329.551 392.339 322.159 384.705C321.293 383.813 316.934 378.052 320.732 378.473C329.832 379.479 340.385 393.703 351.358 386.107C363.02 378.027 358.712 372.176 358.483 360.821C358.279 350.472 358.712 340.072 358.534 329.723L361.376 344.545L363.313 371.781C371.241 364.67 382.762 364.134 391.072 357.724L379.563 258.031C382.966 259.663 383.578 264.875 384.062 268.329C386.828 287.791 388.434 313.383 394.156 331.838C394.603 333.266 398.209 344.813 400.414 337.688C402.39 331.328 396.858 320.138 395.304 313.472C388.064 282.374 385.987 250.053 380.481 218.611C379.793 217.094 373.904 215.552 372.133 215.259C353.805 212.314 335.401 217.234 316.921 216.928C313.99 216.877 295.229 218.356 296.389 213.589C296.682 212.391 300.442 211.461 301.729 211.282C314.895 209.46 329.857 213.296 343.214 212.136C343.673 209.472 342.653 210.53 341.124 209.982C328.239 205.394 314.104 206.439 300.646 206.439L255.286 203.546C255.604 205.292 259.058 209.268 260.537 209.268H276.787C277.246 209.268 278.89 210.938 277.271 211.664C274.174 212.697 270.452 213.755 267.215 214.035C242.426 216.164 203.681 212.072 181.211 217.884C179.886 218.228 178.229 217.859 177.859 219.783C183.607 218.802 189.291 222.115 194.581 222.664C200.545 223.288 207.581 222.358 213.749 222.613C252.647 224.244 297.268 225.582 336.102 223.645C345.177 223.199 355.016 220.943 364.256 220.739C364.919 230.26 349.294 226.946 342.768 227.43C307.834 230.043 271.816 229.266 236.691 229.367C197.64 229.482 161.647 226.462 122.94 223.556C119.333 223.288 113.305 225.506 111.406 221.695C108.36 215.577 117.358 216.686 119.576 214.558C122.469 210.428 117.728 205.534 113.331 205.572C111.47 205.585 109.571 207.013 107.506 207.267C101.235 208.045 77.0962 209.409 73.6168 212.824C69.3854 216.992 68.8501 227.647 66.7599 233.42C65.8168 236.008 63.9942 237.97 63.1275 240.303C50.5736 273.963 37.2549 307.444 20.5588 339.256C18.5324 344.507 30.5128 356.258 34.553 350.089L52.1667 280.96L54.5246 285.115C52.1412 294.125 51.2108 303.404 49.3118 312.517C46.4314 326.358 42.0853 340.212 40.301 354.168C36.3118 385.355 72.8521 364.44 87.1138 367.423C95.7295 369.22 102.561 380.308 110.59 384.093C113.993 385.699 119.359 386.923 123.144 387.789C127.643 388.834 140.388 387.968 140.567 394.328C140.771 401.427 131.48 394.633 127.427 394.022C120.761 393.002 113.407 394.531 107.111 391.396C96.8766 386.273 91.1668 370.915 78.1668 373.91C76.0001 374.407 73.8207 376.79 71.4756 377.721C65.0648 380.27 58.1187 379.403 51.4785 378.218C40.4667 376.268 30.602 371.31 33.5334 358.412C23.0951 359.266 18.0481 348.878 11 343.118C13.8931 337.841 17.7677 333.176 20.6353 327.836C31.9785 306.845 42.7099 279.214 50.7393 256.617C55.6844 242.699 59.2785 225.072 64.606 212.174C65.804 209.268 66.4413 207.956 69.156 206.21C73.4128 203.469 92.1482 201.264 98.1893 200.742C103.02 200.334 107.939 202.093 114.057 200.449C122.609 198.142 122.838 186.098 123.361 178.209C124.495 161.003 121.475 145.173 128.281 128.643C132.576 118.205 138.885 110.8 141.829 99.1761C143.83 91.2869 146.583 74.2466 146.353 66.3956C146.226 61.8456 141.344 55.0142 141.79 51.1907C142.275 46.9338 147.271 46.2201 147.271 45.825V29.575L147.258 29.524ZM297.077 11.6171C296.147 10.6358 292.629 9.6034 291.138 9.43771C278.01 7.98477 262.767 11.171 249.015 10.4573C244.809 10.2407 239.813 8.73673 235.658 8.52006C228.776 8.15045 213.125 6.64653 209.352 12.7897C206.803 16.9318 204.089 34.9152 202.992 40.8417C198.34 65.9751 195.817 91.5673 192.019 116.854C191.05 123.341 185.774 134.11 195.575 135.602C198.098 135.984 205.44 136.621 207.95 136.609C211.889 136.596 216.77 132.874 220.466 135.602C221.282 136.201 221.486 137.985 222.467 138.584C228.623 142.331 237.519 136.507 243.318 136.532C248.11 136.545 251.819 141.146 256.713 141.464C259.39 141.643 261.722 140.432 264.309 140.407C269.573 140.343 274.862 140.547 280.113 140.432C285.377 100.514 290.628 60.5584 296.631 20.7426C297.064 17.8877 299.804 14.5485 297.077 11.6426V11.6171ZM156.817 49.6231C155.173 47.2015 145.78 49.5466 147.271 54.377C150.1 55.575 159.442 53.4976 156.817 49.6231ZM155.785 70.5378L157.773 55.3329C155.3 57.9201 149.871 58.6721 149.45 62.6231C149.132 65.5417 152.012 73.0613 155.785 70.5378ZM151.082 76.3623C149.361 76.6555 149.45 78.2996 149.042 79.5614C148.265 81.9957 145.346 99.3418 148.698 99.2781C152.586 92.8163 152.382 83.6525 151.082 76.3623ZM161.596 92.6124C162.845 90.4074 157.187 83.5123 155.874 84.978C154.625 87.1829 160.284 94.078 161.596 92.6124ZM146.289 111.743C144.747 110.277 142.326 116.318 141.089 116.56C139.152 120.078 136.641 125.457 141.179 127.84C148.125 128.49 148.749 114.088 146.289 111.73V111.743ZM155.734 136.456C158.066 132.008 154.663 129.42 150.597 128.006C147.487 130.198 152.19 133.422 152.165 136.456H155.734ZM312.397 128.235C311.058 128.426 305.03 129.956 304.992 131.332C310.536 136.851 321.076 134.353 328.43 133.766C330.138 133.626 331.514 134.047 332.674 132.288C328.659 126.731 318.642 127.33 312.397 128.235ZM133.149 144.957C129.925 141.299 140.936 130.185 135.303 128.949C133.085 128.464 128.344 139.782 128.179 141.974C127.936 145.224 130.078 146.69 130.014 149.379C129.937 152.553 127.631 158.033 127.197 161.933C125.834 174.5 127.07 187.258 125.273 199.671C135.061 197.76 144.9 197.454 154.892 197.76L154.778 149.15C153.58 147.212 135.8 147.964 133.149 144.957ZM297.013 135.729C293.623 136.812 293.126 152.846 293.508 156.185C295.471 173.365 316.602 174.614 329.551 169.274C339.302 165.247 340.41 151.52 340.882 142.306C340.933 141.362 341.774 140.878 340.359 139.909C334.815 139.463 329.195 139.438 323.587 139.412C317.979 139.387 310.778 140.598 304.52 139.438C301.487 138.877 300.722 134.544 297.013 135.729ZM241.891 145.199C238.156 145.326 234.46 146.486 230.739 146.741C227.973 146.919 222.123 143.962 221.83 149.01C223.27 150.845 236.002 148.296 238.717 147.263C239.724 146.881 242.031 146.473 241.891 145.199ZM167.332 186.289C168.555 178.425 170.849 171.938 170.25 163.794C170.097 161.806 169.715 154.732 166.886 154.732C165.42 158.683 159.863 160.608 159.659 164.75C159.442 169.198 162.616 163.335 164.005 163.322C168.644 163.297 164.846 168.561 164.54 170.561L167.344 186.276L167.332 186.289ZM179.044 203.724C171.474 211.206 197.372 220.114 197.907 206.732C198.2 199.62 182.141 200.678 179.044 203.724ZM205.567 201.583C210.538 207.242 224.812 213.589 229.439 204.922C229.413 204.514 224.532 201.583 224.2 201.583H205.567ZM239.992 207.318L239.877 204.081C239.087 201.698 233.02 201.864 232.395 204.081L233.313 208.262L239.992 207.306V207.318ZM135.545 205.56C129.568 206.732 128.421 215.412 137.546 212.429C143.294 210.556 140.337 204.629 135.545 205.56Z" fill="black"/>
<path d="M230.433 386.082C231.312 394.328 241.215 393.678 246.606 398.1C259.441 408.64 254.687 422.087 257.618 435.839C260.091 447.424 267.381 445.13 276.009 449.973L280.597 446.302L285.53 456.69L309.248 454.854L322.197 455.861C316.386 463.495 303.118 457.531 294.477 460.641L309.784 463.024L312.626 464.451C301.92 468.339 290.258 465.713 279.17 465.42C278.342 462.004 280.317 463.457 281.082 461.609C266.081 462.896 254.495 466.172 245.319 451.961C236.053 437.61 236.933 424.457 234.116 408.679C231.707 395.156 223.04 385.865 208.18 389.166C202.903 390.339 205.745 392.441 205.478 395.054C204.573 403.887 204.687 413.101 203.54 421.806C202.393 430.511 198.952 437.47 200.086 446.532C200.928 453.299 205.032 460.118 204.751 467.192C214.922 470.072 226.061 466.261 236.155 470.212C233.861 477.146 224.417 474.023 219.472 473.985C206.242 473.895 189.483 477.706 187.928 459.646C186.335 457.391 167.23 461.393 163.075 461.635C157.263 461.966 149.756 461.902 143.932 461.584C138.77 461.303 130.269 458.945 125.731 459.2C122.252 459.404 116.593 464.094 114.439 463.432C111.597 457.773 107.187 460.819 102.433 458.168C92.9255 452.866 98.1765 435.89 104.345 437.177C110.514 438.464 106.359 449.438 116.733 444.9C133.175 437.725 131.492 411.941 142.504 399.948C144.785 397.476 148.163 395.972 150.546 392.696C156.358 384.68 150.368 380.155 163.852 379.76C172.2 379.518 182.511 382.398 190.719 382.296C199.895 382.169 207.135 377.657 219.434 378.447C247.358 380.244 255.031 399.744 288.767 390.402C298.441 387.726 303.449 380.321 313.977 385.228C318.82 387.484 321.955 391.422 316.946 395.615C309.682 382.819 296.975 394.761 287.263 397.489C271.854 401.822 258.383 398.011 244.134 391.97C241.827 390.988 231.796 384.769 230.445 386.069L230.433 386.082ZM191.802 414.389C194.313 410.234 190.515 406.754 189.839 402.472C189.279 398.89 191.904 393.155 185.532 391.256C178.445 389.14 162.246 403.084 157.798 408.564C150.597 417.46 147.768 428.791 141.752 438.4L128.153 452.993L187.418 453.962C189.929 442.313 186.207 427.057 190.12 416.071C190.604 414.72 191.598 414.72 191.802 414.389ZM251.437 409.023C249.053 406.78 247.83 416.02 249.55 417.613C252.074 419.945 253.336 410.807 251.437 409.023ZM135.787 436.743C134.347 435.214 126.318 443.613 125.273 444.862C124.38 445.933 122.953 446.404 123.374 448.201C124.266 449.106 138.273 439.394 135.787 436.743Z" fill="black"/>
<path d="M323.064 329.735L325.065 344.01C326.735 344.239 325.97 341.843 326.008 340.684C326.046 339.728 325.486 327.9 327.907 329.684L332.687 379.378C330.201 379.837 331.004 378.919 330.342 377.479C327.882 372.1 329.449 365.154 325.524 360.286L323.128 371.731L321.267 369.309L320.273 329.672L323.064 329.735Z" fill="black"/>
<path d="M321.229 249.377C322.631 257.127 327.207 267.335 321.713 274.23C320.133 269.617 319.559 262.658 319.292 257.547C319.241 256.489 318.68 246.599 321.229 249.377Z" fill="black"/>
<path d="M217.994 36.2285C219.472 40.1795 216.553 43.2001 217.05 47.1383C218.299 56.9138 235.365 60.7246 243.331 61.0687C266.259 62.0629 285.951 37.8089 259.288 25.9942C251.794 22.6805 236.206 22.2981 229.133 26.8226C226.342 28.6069 224.557 31.9079 221.32 33.3354C217.853 30.7736 224.341 23.802 226.66 22.4383C241.916 13.4275 269.93 18.5893 277.003 35.9991C283.784 52.6952 258.421 67.0462 244.427 66.7403C238.462 66.6129 219.752 61.5531 215.699 57.1687C210.882 51.9687 210.308 38.905 217.994 36.2413V36.2285Z" fill="black"/>
<path d="M268.604 82.1745C270.682 85.5265 262.283 87.2089 260.052 87.8589C259.211 90.102 264.233 91.5422 261.964 93.1098C260.001 94.0912 257.962 94.4226 255.783 94.5755C248.964 95.0471 229.974 93.8873 223.525 92.3451C216.018 90.5608 203.349 86.0873 212.704 77.3059C220.377 70.1049 238.653 78.6951 248.199 80.0843C251.245 80.5304 267.865 81.002 268.592 82.1745H268.604ZM252.405 86.8902C248.939 85.7942 245.625 84.3285 242.094 83.3216C234.32 81.1167 223.385 77.7392 216.082 81.1549C213.443 84.5324 228.088 86.5589 229.145 86.7245C235.951 87.7569 242.897 88.101 249.78 88.1775C251.042 88.1902 251.883 89.0187 252.405 86.8902Z" fill="black"/>
<path d="M215.839 93.7723C219.434 93.0076 226.329 94.6389 227.552 98.8193C227.093 100.948 216.082 100.693 214.183 99.788C210.652 98.0929 212.22 94.537 215.839 93.7723Z" fill="black"/>
<path d="M244.478 97.5571C246.224 97.0473 247.511 97.2895 248.569 98.8444L247.651 101.725L241.89 100.731C241.674 99.5071 243.42 97.863 244.465 97.5571H244.478Z" fill="black"/>
</svg>
